<svg width="12" height="12" viewBox="0 0 12 12" fill="none" xmlns="http://www.w3.org/2000/svg">
<g id="Calendar" clip-path="url(#clip0_993_30717)">
<path id="Vector (Stroke)" fill-rule="evenodd" clip-rule="evenodd" d="M8.25 1C8.38807 1 8.5 1.11193 8.5 1.25V3.25C8.5 3.38807 8.38807 3.5 8.25 3.5C8.11193 3.5 8 3.38807 8 3.25V1.25C8 1.11193 8.11193 1 8.25 1Z" fill="#355960" stroke="#355960" stroke-width="0.7" stroke-linecap="round" stroke-linejoin="round"/>
<path id="Vector (Stroke)_2" fill-rule="evenodd" clip-rule="evenodd" d="M3.75 1C3.88807 1 4 1.11193 4 1.25V3.25C4 3.38807 3.88807 3.5 3.75 3.5C3.61193 3.5 3.5 3.38807 3.5 3.25V1.25C3.5 1.11193 3.61193 1 3.75 1Z" fill="#355960" stroke="#355960" stroke-width="0.7" stroke-linecap="round" stroke-linejoin="round"/>
<path id="Vector (Stroke)_3" fill-rule="evenodd" clip-rule="evenodd" d="M1 4.75C1 4.61193 1.11193 4.5 1.25 4.5H10.75C10.8881 4.5 11 4.61193 11 4.75C11 4.88807 10.8881 5 10.75 5H1.25C1.11193 5 1 4.88807 1 4.75Z" fill="#355960" stroke="#355960" stroke-width="0.7" stroke-linecap="round" stroke-linejoin="round"/>
<path id="Vector (Stroke)_4" fill-rule="evenodd" clip-rule="evenodd" d="M1.75 2.5C1.63977 2.5 1.5 2.60977 1.5 2.815V10.19C1.5 10.3917 1.64111 10.505 1.75 10.505H10.25C10.3589 10.505 10.5 10.3917 10.5 10.19V2.815C10.5 2.61325 10.3589 2.5 10.25 2.5H1.75ZM1 2.815C1 2.39023 1.31023 2 1.75 2H10.25C10.6911 2 11 2.39675 11 2.815V10.19C11 10.6083 10.6911 11.005 10.25 11.005H1.75C1.30889 11.005 1 10.6083 1 10.19V2.815Z" fill="#355960" stroke="#355960" stroke-width="0.7" stroke-linecap="round" stroke-linejoin="round"/>
</g>
<defs>
<clipPath id="clip0_993_30717">
<rect width="12" height="12" fill="white"/>
</clipPath>
</defs>
</svg>
