<svg width="14" height="14" viewBox="0 0 14 14" fill="none" xmlns="http://www.w3.org/2000/svg">
<g id="Group 209">
<path id="Vector (Stroke)" fill-rule="evenodd" clip-rule="evenodd" d="M9.92075 2.82817L2.82817 9.92075L2.44238 9.53496L9.53496 2.44238L9.92075 2.82817Z" fill="#5F7E5F" stroke="#5F7E5F" stroke-width="0.5" stroke-miterlimit="10"/>
<path id="Vector (Stroke)_2" fill-rule="evenodd" clip-rule="evenodd" d="M8.07836 1.61708C7.98303 1.52175 7.82295 1.52175 7.72761 1.61708L1.61708 7.72761C1.52175 7.82295 1.52175 7.98303 1.61708 8.07836L5.92173 12.383C6.01707 12.4783 6.17715 12.4783 6.27248 12.383L12.383 6.27248C12.4766 6.17888 12.4806 6.02309 12.3815 5.92023L8.07836 1.61708ZM7.34183 1.2313C7.65022 0.922901 8.15575 0.922901 8.46415 1.2313L12.7714 5.53852C13.075 5.85032 13.0786 6.34847 12.7688 6.65827L6.65827 12.7688C6.34987 13.0772 5.84434 13.0772 5.53595 12.7688L1.2313 8.46415C0.922901 8.15575 0.922901 7.65022 1.2313 7.34183L7.34183 1.2313Z" fill="#5F7E5F" stroke="#5F7E5F" stroke-width="0.5" stroke-miterlimit="10"/>
</g>
</svg>
