<svg width="85" height="85" viewBox="0 0 85 85" fill="none" xmlns="http://www.w3.org/2000/svg">
<path d="M42.5 85C65.9721 85 85 65.9721 85 42.5C85 19.0279 65.9721 0 42.5 0C19.0279 0 0 19.0279 0 42.5C0 65.9721 19.0279 85 42.5 85Z" fill="white"/>
<path d="M40.8618 84.8375V67.231H45.0423V84.9612" fill="#7DD1AE"/>
<g filter="url(#filter0_d_997_37752)">
<path d="M24.1401 39.1169C24.1247 38.9392 23.7345 34.7394 24.8086 30.1146C26.2767 23.8053 29.7695 19.8065 34.9158 18.5508L35.4104 20.5715C24.8395 23.1524 26.1956 38.7615 26.2111 38.916L24.1401 39.1169Z" fill="#BBBDBF"/>
<g style="mix-blend-mode:multiply">
<path d="M26.0022 30.5281C27.37 24.6476 30.5034 20.7724 35.0895 19.2578L34.9157 18.5508C29.7693 19.8065 26.2766 23.8053 24.8084 30.1146C23.7343 34.7394 24.1206 38.9392 24.14 39.1169L25.2952 39.0049C25.2218 37.7183 25.1368 34.2603 26.0022 30.5281Z" fill="#A6A8AB"/>
</g>
<path d="M33.1935 17.9599L38.121 16.8377C38.7275 16.6996 39.3334 17.0807 39.4715 17.6872L39.8945 19.5444C40.0326 20.1509 39.6515 20.7568 39.045 20.895L34.1176 22.0172C33.511 22.1553 32.9052 21.7742 32.767 21.1677L32.3441 19.3105C32.2059 18.7039 32.587 18.0981 33.1935 17.9599Z" fill="#A3D2BB"/>
<g style="mix-blend-mode:soft-light">
<path d="M36.9247 19.2262C37.4502 19.454 38.0375 19.4076 38.5243 19.1026C38.6054 19.0524 38.6866 18.9945 38.7638 18.9327L38.5784 18.1179C38.5165 17.8476 38.25 17.6816 37.9795 17.7434L36.0863 18.1758C36.1868 18.6276 36.5113 19.0447 36.9286 19.2262H36.9247Z" fill="#C3DED9"/>
</g>
<path d="M60.7131 39.1159C60.7286 38.9382 61.1188 34.7384 60.0447 30.1137C58.5765 23.8044 55.0838 19.8055 49.9375 18.5498L49.4429 20.5705C60.0138 23.1514 58.6577 38.7605 58.6422 38.915L60.7131 39.1159Z" fill="#BBBDBF"/>
<g style="mix-blend-mode:multiply">
<path d="M58.8509 30.5271C57.4832 24.6466 54.3497 20.7714 49.7636 19.2569L49.9375 18.5498C55.0838 19.8055 58.5766 23.8044 60.0447 30.1137C61.1188 34.7384 60.7325 38.9382 60.7132 39.1159L59.5579 39.0039C59.6313 37.7173 59.7163 34.2593 58.8509 30.5271Z" fill="#A6A8AB"/>
</g>
<path d="M44.9524 19.5509L45.3754 17.6936C45.5135 17.0871 46.1194 16.706 46.7259 16.8441L51.6534 17.9664C52.2599 18.1045 52.641 18.7104 52.5029 19.3169L52.0799 21.1741C51.9418 21.7806 51.3359 22.1617 50.7294 22.0236L45.8019 20.9014C45.1954 20.7633 44.8143 20.1574 44.9524 19.5509Z" fill="#A3D2BB"/>
<g style="mix-blend-mode:soft-light">
<path d="M47.9284 19.2247C47.4029 19.4525 46.8156 19.4062 46.3288 19.1011C46.2477 19.0509 46.1704 18.993 46.0931 18.9312L46.2786 18.1165C46.3404 17.8462 46.607 17.6801 46.8775 17.7419L48.7706 18.1744C48.6702 18.6262 48.3456 19.0432 47.9284 19.2247Z" fill="#C3DED9"/>
</g>
<path d="M43.2109 68.7725C36.7702 68.7725 31.6586 66.9643 28.0036 63.3982C22.637 58.1591 22.5752 51.0693 22.5752 50.7679V38.7636H27.9302V50.7679C27.9302 50.8066 28.0307 55.9761 31.79 59.6079C34.5332 62.2545 38.617 63.5334 43.9295 63.4098H43.9681C43.9913 63.4098 47.3604 63.3286 50.6406 61.5977C54.7516 59.4302 56.9191 55.6207 57.0813 50.2811V38.7598H62.4363V50.397C62.1659 59.7741 57.12 64.2984 52.9318 66.4389C48.6702 68.618 44.4743 68.7493 44.0531 68.757C43.775 68.7648 43.4968 68.7686 43.2186 68.7686L43.2109 68.7725Z" fill="#7DD1AE"/>
</g>
<defs>
<filter id="filter0_d_997_37752" x="19.5752" y="14.8096" width="45.8611" height="57.9629" filterUnits="userSpaceOnUse" color-interpolation-filters="sRGB">
<feFlood flood-opacity="0" result="BackgroundImageFix"/>
<feColorMatrix in="SourceAlpha" type="matrix" values="0 0 0 0 0 0 0 0 0 0 0 0 0 0 0 0 0 0 127 0" result="hardAlpha"/>
<feOffset dy="1"/>
<feGaussianBlur stdDeviation="1.5"/>
<feComposite in2="hardAlpha" operator="out"/>
<feColorMatrix type="matrix" values="0 0 0 0 0 0 0 0 0 0 0 0 0 0 0 0 0 0 0.25 0"/>
<feBlend mode="normal" in2="BackgroundImageFix" result="effect1_dropShadow_997_37752"/>
<feBlend mode="normal" in="SourceGraphic" in2="effect1_dropShadow_997_37752" result="shape"/>
</filter>
</defs>
</svg>
