<svg width="20" height="20" viewBox="0 0 12 12" fill="none" xmlns="http://www.w3.org/2000/svg">
  <g id="Edit" clip-path="url(#clip0_993_30768)">
    <path id="Vector (Stroke)" fill-rule="evenodd" clip-rule="evenodd" d="M10.1732 1.82428C9.74086 1.39191 9.04415 1.39191 8.61178 1.82428L2.1937 8.24733L1.60661 10.3959L3.75508 9.80884L10.1732 3.38579C10.6055 2.95342 10.6056 2.25665 10.1732 1.82428ZM8.25823 1.47072C8.88586 0.843092 9.89915 0.843092 10.5268 1.47072C11.1544 2.09835 11.1544 3.11165 10.5268 3.73928L4.06185 10.2092C4.0311 10.24 3.99286 10.2622 3.9509 10.2737L1.3159 10.9937C1.22932 11.0173 1.1367 10.9927 1.07323 10.9293C1.00976 10.8658 0.985188 10.7732 1.00885 10.6866L1.72885 8.0516C1.74029 8.00971 1.76246 7.97151 1.79316 7.94079L8.25823 1.47072Z" fill="#000000" stroke="#000000" stroke-width="0.7" stroke-linecap="round" stroke-linejoin="round"/>
  </g>
  <defs>
    <clipPath id="clip0_993_30768">
      <rect width="20" height="20" fill="white"/>
    </clipPath>
  </defs>
</svg>
