<?xml version="1.0" encoding="UTF-8"?>
<svg width="100%" height="80%" id="Layer_1" data-name="Layer 1" xmlns="http://www.w3.org/2000/svg" viewBox="0 0 4000 1000">
  <defs>
    <style>
      .cls-1 {
        fill: #465203;
        stroke-width: 0px;
      }
    </style>
  </defs>
  <g>
    <circle class="cls-1" cx="563.27" cy="944.37" r="26.78"/>
    <path class="cls-1" d="M722.52,685.09c0-101.39-50.13-191.28-126.89-246.22-2.62-2.28-5.35-4.17-8.11-5.6-3.05-2.04-6.14-4.02-9.27-5.95l-.05-.14-.11.04c-46.06-28.35-100.24-44.74-158.17-44.74-74.77,0-143.28,27.27-196.14,72.37-.48.31-.94.67-1.33,1.12-64.34,55.53-105.14,137.65-105.14,229.11,0,34.28,5.75,67.65,16.75,99.06.01.05.03.09.04.14.02.05.04.1.06.16,14.81,42.14,39.1,80.72,71.82,113.13,56.65,56.12,132.58,88.12,213.78,90.12,1.21.03,2.38.04,3.53.04,34.9,0,46.03-13.27,49.56-21.37,3.09-7.07,5.28-21.66-12.89-41.88,12.45-30.38,10.58-69.4,10.49-71.12-.18-3.37-3.06-5.96-6.42-5.78-3.37.18-5.96,3.05-5.78,6.42.02.37,1.61,33.92-7.79,61.08-76.52-73.63-97.5-124.02-105.79-180.5,8.73-4.41,14.74-13.44,14.74-23.9,0-14.79-11.99-26.78-26.78-26.78s-26.78,11.99-26.78,26.78,11.99,26.78,26.78,26.78h.11c9.01,60.18,31.9,113.7,115.74,192.62,11.78,12.14,16.58,23.58,13.17,31.39-4.06,9.31-19.66,14.54-41.6,14-78.08-1.92-151.06-32.67-205.49-86.58-31.4-31.1-54.71-68.13-68.91-108.56-8.21-27.03-9.13-53.4-2.4-68.9,6.15-14.16,17.15-24.9,29.42-28.73,8.97-2.8,17.75-1.77,25.39,2.98,12.12,7.53,18.77,19,18.26,31.46-.41,9.96-5.56,18.89-13.11,22.76-3,1.54-4.19,5.22-2.65,8.22,1.54,3,5.22,4.19,8.22,2.65,11.58-5.94,19.15-18.63,19.75-33.13.7-16.99-8.05-32.42-24.02-42.34-10.6-6.58-23.2-8.1-35.48-4.26-15.84,4.94-29.33,17.89-36.99,35.52-.52,1.19-.99,2.42-1.43,3.69-.72-8.32-1.1-16.71-1.1-25.16,0-9.96.51-19.81,1.49-29.52l166.25-55.99c.1-.03.21-.06.32-.09h0l211.01-71.08c1.2-.4,29.41-10.02,38.97-29.26,2.81-5.64,3.78-11.5,2.92-17.49,6.35-2.63,21.67-10.15,28.37-23.7,2.16-4.37,3.21-8.93,3.22-13.65,1.98,1.34,3.94,2.7,5.88,4.08,7.06,6.29,14.16,17.09,16.98,30.45,10.41,49.29-45.51,72.16-70.21,79.74-27.33,6.92-50.8,21.15-67.89,41.19-5.29,6.2-9.4,12.46-13.38,18.52-12.07,18.38-20.78,31.66-53.09,29.96-6.92-.36-15.6-2.81-24.78-5.39-27.22-7.66-64.51-18.15-97.46,14.81-20.81,20.81-27.35,50.36-17.48,79.04,8.92,25.92,29.77,44.54,53.13,47.42.26.03.51.05.76.05,3.04,0,5.67-2.27,6.06-5.36.41-3.35-1.97-6.4-5.32-6.81-18.75-2.31-35.66-17.73-43.07-39.26-8.31-24.16-2.87-49,14.57-66.43,27.89-27.9,58.51-19.28,85.51-11.69,9.86,2.77,19.18,5.39,27.45,5.83,2.06.11,4.03.16,5.94.16,34.61,0,45.99-17.33,58-35.62,3.77-5.74,7.67-11.68,12.46-17.3,15.46-18.13,36.81-31.03,61.73-37.3l.29-.08c17.82-5.45,31.8-11.96,42.74-19.01,3.81,13.22,11.5,48.55,2.18,94.85-1.65,8.2-.16,16.64,4.2,23.79,21.76,35.67,30.17,52.24,30.75,55.51.02.14-.19.53-.62,1-3.51,3.81-14.48,6.89-23.47,6.6-4-.14-7.37,1.58-9.18,4.68-1.35,2.31-4.83,8.28,7.93,30.34-5.93,2.43-16.14,5.9-28.22,6.98-3.36.3-5.84,3.27-5.54,6.63.28,3.18,2.95,5.56,6.08,5.56.18,0,.37,0,.55-.02,5.3-.48,10.29-1.36,14.8-2.42,1.45,3.99,2.55,7.76,2.85,9.82-1.12.83-2.76,1.97-4.08,2.87-9.58,6.61-15.46,10.95-15.46,16.68,0,2.42,1.05,4.78,2.63,8.35,3.62,8.15,6.79,16.56,2.49,21.85-5.12,5.89-66.75,26.42-170.23-57.59-2.62-2.13-6.47-1.73-8.59.89-2.13,2.62-1.73,6.47.89,8.59,31.68,25.72,79.82,57.93,129.3,65.33,7.01,1.05,13.45,1.5,19.29,1.5,21.43,0,34.82-6.08,38.82-11.01,9.38-11.56,2.76-26.49-.8-34.51-.37-.83-.82-1.84-1.15-2.66,2.11-2.09,7.13-5.55,9.74-7.35,3.95-2.72,6.07-4.21,7.37-5.69,1.48-1.67,4.37-4.97-1.3-20.53,4.18-1.47,7.4-2.88,9.36-3.79,2.22-1.04,3.9-2.98,4.61-5.33.71-2.35.38-4.89-.89-6.99-5.97-9.8-8.71-16.59-9.46-19.95,10.84-.13,24.26-3.63,30.64-10.55,3.67-3.98,4.09-7.99,3.78-10.66-.25-2.21-1.01-8.96-32.46-60.5-2.75-4.51-3.69-9.85-2.65-15.02,11.05-54.92-.26-94.66-3.71-104.88,29.7-24.61,28.51-53.32,25.54-67.37-.41-1.95-.92-3.87-1.49-5.76,58.27,53.15,94.89,129.64,94.89,214.53s-38.39,168.49-105.53,223.93c-10.06-11.69-24.95-19.12-41.55-19.12-30.23,0-54.82,24.59-54.82,54.82s24.59,54.82,54.82,54.82,54.82-24.59,54.82-54.82c0-9.23-2.3-17.93-6.35-25.57,70.49-57.78,110.83-142.77,110.83-234.05h.03ZM228.01,467.35c29.17,14.85,59.49,15.68,62.66,15.72,1.32.1,6.58.44,14.23.44,25.76,0,78.5-3.9,98.21-34.29,5.77-8.89,6.3-19.77,1.4-28.39-2.17-3.81-5.17-6.79-8.68-8.64-6.35-3.34-13.76-3.75-20.33-1.14-6.46,2.56-11.48,7.88-13.78,14.59-1.1,3.19.6,6.67,3.79,7.76,3.19,1.1,6.67-.6,7.76-3.79,1.16-3.38,3.55-5.93,6.74-7.2,3.25-1.29,6.95-1.07,10.14.6,1.46.77,2.72,2.07,3.75,3.87,2.64,4.64,2.24,10.65-1.03,15.7-11.24,17.33-37.79,24.14-58.09,26.8-22.86,3-43.17,1.51-43.38,1.5l-.43-.02c-.29,0-26.63-.35-52.72-12.13,49.78-40.03,112.97-64.03,181.67-64.03,51.91,0,100.67,13.71,142.88,37.67l-409.6,137.93c17.13-39.65,42.85-74.75,74.8-102.94h.01ZM132.72,642.1c1.05-7.06,2.36-14.03,3.91-20.91l97.95-32.99c3.2-1.08,4.92-4.54,3.84-7.74-1.08-3.2-4.54-4.92-7.74-3.84l-90.49,30.48c2.07-7.42,4.42-14.73,7.06-21.91l106.92-36c-3.3,8.11-3.92,17.52-.96,26.29,2.97,8.81,9.17,15.94,16.72,20.41l-137.19,46.2h-.02,0ZM543.8,471.15l-.25.09-113.77,38.22.03.09-139.25,46.91c-3.2,1.08-4.92,4.54-3.84,7.74,1.08,3.2,4.54,4.92,7.74,3.84l244.06-82.21c-.23,19.44-33.43,30.88-33.81,31.01l-211.22,71.14c-9.72,3.13-24.31-3.28-28.72-16.37-4.42-13.13,3.45-27.12,13.18-30.39h0l291.86-98.29c1.06,18.72-24.64,27.78-26.01,28.25v-.03h0ZM563.23,987.3c-23.49,0-42.6-19.11-42.6-42.6s19.11-42.6,42.6-42.6,42.6,19.11,42.6,42.6-19.11,42.6-42.6,42.6Z"/>
    <path class="cls-1" d="M574.61,612.94c.97-3.23-.86-6.64-4.09-7.61-1.04-.31-25.74-7.47-59.09,7.69-6.63,3.02-12.09,4.63-17.18,5.07-1.28.11-2.3.15-3.08.15-1.28,0-1.88-.08-1.85-.08-3.28-.71-6.54,1.38-7.26,4.68-.71,3.3,1.38,6.55,4.68,7.26.48.11,1.92.36,4.44.36,1.15,0,2.52-.05,4.13-.19,6.51-.57,13.24-2.51,21.17-6.12,28.79-13.09,50.15-7.21,50.53-7.1,3.23.96,6.62-.87,7.59-4.09v-.02h.01Z"/>
    <path class="cls-1" d="M559.17,634.81c-2-2.69-5.81-3.25-8.52-1.28-.14.1-14.11,9.95-46.59,9.02-3.39-.11-6.19,2.56-6.28,5.93-.1,3.37,2.56,6.19,5.93,6.28,1.59.05,3.14.07,4.66.07,1.15,0,2.27-.01,3.37-.04,3.23,3.73,12.75,13,33.86,21.97.78.33,1.59.49,2.38.49,2.38,0,4.64-1.4,5.63-3.72,1.32-3.11-.13-6.69-3.24-8.01-10.13-4.3-17.18-8.64-21.9-12.12,5.5-.83,10.15-1.95,14.05-3.13,1.33,2.92,4.26,4.95,7.67,4.95,4.66,0,8.43-3.77,8.43-8.43,0-1.22-.26-2.37-.73-3.42.02-.02.07-.05.08-.06,2.67-2.03,3.18-5.8,1.19-8.49h.01,0Z"/>
    <path class="cls-1" d="M244.24,814.51c-27.31-12.45-50.52-10.02-51.49-9.91-3.35.38-5.75,3.39-5.38,6.74s3.4,5.77,6.73,5.41c.21-.02,21.32-2.13,45.64,9.14,32.58,15.09,55.35,45.87,67.69,91.47.74,2.72,3.2,4.52,5.89,4.52.53,0,1.07-.07,1.6-.21,3.26-.88,5.18-4.24,4.3-7.49-9.22-34.07-29.71-79.02-74.98-99.66h0Z"/>
    <path class="cls-1" d="M366.52,613.96c8.21,1.93,15.98,2.88,23.25,2.88,24.5,0,43.16-10.79,52.71-31.16,1.43-3.05.12-6.69-2.94-8.13-3.05-1.43-6.69-.12-8.12,2.94-13.3,28.35-44.62,25.69-62.11,21.58l-.28-.07c-3.28-.77-6.57,1.27-7.34,4.56s1.27,6.57,4.56,7.34l.27.06h0Z"/>
  </g>
  <g>
    <path class="cls-1" d="M893.34,570.67h21.97c11.17.25,22.65.93,34.44,2.05,11.79,1.12,23.27,3.23,34.44,6.33,11.18,3.11,21.66,7.32,31.46,12.66,9.81,5.34,18.37,12.41,25.7,21.22,7.32,8.82,13.15,19.61,17.5,32.4,4.34,12.78,6.52,27.99,6.52,45.62,0,18.62-2.61,34.63-7.82,48.04-5.21,13.4-12.1,24.76-20.67,34.07-8.57,9.31-18.38,16.82-29.41,22.53-11.05,5.71-22.47,10.12-34.26,13.22-11.79,3.11-23.59,5.16-35.37,6.15-11.79,1-22.53,1.49-32.21,1.49h-29.79v-245.76h17.51ZM907.49,805.26c1.99.25,3.97.37,5.96.37h5.96c12.9,0,26.12-1.36,39.65-4.09,13.52-2.73,25.82-8.19,36.86-16.39,11.05-8.19,20.1-19.85,27.18-35,7.07-15.14,10.61-35,10.61-59.58,0-21.84-3.23-39.9-9.68-54.17-6.46-14.27-14.84-25.5-25.13-33.7-10.31-8.19-21.85-13.9-34.63-17.13-12.78-3.23-25.5-4.84-38.17-4.84-3.23,0-6.33.06-9.31.18-2.98.13-6.08.18-9.31.18v224.16l-.02.02Z"/>
    <path class="cls-1" d="M1174.1,682.01v15.64c-4.97-1.74-8.88-2.85-11.73-3.36-2.86-.5-6.02-.75-9.49-.75-2.74,0-7.02.87-12.85,2.61s-12.1,5.46-18.8,11.17v109.1h-31.65v-135.53h31.65v14.89c5.7-4.46,11.67-8.06,17.88-10.8,6.2-2.73,13.65-4.09,22.34-4.09,4.71,0,8.94.37,12.66,1.12h0Z"/>
    <path class="cls-1" d="M1165.91,798.93c0-4.71,1.67-8.75,5.03-12.1s7.39-5.03,12.1-5.03c4.96,0,9.18,1.67,12.66,5.03,3.48,3.36,5.21,7.39,5.21,12.1s-1.74,8.75-5.21,12.1-7.7,5.03-12.66,5.03-8.75-1.67-12.1-5.03c-3.36-3.36-5.03-7.39-5.03-12.1Z"/>
    <path class="cls-1" d="M1263.09,816.44h-17.13l94.58-246.13,97.93,246.13h-32.4l-30.53-76.71h-83.03l-29.41,76.71h0ZM1372.19,730.79l-37.98-101.66-37.98,101.66h75.96Z"/>
    <path class="cls-1" d="M1502.51,689.83c2.98-1.74,6.08-3.23,9.31-4.46,7.2-2.98,17-4.46,29.41-4.46,8.69,0,16.81,1.8,24.39,5.4,7.57,3.6,14.21,8.44,19.92,14.52,5.7,6.08,10.24,13.22,13.59,21.41,3.36,8.19,5.03,17.01,5.03,26.44s-1.74,18.68-5.21,27-8.13,15.52-13.97,21.6c-5.83,6.08-12.66,10.86-20.48,14.34-7.82,3.48-16.07,5.08-24.76,4.84-15.89.24-28.3-2.11-37.23-7.07v75.59h-31.65v-204.05h31.65v8.94-.02ZM1572.51,748.29c0-7.94-1.18-15.33-3.54-22.16-2.37-6.82-5.58-12.85-9.68-18.06s-9-9.31-14.71-12.28c-5.71-2.98-12.04-4.46-18.99-4.46-6.46,0-12.79,1.37-18.99,4.09l-4.09,1.86v100.54c1.24.75,2.36,1.37,3.36,1.86,5.96,2.98,12.53,4.46,19.73,4.46s13.27-1.49,18.99-4.46c5.7-2.98,10.61-7.01,14.71-12.1,4.09-5.08,7.32-10.98,9.68-17.68,2.36-6.7,3.54-13.9,3.54-21.6h0Z"/>
    <path class="cls-1" d="M1765.77,816.44h-31.65v-79.32c0-3.73-.25-8.25-.75-13.59-.5-5.33-1.86-10.48-4.09-15.45-2.24-4.96-5.53-9.18-9.86-12.66-4.34-3.48-10.24-5.21-17.69-5.21-5.46,0-10.98,1.06-16.57,3.16-5.58,2.12-12.6,6.89-21.04,14.34v108.73h-31.65v-245.76h31.65v125.86c9.43-5.96,17.93-10.06,25.5-12.28,7.57-2.24,15.94-3.35,25.13-3.35,15.64,0,28.05,4.71,37.23,14.15,9.18,9.44,13.78,21.6,13.78,36.49v84.9h0Z"/>
    <path class="cls-1" d="M1888.27,682.01v15.64c-4.97-1.74-8.88-2.85-11.73-3.36-2.86-.5-6.02-.75-9.49-.75-2.74,0-7.02.87-12.85,2.61s-12.1,5.46-18.8,11.17v109.1h-31.65v-135.53h31.65v14.89c5.7-4.46,11.67-8.06,17.88-10.8,6.2-2.73,13.65-4.09,22.34-4.09,4.71,0,8.94.37,12.66,1.12h0Z"/>
    <path class="cls-1" d="M1969.44,680.89c12.41,0,23.33,1.92,32.77,5.77,9.43,3.85,17.25,8.94,23.46,15.27,6.2,6.33,10.86,13.53,13.97,21.59,3.11,8.07,4.66,16.44,4.66,25.13s-1.55,17.13-4.66,25.32-7.76,15.45-13.97,21.79c-6.21,6.33-14.03,11.36-23.46,15.08-9.44,3.73-20.48,5.58-33.14,5.58s-23.64-1.86-32.95-5.58-17.01-8.75-23.09-15.08c-6.08-6.33-10.68-13.59-13.78-21.79-3.11-8.19-4.66-16.63-4.66-25.32s1.54-17.06,4.66-25.13c3.11-8.06,7.76-15.27,13.97-21.59,6.2-6.33,13.97-11.42,23.27-15.27,9.31-3.85,20.3-5.77,32.95-5.77ZM1969.81,808.62c5.96,0,11.48-1.54,16.57-4.66,5.08-3.11,9.61-7.27,13.59-12.48,3.97-5.21,7.07-11.42,9.31-18.62,2.24-7.2,3.36-14.89,3.36-23.09s-1.12-15.88-3.36-23.09c-2.24-7.2-5.34-13.47-9.31-18.8-3.97-5.33-8.5-9.56-13.59-12.66-5.09-3.1-10.61-4.66-16.57-4.66s-11.61,1.55-16.94,4.66c-5.34,3.11-9.99,7.32-13.97,12.66-3.97,5.34-7.07,11.61-9.31,18.8-2.24,7.2-3.36,14.89-3.36,23.09s1.12,15.89,3.36,23.09,5.33,13.4,9.31,18.62c3.97,5.21,8.62,9.37,13.97,12.48,5.33,3.11,10.98,4.66,16.94,4.66Z"/>
    <path class="cls-1" d="M2170.89,807.5c-2.98,1.74-6.08,3.23-9.31,4.46-7.2,2.98-17.01,4.46-29.42,4.46-8.69,0-16.82-1.8-24.39-5.4-7.58-3.6-14.22-8.44-19.92-14.52-5.71-6.08-10.24-13.22-13.59-21.41-3.36-8.19-5.03-17-5.03-26.44s1.74-18.68,5.21-27,8.12-15.51,13.97-21.6c5.83-6.08,12.66-10.86,20.48-14.34,7.82-3.48,16.07-5.08,24.76-4.84,15.88-.24,28.3,2.11,37.24,7.07v-117.3h31.65v245.76h-31.65v-8.94.02ZM2100.88,749.03c0,7.95,1.17,15.33,3.54,22.16,2.36,6.83,5.58,12.85,9.68,18.06,4.09,5.21,8.99,9.31,14.71,12.28,5.7,2.98,12.03,4.46,18.99,4.46,6.45,0,12.78-1.36,18.99-4.09l4.09-1.86v-100.54c-1.25-.75-2.37-1.36-3.36-1.86-5.96-2.98-12.53-4.46-19.73-4.46s-13.28,1.49-18.99,4.46c-5.71,2.98-10.61,7.02-14.71,12.1-4.09,5.09-7.32,10.98-9.68,17.69-2.37,6.7-3.54,13.9-3.54,21.59h0Z"/>
    <path class="cls-1" d="M2237.54,644.78c0-4.71,1.67-8.75,5.03-12.1,3.35-3.36,7.39-5.03,12.1-5.03,4.96,0,9.18,1.67,12.66,5.03,3.48,3.35,5.21,7.39,5.21,12.1s-1.74,8.75-5.21,12.1c-3.48,3.35-7.7,5.03-12.66,5.03s-8.75-1.67-12.1-5.03-5.03-7.39-5.03-12.1ZM2239.4,816.44v-135.53h31.65v135.53h-31.65Z"/>
    <path class="cls-1" d="M2296.75,689.83v-8.94h17.13v-25.32l31.28-15.27v40.59h27.92v8.94h-27.55v71.87c0,12.66.5,21.17,1.49,25.5.99,4.34,3.48,8.62,7.45,12.85,3.97,4.22,8.94,6.58,14.89,7.07v9.31c-12.16,0-24.46-3.73-36.86-11.17-12.41-7.45-18.62-20.1-18.62-37.98v-77.45h-17.13,0Z"/>
    <path class="cls-1" d="M2473.61,806.01c6.45,0,12.78-1.54,18.99-4.66,6.2-3.1,10.67-6.15,13.4-9.12v7.07c-5.71,5.46-12.1,9.68-19.18,12.66s-14.84,4.46-23.27,4.46c-13.4,0-23.89-1.8-31.46-5.4-7.58-3.6-14.15-8.5-19.73-14.71-5.58-6.2-10.06-13.46-13.4-21.79-3.35-8.31-5.03-17.18-5.03-26.62s1.67-17.88,5.03-26.07c3.36-8.19,7.82-15.33,13.4-21.41,5.58-6.08,12.72-10.86,21.41-14.34s18-5.21,27.92-5.21c8.69,0,16.81,1.55,24.39,4.66,7.57,3.11,14.15,7.07,19.73,11.91,5.58,4.84,10.3,11.23,14.15,19.18,3.85,7.95,5.9,15.64,6.15,23.09h-100.54c-.75,10.68.06,20.48,2.42,29.41,2.36,8.94,5.96,16.01,10.8,21.22s10.18,9.12,16.01,11.73c5.83,2.61,12.1,3.91,18.8,3.91h.02ZM2497.82,730.79c-.25-6.2-1.43-11.79-3.54-16.76-2.12-4.96-4.84-9.06-8.19-12.28-3.36-3.23-7.2-5.7-11.54-7.45-4.34-1.74-8.75-2.61-13.22-2.61-3.48,0-7.27.87-11.36,2.61-4.09,1.74-7.95,4.46-11.54,8.19-3.6,3.73-6.65,8.69-9.12,14.89-1.49,3.97-2.49,8.44-2.98,13.4h71.5Z"/>
  </g>
</svg>