<svg width="12" height="14" viewBox="0 0 12 14" fill="none" xmlns="http://www.w3.org/2000/svg">
<g clip-path="url(#clip0_791_12048)">
<path d="M4.38087 11.0275V12.0505C4.65866 12.0505 4.92882 12.0446 5.1986 12.0537C5.2898 12.0568 5.38901 12.0802 5.468 12.1258C5.59125 12.1971 5.63513 12.3564 5.5985 12.503C5.56339 12.6436 5.44701 12.7518 5.29934 12.7566C5.04711 12.7645 4.79489 12.7609 4.54266 12.7617C4.49153 12.7617 4.44002 12.7617 4.37209 12.7617C4.37209 13.0684 4.37515 13.3584 4.37095 13.6484C4.36828 13.8212 4.26029 13.9531 4.10651 13.9912C3.96266 14.0264 3.79819 13.9535 3.73485 13.8105C3.70433 13.7416 3.69097 13.6591 3.68944 13.5823C3.6841 13.316 3.68754 13.0494 3.68754 12.7621C3.46088 12.7621 3.24337 12.7621 3.02625 12.7621C2.94078 12.7621 2.85454 12.7649 2.76945 12.7585C2.59392 12.7459 2.46571 12.6115 2.45502 12.4356C2.44358 12.249 2.55233 12.0866 2.73244 12.0652C2.91102 12.0438 3.09341 12.0529 3.2739 12.0505C3.40631 12.0489 3.53834 12.0505 3.67914 12.0505V11.0477C3.30633 10.9431 2.93086 10.8702 2.57828 10.7331C0.896261 10.0789 -0.166446 8.27612 0.0212927 6.42696C0.210176 4.56553 1.43048 3.14587 3.18614 2.74767C3.31587 2.71835 3.44867 2.68626 3.57993 2.68547C3.73104 2.68467 3.81498 2.60741 3.90542 2.49488C5.29323 0.76737 7.76283 0.495168 9.47461 1.87639C9.51544 1.90927 9.55703 1.94216 9.58756 1.96633C9.98975 1.54554 10.3862 1.1311 10.7853 0.713484C10.4686 0.713484 10.1424 0.713484 9.81613 0.713484C9.74477 0.713484 9.67304 0.716654 9.60206 0.711899C9.4086 0.699617 9.27008 0.549054 9.27047 0.356491C9.27123 0.163929 9.41051 0.00979956 9.60435 0.00425249C9.84704 -0.00248323 10.0897 0.00187518 10.3328 0.00187518C10.7563 0.00187518 11.1803 0.00108274 11.6038 0.00187518C11.866 0.00266762 11.9988 0.140156 11.9992 0.412754C12.0003 1.08514 12.0003 1.75713 11.9992 2.42951C11.9992 2.67556 11.8633 2.83722 11.6607 2.8392C11.4585 2.84118 11.3161 2.67754 11.3146 2.43506C11.3127 2.04518 11.3142 1.6553 11.3142 1.29513C10.9281 1.69492 10.5312 2.1058 10.1458 2.50439C10.3206 2.81741 10.5404 3.1435 10.6961 3.4997C11.7878 5.99706 10.2324 8.94493 7.61974 9.34947C5.40618 9.6922 3.32732 8.08435 2.99229 5.77399C2.90338 5.16183 2.95299 4.56275 3.11974 3.97159C3.18957 3.72396 3.36319 3.60549 3.56123 3.66809C3.76576 3.73267 3.84933 3.9181 3.77644 4.16931C3.19644 6.17536 4.46177 8.07365 6.07891 8.54871C6.28802 8.61013 6.50819 8.62875 6.72188 8.67471C6.8188 8.69531 6.86726 8.65728 6.9142 8.57328C7.24961 7.97063 7.39842 7.32162 7.36561 6.62824C7.2973 5.19076 6.37387 3.95337 5.05322 3.52466C3.06441 2.87882 1.04889 4.17446 0.721115 6.30968C0.390283 8.46472 2.10893 10.4327 4.20458 10.3024C4.83839 10.2632 5.41305 10.0551 5.93467 9.68269C5.95413 9.66883 5.97321 9.65377 5.99306 9.6403C6.17202 9.52024 6.37387 9.55273 6.48492 9.71954C6.59596 9.88675 6.56543 10.1098 6.37922 10.2219C6.05144 10.4189 5.72061 10.619 5.36955 10.7624C5.05932 10.8892 4.72048 10.9403 4.38087 11.0283V11.0275ZM7.69529 8.59468C8.81257 8.52692 10.0634 7.20197 10.3068 5.83699C10.5919 4.23944 9.78331 2.65416 8.34017 1.99684C6.99356 1.38309 5.48097 1.79595 4.66935 2.70092C5.96902 2.9442 6.96495 3.63916 7.58158 4.85516C8.19784 6.07036 8.2131 7.32202 7.69529 8.59468Z" fill="black"/>
</g>
<defs>
<clipPath id="clip0_791_12048">
<rect width="12" height="14" fill="white"/>
</clipPath>
</defs>
</svg>
