<svg width="17" height="17" viewBox="0 0 17 17" fill="none" xmlns="http://www.w3.org/2000/svg">
<path d="M8.49888 0C13.232 0.0382295 17.0753 3.87169 16.9989 8.64272C16.9253 13.2637 13.1737 17.0398 8.41382 16.9997C3.67301 16.9586 -0.134925 13.0898 0.00366673 8.248C0.134612 3.65569 3.85653 0.0458753 8.49888 0ZM11.6578 8.02341C11.6406 7.76727 11.6349 7.52069 11.6062 7.27698C11.5288 6.63377 11.4409 5.99247 11.3587 5.35021C11.3481 5.26897 11.308 5.24699 11.2296 5.25368C11.0509 5.26802 10.8722 5.27471 10.6934 5.28522C9.21765 5.37411 7.74188 5.36742 6.26612 5.28522C6.06444 5.27375 5.86277 5.2642 5.65536 5.25368C5.45941 6.1731 5.37913 7.09252 5.33994 8.02341H11.6578ZM11.3319 11.7556C11.5173 10.8323 11.6139 9.91481 11.6521 8.99061H5.34376C5.34376 9.04796 5.3409 9.09957 5.34376 9.15022C5.39824 9.95973 5.46324 10.7692 5.61521 11.5682C5.6544 11.7718 5.65631 11.7642 5.8924 11.7527C6.59969 11.7183 7.30795 11.6676 8.0162 11.6657C8.93951 11.6638 9.86282 11.7039 10.7861 11.7278C10.9649 11.7326 11.1436 11.746 11.3319 11.7556ZM11.113 12.7237C10.6714 12.588 6.39897 12.5937 5.9182 12.7209C5.91725 12.7314 5.91342 12.7428 5.91438 12.7543C5.91725 12.7734 5.92107 12.7935 5.92681 12.8126C6.16002 13.6202 6.5022 14.3771 6.98297 15.0691C7.23339 15.4285 7.54594 15.7161 7.93496 15.9197C8.16435 16.0392 8.40712 16.0803 8.66328 16.0411C9.09626 15.9761 9.41837 15.7276 9.70989 15.4227C10.1993 14.9104 10.5252 14.3007 10.7708 13.6431C10.8846 13.3392 10.9974 13.0343 11.113 12.7237ZM11.0834 4.30655C11.0786 4.26163 11.0796 4.23678 11.0729 4.2148C10.833 3.39764 10.4851 2.63019 10.0014 1.92676C9.76246 1.57983 9.45565 1.30745 9.08862 1.10292C8.82768 0.957648 8.54858 0.91464 8.25898 0.975807C7.88812 1.05418 7.58991 1.26348 7.33375 1.53396C6.61594 2.29377 6.22119 3.22561 5.91534 4.20428C5.88762 4.29126 5.91916 4.31802 6.00327 4.32088C6.2298 4.32757 6.45632 4.33809 6.68285 4.3486C7.90437 4.40594 9.12494 4.40212 10.3465 4.34669C10.5883 4.33618 10.8291 4.31993 11.0843 4.30559L11.0834 4.30655ZM16.0478 8.02245C16.0326 7.89056 16.0154 7.773 16.0048 7.65449C15.9169 6.67677 15.5805 5.77647 15.1456 4.90771C15.1131 4.84272 15.0758 4.83029 15.0041 4.83889C14.271 4.93447 13.5379 5.02622 12.8038 5.11797C12.6356 5.13899 12.4674 5.15237 12.281 5.17053C12.4789 6.11958 12.5668 7.06671 12.606 8.02245H16.0478ZM4.34781 8.99348H0.949916C0.955651 9.03935 0.961386 9.07472 0.964253 9.11008C1.03785 10.1614 1.3418 11.1439 1.83595 12.071C1.88087 12.1551 1.92293 12.1761 2.01851 12.1617C2.62831 12.0748 3.23907 11.9935 3.84984 11.918C4.12893 11.8836 4.40994 11.8664 4.67756 11.8425C4.56765 10.8906 4.45773 9.9473 4.34781 8.99348ZM4.38796 8.02054C4.42141 7.0562 4.51508 6.11002 4.70624 5.17053C4.5839 5.15715 4.48545 5.1476 4.387 5.13613C3.58986 5.03864 2.79271 4.94307 1.99653 4.83889C1.91528 4.82838 1.88278 4.84941 1.84933 4.9144C1.5817 5.43527 1.34084 5.96571 1.1946 6.53533C1.07035 7.02084 0.984325 7.51209 0.957563 8.01958H4.387L4.38796 8.02054ZM12.606 8.98966C12.5639 9.95208 12.4722 10.8983 12.2839 11.8416C12.3326 11.8454 12.3556 11.8473 12.3785 11.8502C12.7627 11.8865 13.1479 11.9161 13.5303 11.962C14.0158 12.0213 14.4994 12.092 14.9831 12.1637C15.0691 12.1761 15.1159 12.1551 15.1484 12.0757C15.331 11.6361 15.5365 11.2051 15.6961 10.7568C15.8978 10.1901 15.9867 9.59655 16.0383 8.98966H12.606ZM14.5033 3.96248C14.1573 3.13099 11.4628 1.24532 10.7173 1.30936C10.7517 1.3581 10.7852 1.40207 10.8138 1.4489C10.9993 1.74995 11.1981 2.04336 11.3644 2.35398C11.6645 2.91308 11.8442 3.51998 12.0277 4.12496C12.0574 4.2234 12.0965 4.24538 12.195 4.23391C12.7866 4.16319 13.3802 4.10011 13.9728 4.03225C14.1487 4.01218 14.3236 3.98542 14.5033 3.96248ZM10.7307 15.697C10.7383 15.7066 10.7469 15.7161 10.7546 15.7247C12.2686 15.2086 13.5369 14.3437 14.5405 13.0439C14.2873 13.0133 14.0636 12.9856 13.8409 12.9607C13.2798 12.8986 12.7188 12.8403 12.1587 12.7753C12.0765 12.7658 12.0516 12.7925 12.0306 12.869C11.7649 13.8534 11.3892 14.7891 10.7747 15.6148C10.7565 15.6387 10.745 15.6693 10.7307 15.697ZM6.24318 15.7266C6.25178 15.719 6.26038 15.7104 6.26898 15.7027C6.24318 15.6607 6.21928 15.6186 6.19252 15.5775C6.06253 15.3826 5.91916 15.1953 5.80351 14.9917C5.42309 14.3255 5.15929 13.6116 4.96335 12.8719C4.94232 12.7916 4.91365 12.7629 4.82476 12.7725C4.2637 12.8355 3.70169 12.891 3.14063 12.9531C2.92175 12.977 2.70287 13.0124 2.45531 13.0458C3.46751 14.3341 4.72249 15.2191 6.24318 15.7266ZM6.26898 1.31031C6.26134 1.30076 6.25273 1.29216 6.24509 1.2826C4.72249 1.78914 3.46465 2.67128 2.4534 3.95293C2.52795 3.96822 2.57766 3.9816 2.62736 3.98733C3.3509 4.06761 4.07445 4.14407 4.798 4.22818C4.90314 4.2406 4.93946 4.21575 4.96622 4.11158C5.16598 3.32023 5.47089 2.57189 5.90387 1.87898C6.02334 1.68783 6.1476 1.50051 6.26994 1.31127L6.26898 1.31031Z" fill="black"/>
</svg>
