<svg width="44" height="44" viewBox="0 0 44 44" fill="none" xmlns="http://www.w3.org/2000/svg">
<path d="M44 20.6845V23.437C43.9568 23.8766 43.9262 24.3179 43.8683 24.7556C43.1939 29.8553 41.0327 34.2235 37.3431 37.8057C33.9047 41.1439 29.7885 43.1373 25.0383 43.8039C24.4397 43.8879 23.836 43.9354 23.2347 43.9999H20.7655C20.7225 43.9883 20.68 43.9725 20.6363 43.9657C19.3195 43.7614 17.9801 43.6512 16.6894 43.3393C7.59071 41.1412 0.797222 33.0853 0.112328 23.746C0.0869273 23.3992 0.0379485 23.0543 0 22.7084C0 22.2766 0 21.8449 0 21.4131C0.0239834 21.2612 0.0628427 21.11 0.069724 20.9574C0.134591 19.5118 0.347912 18.0883 0.693395 16.684C2.91252 7.66266 10.756 0.935759 20.0136 0.113542C20.4397 0.0756946 20.8656 0.0378473 21.2916 0C21.7908 0 22.2901 0 22.7893 0C23.0406 0.0239834 23.2915 0.0533303 23.5432 0.071242C28.0253 0.389706 32.0604 1.90592 35.5823 4.69165C40.1708 8.32094 42.9147 13.0508 43.8032 18.8416C43.8968 19.4516 43.9357 20.0699 44 20.6844V20.6845ZM22.0505 15.9838C19.5956 15.9838 17.1407 15.9834 14.6857 15.9848C14.5513 15.9848 14.414 15.9843 14.283 16.0094C13.4648 16.1658 12.923 16.8872 12.997 17.7118C13.0708 18.5356 13.7611 19.1297 14.6556 19.1299C19.579 19.1312 24.5023 19.1309 29.4257 19.1285C29.5795 19.1285 29.7375 19.1161 29.8864 19.08C30.6679 18.8906 31.1747 18.1585 31.0815 17.368C30.9887 16.581 30.3268 15.9869 29.5164 15.9855C27.0278 15.9812 24.5391 15.9839 22.0505 15.9838ZM22.0357 28.0497C24.5043 28.0497 26.9729 28.0505 29.4414 28.0493C30.3843 28.0489 31.0888 27.3736 31.089 26.4753C31.0892 25.5783 30.3829 24.9002 29.4409 24.9C24.5106 24.899 19.5802 24.899 14.6498 24.902C14.4832 24.9021 14.3111 24.9194 14.1506 24.9624C13.3913 25.166 12.905 25.8944 13 26.6678C13.0967 27.454 13.7607 28.0468 14.5694 28.0481C17.0582 28.0522 19.547 28.0496 22.0357 28.0497Z" fill="#7CC588"/>
</svg>
