<svg width="13" height="14" viewBox="0 0 13 14" fill="none" xmlns="http://www.w3.org/2000/svg">
<g id="Home">
<path id="Vector (Stroke)" fill-rule="evenodd" clip-rule="evenodd" d="M6.03267 1.72847C6.31455 1.53517 6.68545 1.53517 6.96733 1.72847L6.97054 1.73067L11.5781 4.98855C11.7873 5.14142 11.9167 5.38989 11.9167 5.65141V11.5772C11.9167 12.0247 11.5517 12.3897 11.1042 12.3897H8.39583C7.94834 12.3897 7.58333 12.0247 7.58333 11.5772V8.87433C7.58333 8.72599 7.46084 8.6035 7.3125 8.6035H5.6875C5.53916 8.6035 5.41667 8.72599 5.41667 8.87433V11.5827C5.41667 12.0302 5.05166 12.3952 4.60417 12.3952H1.89583C1.44834 12.3952 1.08333 12.0302 1.08333 11.5827V5.65141C1.08333 5.38303 1.21388 5.14057 1.42187 4.98858L1.42529 4.98608L6.03267 1.72847ZM6.34034 2.17428L1.74003 5.42697C1.66723 5.48083 1.625 5.56288 1.625 5.65141V11.5827C1.625 11.731 1.74749 11.8535 1.89583 11.8535H4.60417C4.75251 11.8535 4.875 11.731 4.875 11.5827V8.87433C4.875 8.42684 5.24001 8.06183 5.6875 8.06183H7.3125C7.75999 8.06183 8.125 8.42684 8.125 8.87433V11.5772C8.125 11.7256 8.24749 11.8481 8.39583 11.8481H11.1042C11.2525 11.8481 11.375 11.7256 11.375 11.5772V5.65141C11.375 5.56682 11.3316 5.48002 11.26 5.42696L6.65966 2.17428C6.563 2.10879 6.437 2.10879 6.34034 2.17428Z" fill="black" stroke="black" stroke-width="0.4" stroke-miterlimit="10"/>
</g>
</svg>
