<svg width="110" height="110" viewBox="0 0 110 110" fill="none" xmlns="http://www.w3.org/2000/svg">
<path opacity="0.3" d="M110 55C110 85.3757 85.3757 110 55 110C24.6243 110 0 85.3757 0 55C0 24.6243 24.6243 0 55 0C85.3757 0 110 24.6243 110 55ZM17.1499 55C17.1499 75.904 34.096 92.8501 55 92.8501C75.904 92.8501 92.8501 75.904 92.8501 55C92.8501 34.096 75.904 17.1499 55 17.1499C34.096 17.1499 17.1499 34.096 17.1499 55Z" fill="#99CA99"/>
<path d="M55 8.57497C55 3.83914 51.1377 -0.0684433 46.4593 0.666939C35.0358 2.46255 24.3885 7.8297 16.1091 16.1091C7.82971 24.3885 2.46254 35.0358 0.666936 46.4593C-0.0684399 51.1377 3.83914 55 8.57497 55C13.3108 55 17.0532 51.1127 18.1171 46.4979C19.6987 39.6372 23.1775 33.2944 28.236 28.236C33.2944 23.1775 39.6372 19.6987 46.4979 18.1171C51.1127 17.0532 55 13.3108 55 8.57497Z" fill="#7CC588"/>
</svg>
