<svg width="16" height="16" viewBox="0 0 16 16" fill="none" xmlns="http://www.w3.org/2000/svg">
<path fill-rule="evenodd" clip-rule="evenodd" d="M7.99996 1.99992C5.43911 1.99992 3.33329 4.18859 3.33329 6.91325C3.33329 8.49116 4.13308 10.0038 5.11437 11.2606C6.09051 12.5109 7.21498 13.4682 7.79892 13.9309C7.91814 14.0229 8.08178 14.0229 8.201 13.9309C8.78473 13.4684 9.90927 12.5094 10.8855 11.2582C11.8669 10.0003 12.6666 8.48776 12.6666 6.91325C12.6666 4.18859 10.5608 1.99992 7.99996 1.99992ZM2.66663 6.91325C2.66663 3.85125 5.04081 1.33325 7.99996 1.33325C10.9591 1.33325 13.3333 3.85125 13.3333 6.91325C13.3333 8.70542 12.4297 10.3628 11.4111 11.6683C10.3881 12.9795 9.21692 13.9766 8.6136 14.4545L8.61128 14.4564L8.61127 14.4564C8.2509 14.7367 7.74902 14.7367 7.38865 14.4564L7.38632 14.4545C6.7832 13.9768 5.61198 12.9813 4.58889 11.6709C3.57018 10.3661 2.66663 8.70868 2.66663 6.91325Z" fill="black" stroke="black" stroke-width="0.4" stroke-linecap="round" stroke-linejoin="round"/>
<path fill-rule="evenodd" clip-rule="evenodd" d="M8.00004 4.66667C6.89547 4.66667 6.00004 5.5621 6.00004 6.66667C6.00004 7.77124 6.89547 8.66667 8.00004 8.66667C9.10461 8.66667 10 7.77124 10 6.66667C10 5.5621 9.10461 4.66667 8.00004 4.66667ZM5.33337 6.66667C5.33337 5.19391 6.52728 4 8.00004 4C9.4728 4 10.6667 5.19391 10.6667 6.66667C10.6667 8.13943 9.4728 9.33333 8.00004 9.33333C6.52728 9.33333 5.33337 8.13943 5.33337 6.66667Z" fill="black" stroke="black" stroke-width="0.4" stroke-linecap="round" stroke-linejoin="round"/>
</svg>
