<svg width="302" height="96" viewBox="0 0 302 96" fill="none" xmlns="http://www.w3.org/2000/svg">
<g clip-path="url(#clip0_2_269)">
<path d="M65.7106 94.7779C65.6318 94.7401 65.5567 94.6851 65.4738 94.6667C64.3298 94.4117 63.3257 93.8493 62.4228 93.1255C61.9149 92.7181 61.4691 92.2216 61.0571 91.6973C60.6903 91.2305 60.3833 90.7364 60.1293 90.2049C59.7707 89.4541 59.5342 88.6586 59.3866 87.8406C59.3087 87.4082 59.2914 86.9634 59.2636 86.5233C59.2485 86.2851 59.2647 86.0495 59.3338 85.8108C59.4257 85.4949 59.3879 85.1573 59.4544 84.8269C59.55 84.3518 59.7056 83.9014 59.8655 83.4529C60.3204 82.177 61.097 81.1108 62.0757 80.2075C62.7919 79.5465 63.6295 79.0583 64.5239 78.674C65.1636 78.3992 65.8442 78.2861 66.5134 78.1275C66.6351 78.0986 66.7674 78.1125 66.8948 78.1119C67.2592 78.1102 67.6238 78.1216 67.988 78.1094C68.8958 78.0791 69.741 78.3417 70.5844 78.6415C71.3328 78.9074 71.9842 79.342 72.6236 79.7977C72.8448 79.9552 73.0285 80.1678 73.2248 80.3601C73.4336 80.5648 73.6373 80.7755 73.8385 80.9789C73.9166 80.958 73.9798 80.9597 74.0162 80.9286C74.3215 80.6677 74.6274 80.4067 74.9229 80.1344C75.4204 79.6754 75.9171 79.2153 76.4015 78.7421C76.8744 78.2803 77.3577 77.8249 77.788 77.3236C78.2648 76.7685 78.7932 76.2603 79.23 75.6681C79.4471 75.3739 79.7259 75.1346 79.9421 74.8318C80.3672 74.236 80.8513 73.684 81.2851 73.0943C81.7086 72.5192 82.1184 71.9315 82.5013 71.328C83.0027 70.5375 83.4677 69.7231 83.9559 68.9239C84.5327 67.9803 85.0338 66.995 85.499 65.992C86.0176 64.8736 86.5326 63.753 86.9317 62.5815C87.1515 61.9366 87.4175 61.3078 87.6299 60.6604C88.0717 59.3136 88.4421 57.9446 88.7545 56.5617C88.9729 55.595 89.137 54.6156 89.3086 53.6386C89.3753 53.2594 89.3904 52.8712 89.4398 52.4883C89.5011 52.0154 89.5754 51.5441 89.6408 51.0718C89.6533 50.9806 89.6528 50.8873 89.6542 50.7947C89.6593 50.4816 89.6383 50.1693 89.7422 49.8614C89.7873 49.7275 89.7586 49.568 89.764 49.4202C89.7862 48.8314 89.6965 48.2365 89.8657 47.6555C89.8906 47.5699 89.8726 47.4713 89.8728 47.3787C89.8731 46.8416 89.8794 46.3045 89.8696 45.7677C89.866 45.5671 89.8228 45.3673 89.8004 45.1667C89.7859 45.0386 89.7687 44.9103 89.766 44.7816C89.7605 44.5224 89.7785 44.2623 89.7613 44.0042C89.711 43.2528 89.6908 42.4982 89.5609 41.754C89.5546 41.7176 89.5519 41.6807 89.5489 41.6437C89.4418 40.2672 89.1654 38.9191 88.9202 37.5634C88.5216 35.3591 87.8401 33.2413 87.1242 31.1326C86.876 30.4013 86.5575 29.6939 86.2552 28.9825C85.9463 28.2557 85.6385 27.5268 85.2916 26.818C84.9367 26.0928 84.545 25.3854 84.1514 24.6804C83.802 24.0547 83.4376 23.4373 83.0623 22.8277C82.764 22.3434 82.4232 21.8863 82.1301 21.3992C81.7602 20.784 81.3149 20.2264 80.8953 19.6493C80.5725 19.2052 80.2245 18.7798 79.8842 18.3492C79.578 17.9615 79.2669 17.5781 78.958 17.193C78.9465 17.1785 78.9345 17.1646 78.9217 17.1516C77.9777 16.1766 77.1103 15.1265 76.1224 14.1943C76.0691 14.144 76.0185 14.0818 75.9546 14.0554C75.8942 14.0304 75.802 14.0187 75.7531 14.0493C75.7053 14.079 75.664 14.1746 75.6727 14.2329C75.711 14.4869 75.7717 14.7373 75.8179 14.9901C75.8441 15.1343 75.8701 15.2802 75.8758 15.4261C75.8879 15.7389 75.8758 16.0482 75.9614 16.36C76.012 16.545 75.9609 16.7609 75.9442 16.9621C75.9321 17.108 75.8756 17.2536 75.8832 17.3969C75.9125 17.9404 75.7873 18.4586 75.6621 18.9777C75.3239 20.3784 74.711 21.6407 73.8524 22.7907C73.3975 23.4001 72.8524 23.9161 72.3147 24.4382C71.9812 24.7619 71.8987 25.0578 72.0408 25.5143C72.2699 26.2492 72.432 27.0081 72.5884 27.7638C72.722 28.4102 72.8273 29.0642 72.9096 29.7194C72.9782 30.2662 72.9995 30.8195 73.0334 31.3705C73.0482 31.6094 73.0296 31.847 73.1108 32.0832C73.157 32.2174 73.1428 32.3755 73.143 32.5227C73.1455 33.356 73.1444 34.1893 73.1441 35.0226C73.1441 35.1338 73.1671 35.2538 73.134 35.3541C72.9976 35.7695 73.0495 36.1963 73.0323 36.6192C73.0249 36.8015 72.9864 36.9827 72.9612 37.1644C72.9511 37.2375 72.9328 37.3097 72.929 37.3828C72.8888 38.1919 72.7631 38.9885 72.6239 39.7857C72.5512 40.2019 72.4525 40.6162 72.4025 41.033C72.3038 41.8541 72.4052 42.639 72.871 43.367C73.3951 44.1861 73.8601 45.0445 74.348 45.8875C74.9647 46.9531 75.6161 48 76.1826 49.0926C76.7071 50.1048 77.2801 51.0993 77.6338 52.196C77.6787 52.3349 77.7161 52.4794 77.7333 52.6245C77.8063 53.2396 77.5488 53.7328 77.1727 54.1866C76.6987 54.7581 76.0738 55.0874 75.3988 55.3238C74.9196 55.492 74.4243 55.6128 73.9347 55.749C73.8486 55.7729 73.7537 55.7807 73.6643 55.7745C73.3128 55.7504 72.9913 55.8854 72.6327 55.9415C72.6327 56.0641 72.6018 56.1819 72.6376 56.2727C72.9142 56.9766 73.2105 57.6715 73.6105 58.3153C73.7171 58.487 73.7966 58.6787 73.9188 58.8368C74.1692 59.1611 74.1681 59.529 74.1036 59.8952C74.0328 60.2961 73.8037 60.6093 73.438 60.7888C73.0457 60.9813 72.6417 61.1497 72.2431 61.3292C72.1945 61.3512 72.1477 61.377 72.0676 61.4176C72.0807 61.5354 72.0816 61.6604 72.1103 61.7788C72.1975 62.1364 72.2817 62.4957 72.3937 62.8455C72.4804 63.1161 72.4897 63.3876 72.4905 63.6655C72.4919 64.1903 72.2636 64.5843 71.8484 64.8805C71.2248 65.3254 70.6032 65.7727 69.9808 66.219C69.9214 66.2615 69.8572 66.2979 69.8034 66.3468C69.6872 66.4518 69.6205 66.5752 69.685 66.74C69.7454 66.8942 69.7864 67.0581 69.8608 67.2046C70.1377 67.7508 70.3107 68.3385 70.4638 68.9242C70.5781 69.3624 70.68 69.8234 70.6281 70.2891C70.5242 71.2163 70.2383 72.0749 69.4748 72.6495C69.0866 72.9415 68.6213 73.1452 68.1665 73.3241C67.5757 73.5564 66.9576 73.6976 66.3264 73.8001C65.982 73.8559 65.6318 73.8262 65.3019 73.9026C64.6868 74.0449 64.0704 73.9843 63.4548 73.9949C63.2402 73.9985 63.025 73.9382 62.8094 73.9254C62.4649 73.9051 62.1194 73.9001 61.7744 73.8887C61.7309 73.8568 61.6891 73.8001 61.644 73.797C61.3545 73.779 61.0708 73.7395 60.7859 73.6756C60.2753 73.5609 59.7529 73.4986 59.2439 73.3777C58.0796 73.1016 56.9345 72.762 55.8107 72.3391C54.4674 71.8334 53.1482 71.2732 51.8669 70.6261C51.122 70.2499 50.397 69.8306 49.6773 69.4058C48.8156 68.897 47.9627 68.3721 47.1175 67.8356C46.2414 67.2796 45.4125 66.6519 44.5659 66.0512C43.5556 65.3343 42.6029 64.5438 41.6226 63.7888C41.3525 63.5807 41.1478 63.3306 41.2156 62.943C41.2375 62.8174 41.2191 62.6849 41.2194 62.5554C41.2872 62.4701 41.3501 62.3798 41.4239 62.3006C41.7528 61.9475 42.2855 61.9013 42.6631 62.2003C43.206 62.6304 43.7349 63.0792 44.2849 63.4993C45.125 64.1414 45.9628 64.7883 46.8299 65.3915C47.6681 65.9747 48.5234 66.5327 49.3965 67.0642C50.4099 67.6814 51.4358 68.2729 52.482 68.8281C53.0131 69.1098 53.5607 69.3618 54.1118 69.6019C54.9291 69.9576 55.7465 70.3177 56.5813 70.6267C57.7232 71.049 58.8923 71.3863 60.0845 71.6336C60.4921 71.7181 60.8983 71.8515 61.3091 71.8698C61.8173 71.8923 62.3107 72.061 62.8247 72.004C62.9299 71.9923 63.0401 72.0254 63.1481 72.0385C63.3451 72.0624 63.5422 72.1057 63.7393 72.1068C64.1737 72.109 64.6048 72.1215 65.04 72.0179C65.3869 71.9351 65.7557 71.9723 66.1184 71.9115C66.731 71.8087 67.3218 71.6553 67.8977 71.4305C68.4775 71.2041 68.8717 70.5327 68.7547 69.9206C68.6235 69.2324 68.4379 68.5597 68.1358 67.9223C67.9789 67.5908 67.854 67.2415 67.7397 66.892C67.6143 66.5082 67.6482 66.1329 67.8439 65.7689C68.0506 65.3846 68.3644 65.0978 68.6891 64.8369C69.2006 64.4262 69.7487 64.0628 70.2793 63.6766C70.3944 63.5927 70.501 63.4968 70.6062 63.4107C70.563 63.1978 70.5357 63.0164 70.4881 62.8408C70.4397 62.6632 70.3739 62.4904 70.311 62.317C70.2093 62.0358 70.101 61.9602 69.8222 62.0089C69.3061 62.0989 68.7911 62.1953 68.278 62.3006C67.8343 62.392 67.4483 62.3212 67.1427 61.9527C66.704 61.424 67.0107 60.5673 67.6911 60.4476C68.1714 60.3631 68.6574 60.3114 69.1363 60.2203C69.9928 60.0575 70.8317 59.8213 71.6524 59.5237C71.7612 59.4842 71.8497 59.387 71.9736 59.2978C71.7907 58.9216 71.6316 58.5701 71.4517 58.23C71.0964 57.5578 70.8607 56.8426 70.6836 56.1049C70.572 55.6406 70.609 55.1869 70.811 54.7551C71.0247 54.2977 71.4096 54.0468 71.8858 54.0115C72.3552 53.9768 72.8237 53.9637 73.2928 53.8973C74.0377 53.7917 74.7501 53.6081 75.4111 53.2369C75.6066 53.1271 75.7627 52.9848 75.8624 52.7776C75.7955 52.5925 75.7495 52.4113 75.6678 52.2488C75.187 51.2946 74.7006 50.3432 74.2091 49.3949C74.0569 49.1015 73.8833 48.8195 73.7174 48.5333C73.4044 47.9931 73.0903 47.4532 72.7756 46.9139C72.3128 46.1206 71.8672 45.3162 71.3809 44.5382C70.8208 43.6421 70.475 42.6924 70.522 41.6182C70.5373 41.2697 70.5144 40.9258 70.5966 40.5731C70.7508 39.913 70.841 39.2372 70.9531 38.567C71.0592 37.9327 71.0745 37.2883 71.1592 36.6503C71.2314 36.1068 71.1524 35.5442 71.2855 35.0004C71.2402 34.0799 71.3938 33.1518 71.1838 32.2374C71.1715 32.1843 71.1789 32.1268 71.1778 32.0712C71.1669 31.5558 71.1652 31.0451 71.0871 30.528C70.9969 29.9309 70.9575 29.3235 70.8471 28.7277C70.7098 27.9875 70.5556 27.2506 70.4067 26.5129C70.3777 26.369 70.3372 26.2281 70.1724 26.137C70.0696 26.1898 69.9562 26.2426 69.8479 26.3048C69.4215 26.5502 69.009 26.8241 68.5688 27.0406C67.8332 27.4021 67.0905 27.7527 66.3327 28.062C65.4069 28.4399 64.4646 28.7764 63.495 29.0281C63.1087 29.1284 62.7263 29.2482 62.3504 29.3829C61.9228 29.5363 61.5092 29.7303 61.0809 29.882C60.0429 30.2496 59.1083 30.82 58.1791 31.3982C57.7005 31.6961 57.2399 32.0284 56.7946 32.3763C56.4668 32.6325 56.177 32.9387 55.8703 33.2227C55.761 33.3338 55.6513 33.445 55.542 33.5561C54.951 33.9748 54.542 34.5739 54.0877 35.1204C53.6566 35.6392 53.298 36.2216 52.9183 36.7834C52.4872 37.4214 52.0796 38.0763 51.6397 38.7079C51.3158 39.1733 50.9785 39.6326 50.6075 40.0591C50.2475 40.4728 49.8457 40.8468 49.4096 41.1867C48.6923 41.7457 47.8949 42.1455 47.0423 42.4067C46.3174 42.6287 45.5711 42.8063 44.7988 42.7818C44.71 42.7791 44.6203 42.8102 44.5307 42.8221C44.3516 42.8458 44.1726 42.8833 43.993 42.8858C43.6308 42.8911 43.2737 42.881 42.9107 42.8021C42.5439 42.7221 42.1581 42.7488 41.7785 42.6863C41.0609 42.5685 40.3589 42.3984 39.661 42.2011C38.9103 41.9888 38.1654 41.7535 37.4093 41.5632C36.5315 41.3423 35.6628 41.0839 34.7585 40.9716C34.1303 40.8938 33.5089 40.7629 32.872 40.7779C32.7083 40.7818 32.544 40.7838 32.3802 40.7777C31.7225 40.7535 31.0787 40.8663 30.444 41.0144C29.8254 41.1589 29.2089 41.3289 28.6376 41.6193C27.6407 42.1264 26.726 42.7538 25.9477 43.5743C25.6697 43.8674 25.3477 44.1264 25.1123 44.451C24.6282 45.1181 24.1531 45.7947 23.8267 46.5657C23.4227 47.5202 23.1069 48.4941 23.0662 49.5433C23.0613 49.6705 23.0263 49.7967 23.0028 49.9228C22.938 50.2713 22.9377 50.6194 23.0028 50.9679C23.0263 51.094 23.0654 51.221 23.0646 51.3474C23.0624 51.6811 23.1083 52.0045 23.1679 52.3335C23.429 53.7678 23.9456 55.091 24.7304 56.3136C25.1123 56.9085 25.6022 57.3975 26.0822 57.9018C26.4387 58.2764 26.8197 58.6137 27.2629 58.876C28.081 59.3603 28.9132 59.8002 29.8811 59.9002C30.3491 59.9485 30.6862 60.227 30.8751 60.6646C30.9224 60.7741 30.9404 60.9252 30.9065 61.0364C30.7882 61.424 30.576 61.7127 30.1425 61.8152C29.9615 61.858 29.8243 61.7977 29.6668 61.7844C28.7098 61.7029 27.832 61.3548 26.9843 60.928C26.0489 60.457 25.2785 59.749 24.4983 59.0599C24.4172 58.9883 24.3548 58.8938 24.2868 58.8074C24.2075 58.7071 24.1378 58.5981 24.0533 58.5028C23.4905 57.8696 23.0263 57.1655 22.6244 56.4203C22.169 55.5759 21.8101 54.6906 21.5791 53.7523C21.4031 53.0379 21.2005 52.3308 21.2073 51.5844C21.2084 51.4752 21.1808 51.3657 21.1674 51.2563C21.145 51.0743 21.1048 50.892 21.1048 50.71C21.1048 50.3054 21.0835 49.9034 21.1898 49.4991C21.2727 49.1837 21.2377 48.8461 21.2945 48.5144C21.5195 47.2059 21.9736 45.9906 22.6059 44.8369C22.7469 44.5793 22.8874 44.3184 23.0569 44.08C23.4932 43.4662 23.9571 42.8749 24.512 42.3634C24.6872 42.202 24.8384 42.0127 25.018 41.8569C25.3756 41.5462 25.7323 41.2317 26.1128 40.9513C26.8506 40.4078 27.6393 39.9507 28.499 39.6332C29.0785 39.4192 29.6603 39.2172 30.2707 39.1016C30.5933 39.0405 30.9237 39.0408 31.2373 38.9716C31.564 38.8993 31.8846 38.8921 32.2107 38.8893C32.5932 38.8863 32.9759 38.8877 33.3583 38.8893C33.4857 38.8899 33.6147 38.8846 33.7399 38.9035C34.1505 38.9655 34.5576 39.0672 34.9701 39.0994C35.8249 39.1664 36.6447 39.4039 37.4689 39.6084C38.5599 39.8791 39.635 40.2153 40.7186 40.5167C41.6675 40.781 42.6286 40.9524 43.6195 40.8913C43.8555 40.8769 44.093 40.8888 44.33 40.8891C44.7838 40.8891 45.237 40.9041 45.6823 40.7779C46.0484 40.6743 46.4393 40.6379 46.7854 40.4898C47.6093 40.1372 48.3813 39.6857 49.0116 39.0235C49.5302 38.4786 49.9703 37.8693 50.3905 37.2455C51.0157 36.3172 51.6247 35.3775 52.2603 34.4566C52.6977 33.8228 53.1821 33.2243 53.7255 32.6786C53.9458 32.4574 54.1651 32.2352 54.3824 32.0109C54.8036 31.5766 55.2643 31.1896 55.7487 30.8309C56.0125 30.6355 56.2875 30.4549 56.542 30.2479C57.1693 29.7369 57.8803 29.3649 58.5731 28.9631C59.3013 28.5407 60.0842 28.2368 60.8592 27.9192C61.2796 27.7469 61.7096 27.5971 62.1418 27.4574C62.5387 27.329 62.9493 27.2443 63.3446 27.1114C64.2926 26.7927 65.2379 26.4729 66.1572 26.0661C67.3117 25.5551 68.4155 24.9597 69.4638 24.2578C69.9928 23.9036 70.4674 23.469 70.9717 23.0816C71.5652 22.626 72.0116 22.0483 72.4569 21.4742C72.9268 20.8685 73.3122 20.1989 73.5848 19.4617C73.9142 18.5706 74.0451 17.6487 74.1241 16.7128C74.1378 16.5514 74.0943 16.3844 74.0733 16.2208C74.0593 16.1116 74.0219 16.0029 74.0233 15.8945C74.0315 15.2394 73.8571 14.6178 73.6742 14.0018C73.4741 13.3282 73.1616 12.705 72.8166 12.094C72.414 11.3807 71.9137 10.7561 71.3153 10.2093C71.2538 10.1529 71.1519 10.1423 71.0687 10.1104C71.0165 10.0409 70.9742 9.95975 70.9105 9.9039C70.6839 9.70524 70.5032 9.76553 70.419 10.064C70.405 10.1131 70.414 10.1693 70.4127 10.2221C70.3766 10.4018 70.3438 10.5824 70.3033 10.7611C70.1243 11.5541 69.7367 12.2382 69.2036 12.8323C68.6145 13.4888 67.9852 14.1046 67.208 14.5361C66.8412 14.7398 66.4773 14.952 66.0974 15.1271C65.8079 15.2605 65.6635 15.4458 65.7089 15.7717C65.719 15.8443 65.7054 15.9201 65.7111 15.9937C65.7702 16.7401 65.526 17.4222 65.2177 18.0685C64.7992 18.9463 64.1349 19.6481 63.4031 20.2567C62.6874 20.8516 61.9081 21.3678 61.0568 21.7568C60.6588 21.9388 60.2802 22.1708 59.8721 22.3228C58.9003 22.6846 57.9175 23.0163 56.9367 23.3528C53.477 24.5396 50.0157 25.7221 46.5557 26.908C43.0269 28.1178 39.4997 29.3324 35.9703 30.5402C32.4581 31.7422 28.9405 32.9279 25.4319 34.1407C21.9233 35.3536 18.3966 36.5111 14.8946 37.7454C10.8439 39.173 6.76775 40.5251 2.70284 41.9105C2.20696 42.0794 2.20778 42.0811 2.18591 42.599C2.18208 42.6913 2.19712 42.7924 2.16514 42.8741C2.04595 43.1784 2.08313 43.494 2.07739 43.8066C2.07137 44.1211 2.11566 44.4468 2.04896 44.7469C1.97515 45.0789 1.9705 45.4051 1.96886 45.7363C1.96585 46.3657 1.96777 46.9953 1.96831 47.6247C1.96831 47.7541 1.94125 47.8936 1.97843 48.0117C2.12686 48.483 2.06153 48.9653 2.07821 49.4435C2.07821 49.6286 2.07821 49.8139 2.07821 49.999C2.10582 50.057 2.12468 50.1565 2.16295 50.1651C2.28159 50.1912 2.28022 50.0804 2.2958 49.9992C2.43877 49.8428 2.47185 49.6414 2.51504 49.4441C2.58557 49.3385 2.66074 49.2362 2.72526 49.127C2.95051 48.7483 3.1517 48.3526 3.40074 47.9912C3.63911 47.6452 3.95676 47.354 4.18365 47.002C4.55324 46.4285 5.10926 46.0731 5.61033 45.6541C6.13437 45.2159 6.75599 44.938 7.36669 44.6524C7.99706 44.3579 8.67391 44.1853 9.35841 44.1272C9.89447 44.0817 10.4382 44.095 10.986 44.1945C11.6394 44.3131 12.2454 44.5296 12.8432 44.7999C13.3304 45.0203 13.7434 45.3545 14.1603 45.6788C14.4763 45.9247 14.7953 46.1809 15.0547 46.484C15.3986 46.8856 15.7138 47.3196 15.9907 47.7716C16.3264 48.3199 16.5869 48.9092 16.7466 49.5422C16.8825 50.0812 16.974 50.6211 16.9492 51.1801C16.9328 51.5497 16.9877 51.929 16.9251 52.2885C16.7797 53.1252 16.5082 53.9168 16.0867 54.6664C15.6102 55.5136 14.9323 56.1244 14.1466 56.6415C13.8648 56.8268 13.5504 56.7993 13.2456 56.7576C13.0171 56.7265 12.7005 56.3094 12.685 56.0705C12.6779 55.9599 12.6779 55.8482 12.6839 55.7373C12.6986 55.4656 12.7867 55.2405 13.0376 55.0932C13.2574 54.9643 13.469 54.8179 13.6699 54.66C13.8413 54.5253 14.0223 54.3861 14.1472 54.2105C15.0143 52.9929 15.324 51.6461 14.9689 50.1746C14.7535 49.2818 14.376 48.4696 13.6806 47.8428C13.5037 47.6833 13.344 47.5041 13.1765 47.334C12.7856 46.9378 12.3299 46.6221 11.8274 46.4118C10.962 46.0492 10.0735 45.8908 9.11867 46.0892C8.12609 46.2954 7.24969 46.7272 6.49548 47.3696C5.80223 47.96 5.18306 48.6383 4.69484 49.4363C3.99913 50.5733 3.60303 51.7962 3.49641 53.1238C3.48767 53.2332 3.45568 53.3405 3.44256 53.4497C3.34415 54.2785 3.37531 55.1088 3.42507 55.9385C3.43819 56.1577 3.47673 56.3755 3.49723 56.5945C3.50926 56.7232 3.49505 56.8554 3.51692 56.9818C3.61396 57.5423 3.72276 58.1005 3.82199 58.6607C4.00186 59.6771 4.22602 60.6821 4.5762 61.6535C4.71971 62.0517 4.88264 62.4426 5.02971 62.8394C5.40175 63.8422 5.84296 64.8144 6.29264 65.7822C6.73495 66.735 7.22727 67.6616 7.76443 68.5636C8.20618 69.3052 8.63181 70.0571 9.08641 70.7903C9.40543 71.3046 9.75205 71.802 10.1033 72.2944C10.465 72.8012 10.8329 73.3049 11.2249 73.7876C11.6402 74.2986 12.0434 74.8193 12.4767 75.3172C13.0171 75.9385 13.5589 76.5587 14.1122 77.1677C14.4949 77.5893 14.9008 77.9899 15.309 78.3862C15.7289 78.7938 16.1621 79.1872 16.5935 79.5826C16.7682 79.7427 16.9538 79.8902 17.1334 80.0447C17.424 80.2948 17.7118 80.5482 18.0046 80.7955C18.311 81.0542 18.6164 81.3148 18.9321 81.5612C19.6082 82.0886 20.3052 82.5865 20.9988 83.0898C21.6354 83.5518 22.3019 83.9614 22.9612 84.384C23.4678 84.7086 23.9902 85.0081 24.5137 85.3043C25.2121 85.6994 25.9084 86.1009 26.624 86.4618C27.3233 86.8145 28.0387 87.1357 28.7595 87.4407C29.6641 87.8236 30.5719 88.2021 31.4951 88.5347C32.4529 88.8798 33.425 89.1865 34.4009 89.4752C35.2005 89.7117 36.0099 89.9204 36.824 90.099C37.672 90.2852 38.5314 90.4163 39.3843 90.5797C40.1128 90.7192 40.8394 90.8676 41.5838 90.8898C41.656 90.892 41.7347 90.8912 41.7987 90.9193C42.0078 91.0118 42.2262 90.9962 42.4441 90.9993C42.5715 91.0012 42.7095 90.9771 42.8238 91.0187C43.1614 91.1418 43.5072 91.0993 43.8511 91.1102C43.9965 91.1146 44.154 91.0893 44.2846 91.1374C44.5523 91.236 44.8226 91.218 45.0943 91.2199C45.5314 91.223 45.9694 91.2077 46.4059 91.2235C47.2987 91.2558 48.1803 91.1646 49.0551 90.9962C49.9017 90.8334 50.6906 90.5289 51.4208 90.0496C52.2308 89.5177 52.5183 88.63 52.3242 87.6867C52.1846 87.007 51.8724 86.4052 51.4957 85.8372C51.2833 85.5171 51.0676 85.1909 50.8043 84.9156C48.8009 82.8188 46.69 80.8294 44.7625 78.6565C44.3492 78.1905 43.9014 77.7529 43.5222 77.2606C43.2967 76.9677 43.0345 76.714 42.806 76.4278C42.5439 76.0991 42.2888 75.7646 42.0288 75.4342C41.5537 74.8301 41.057 74.2424 40.6068 73.6198C40.0163 72.8031 39.4598 71.9609 38.8928 71.1265C38.2009 70.1082 37.5637 69.0526 36.999 67.9587C36.1884 66.3885 35.3968 64.8061 34.8252 63.1231C34.5644 62.3554 34.2585 61.6012 34.0423 60.821C33.7183 59.6523 33.4264 58.4725 33.1768 57.2855C33.0185 56.5331 32.8463 55.7781 32.7944 55.0049C32.7799 54.789 32.696 54.6837 32.4983 54.6748C32.0183 54.6528 31.573 54.4967 31.1288 54.3363C30.5686 54.1343 30.1121 53.7606 29.713 53.3344C29.4284 53.0304 29.2264 52.6514 29.0438 52.2646C28.6346 51.3974 28.5272 50.5091 28.765 49.5749C29.0307 48.5313 29.578 47.6916 30.4689 47.0939C30.93 46.7847 31.4385 46.5282 31.9735 46.4727C32.7438 46.3923 33.5139 46.4068 34.276 46.7224C35.0242 47.0325 35.5775 47.5549 36.0283 48.1698C36.5192 48.8395 36.8093 49.6241 36.7379 50.4994C36.7155 50.7753 36.7762 51.0682 36.7073 51.3282C36.4976 52.1187 36.1857 52.8612 35.5876 53.4502C35.3241 53.7098 35.0431 53.9379 34.7314 54.1304C34.5898 54.218 34.5351 54.3455 34.5589 54.5067C34.5939 54.7426 34.6188 54.9821 34.6778 55.2122C34.8878 56.0313 34.9911 56.8715 35.1759 57.697C35.3812 58.614 35.6248 59.519 35.8785 60.4206C36.0878 61.1645 36.3626 61.8905 36.631 62.616C36.9954 63.601 37.4027 64.5688 37.8647 65.511C38.1403 66.0731 38.4497 66.6177 38.7324 67.1759C39.2069 68.1132 39.7542 69.0054 40.3378 69.8751C40.808 70.5761 41.27 71.283 41.7569 71.9718C42.1688 72.5545 42.6084 73.1174 43.0419 73.6842C43.3309 74.0621 43.6236 74.4372 43.9271 74.8029C44.2193 75.1552 44.5326 75.4892 44.827 75.8396C45.1799 76.2594 45.5068 76.7029 45.8737 77.1094C46.3278 77.6123 46.7911 78.1075 47.2495 78.6062C48.2192 79.6607 49.2478 80.6593 50.2546 81.6785C50.3268 81.7516 50.4186 81.8046 50.5318 81.89C50.578 81.7888 50.6155 81.7294 50.6332 81.6643C50.7251 81.3273 50.8128 80.9891 50.9006 80.651C51.1171 79.8144 51.2748 78.9669 51.4014 78.1108C51.4528 77.7629 51.4484 77.4084 51.5181 77.0716C51.5944 76.7029 51.5998 76.3403 51.6069 75.9718C51.6091 75.8612 51.5971 75.7407 51.6356 75.6426C51.7346 75.3911 51.7133 75.1327 51.7141 74.8751C51.7163 74.1346 51.7209 73.3939 51.7119 72.6534C51.7086 72.3811 51.7688 72.1427 51.9443 71.9354C52.1723 71.6661 52.4511 71.5194 52.8081 71.5533C53.0265 71.7017 53.2452 71.8501 53.4636 71.9985C53.559 72.2816 53.5801 72.5725 53.5762 72.8709C53.5675 73.5928 53.5754 74.315 53.5724 75.0368C53.5711 75.368 53.6025 75.7012 53.4841 76.0249C53.448 76.1238 53.4669 76.2447 53.4647 76.3556C53.4587 76.6501 53.494 76.9482 53.3745 77.2317C53.354 77.2803 53.3565 77.3411 53.3573 77.3961C53.3652 78.0263 53.2296 78.6396 53.1238 79.2536C53.015 79.8866 52.8537 80.5107 52.7097 81.1372C52.5777 81.7119 52.3956 82.2709 52.1898 82.8222C52.1512 82.9255 52.1241 83.0336 52.0856 83.137C52.0137 83.3298 52.0495 83.4904 52.1873 83.646C52.6616 84.1817 53.0683 84.77 53.43 85.3879C53.8335 86.0767 54.1115 86.8322 54.2063 87.6177C54.3777 89.0357 53.9918 90.3005 52.9117 91.268C52.438 91.6923 51.9104 92.0413 51.3038 92.2849C50.7609 92.5033 50.2117 92.6803 49.6494 92.8198C49.2998 92.9065 48.9373 92.939 48.5808 92.9985C47.2424 93.2213 45.8939 93.096 44.5509 93.0924C43.9766 93.0907 43.3932 93.029 42.818 92.971C42.4952 92.9385 42.1707 92.9123 41.8468 92.8804C41.434 92.8398 41.0251 92.7615 40.6145 92.699C40.3108 92.6525 40.0081 92.5961 39.7031 92.56C38.5875 92.4283 37.4954 92.173 36.397 91.9457C35.2765 91.7139 34.1792 91.3947 33.0858 91.0679C32.0937 90.7714 31.1252 90.3936 30.1496 90.0415C29.6709 89.8687 29.198 89.6786 28.727 89.4855C28.2727 89.2993 27.8181 89.1118 27.3741 88.902C26.5002 88.4891 25.6208 88.0851 24.7665 87.633C22.8962 86.6433 21.1141 85.501 19.3845 84.2776C18.6719 83.7733 17.9718 83.2473 17.3149 82.6638C16.7838 82.192 16.2053 81.7749 15.6725 81.3042C15.1111 80.808 14.5753 80.2814 14.0357 79.7599C13.7057 79.4409 13.3842 79.1128 13.0693 78.7785C12.4414 78.1114 11.8061 77.4503 11.2022 76.7612C10.7815 76.2811 10.4068 75.759 10.0139 75.2539C9.58694 74.7051 9.15722 74.1582 8.73924 73.6028C8.34287 73.076 7.98886 72.5192 7.62829 71.9665C7.11629 71.1815 6.63216 70.3805 6.17209 69.5636C5.89271 69.0673 5.60869 68.5733 5.34161 68.0701C5.11718 67.6469 4.9179 67.2095 4.7014 66.7819C4.17681 65.7463 3.7285 64.6755 3.31053 63.5929C2.95269 62.666 2.61892 61.7279 2.31549 60.7813C1.86061 59.3628 1.48802 57.9213 1.17419 56.4614C0.988854 55.5992 0.858187 54.7278 0.675854 53.8659C0.596305 53.4905 0.592205 53.0993 0.541086 52.717C0.48532 52.2991 0.412605 51.8834 0.352739 51.4661C0.334423 51.3385 0.330323 51.2085 0.327316 51.0796C0.320482 50.785 0.340711 50.4916 0.24066 50.2018C0.194461 50.0684 0.219064 49.9087 0.217971 49.7608C0.214964 49.3721 0.214417 48.9834 0.215784 48.5947C0.21633 48.4418 0.152364 48.3499 -0.00126648 48.3313V44.7758C0.1171 44.7566 0.206489 44.7032 0.210043 44.5676C0.215237 44.3643 0.214417 44.1606 0.217424 43.9572C0.222344 43.6429 0.182707 43.3184 0.246947 43.0169C0.309821 42.7221 0.321849 42.4334 0.327316 42.1389C0.329229 42.028 0.327863 41.916 0.342624 41.8066C0.406591 41.3342 0.476845 40.8627 0.543273 40.3903C0.581544 40.1177 0.615167 39.8446 0.654258 39.572C0.709204 39.1908 0.752669 38.8071 0.827024 38.4295C0.976006 37.6726 1.15916 36.9224 1.29803 36.1638C1.47407 35.2016 1.7406 34.2638 2.02845 33.3344C2.38246 32.1904 2.78977 31.0637 3.17248 29.9289C3.53824 28.8444 4.00924 27.8039 4.49255 26.7722C5.03162 25.6218 5.57097 24.4696 6.24891 23.3912C6.62013 22.801 6.94489 22.1805 7.31147 21.5873C7.85163 20.7126 8.45194 19.8796 9.04404 19.0402C9.78376 17.9907 10.6099 17.0132 11.4168 16.0207C11.9247 15.3958 12.4953 14.8223 13.0505 14.2382C13.5693 13.6925 14.0977 13.1554 14.6351 12.6289C15.0531 12.2193 15.4916 11.8317 15.921 11.4344C15.9344 11.4218 15.9486 11.4102 15.9629 11.3988C16.4598 10.9995 16.9724 10.618 17.4505 10.1965C18.1093 9.61549 18.8105 9.09117 19.524 8.58796C20.896 7.62046 22.2852 6.67268 23.7644 5.88273C24.6153 5.42843 25.4447 4.93273 26.3334 4.54206C27.2328 4.14667 28.1231 3.72877 29.0315 3.35199C30.5796 2.71013 32.1563 2.15525 33.7741 1.72818C35.42 1.29361 37.07 0.881266 38.7602 0.643696C39.5656 0.530608 40.3635 0.366393 41.1781 0.328604C41.2325 0.326104 41.2927 0.329994 41.3397 0.308043C41.5824 0.194398 41.8394 0.225519 42.0928 0.219684C42.2847 0.217183 42.4769 0.218572 42.6688 0.211348C42.7975 0.206346 42.8421 0.11243 42.8582 -0.00177002H48.981C48.9974 0.11243 49.0417 0.206346 49.1705 0.211348C49.3624 0.21885 49.5545 0.217461 49.7464 0.219684C49.9435 0.24358 50.1406 0.26692 50.3374 0.291927C50.4271 0.303319 50.517 0.332217 50.6059 0.328327C51.3366 0.297206 52.0476 0.473925 52.7594 0.582012C53.7936 0.73928 54.8206 0.957399 55.846 1.18191C57.8197 1.6137 59.7354 2.23194 61.6358 2.90297C62.5426 3.22334 63.4179 3.63568 64.3074 4.00662C65.5714 4.534 66.7636 5.21226 67.9849 5.82882C68.4707 6.07417 68.9223 6.38982 69.387 6.67768C70.0994 7.11892 70.8183 7.55044 71.5179 8.01224C71.9883 8.32289 72.4334 8.67354 72.8831 9.01531C73.4773 9.46711 74.0711 9.92002 74.6531 10.3879C74.994 10.6619 75.2977 10.9842 75.6427 11.2521C76.1478 11.6444 76.6016 12.097 77.0723 12.5258C77.8845 13.2657 78.6456 14.0668 79.3918 14.8767C79.6124 15.116 79.8243 15.3716 80.0392 15.6209C80.385 16.0218 80.7171 16.4353 81.0536 16.8445C81.2627 17.0988 81.4743 17.3511 81.6755 17.6114C82.1118 18.1758 82.5593 18.7326 82.9704 19.3153C83.5095 20.0788 84.0445 20.8479 84.5327 21.6451C85.1171 22.5996 85.7306 23.5379 86.215 24.5543C86.5069 25.167 86.8571 25.7513 87.1474 26.3646C87.4858 27.0792 87.7983 27.8069 88.102 28.5377C88.3912 29.2337 88.6761 29.9331 88.924 30.6447C89.2266 31.5133 89.4926 32.3955 89.7682 33.2738C90.082 34.2741 90.3471 35.2888 90.5713 36.3136C90.7241 37.0121 90.8397 37.7193 90.9682 38.4231C91.0672 38.9643 91.1607 39.5067 91.2563 40.0485C91.2692 40.1211 91.2845 40.1933 91.2908 40.2664C91.3307 40.724 91.3137 41.1956 91.4209 41.6362C91.5445 42.1444 91.4742 42.6618 91.595 43.1703C91.6825 43.5382 91.6185 43.9433 91.6224 44.3317C91.6224 44.4059 91.6224 44.4801 91.6224 44.5543C91.627 44.8105 91.5931 45.0711 91.7077 45.3145C91.7077 46.1778 91.7268 47.0417 91.694 47.9036C91.6861 48.114 91.6218 48.3332 91.6226 48.5538C91.6226 48.6652 91.6226 48.7764 91.6226 48.8875C91.6226 49.1465 91.6311 49.406 91.6191 49.6644C91.6098 49.8653 91.5762 50.0651 91.551 50.2651C91.5442 50.3199 91.5229 50.373 91.5188 50.4274C91.4789 50.9406 91.4521 51.4549 91.3996 51.9665C91.3547 52.4038 91.285 52.8387 91.2189 53.2735C91.1388 53.7995 91.0535 54.3247 90.966 54.8495C90.8999 55.2472 90.8403 55.647 90.7539 56.0404C90.565 56.9018 90.3693 57.7621 90.1612 58.6187C89.8961 59.7112 89.5314 60.7735 89.1801 61.8394C88.7477 63.1514 88.2688 64.4454 87.6745 65.6927C87.2311 66.6236 86.8158 67.5694 86.3454 68.4858C85.926 69.3024 85.4638 70.0976 84.9914 70.8842C84.5379 71.6392 84.0696 72.3872 83.5664 73.1079C83.001 73.9179 82.3947 74.6987 81.7955 75.4834C81.3631 76.0499 80.9243 76.6123 80.4664 77.1577C80.0665 77.6343 79.6441 78.0925 79.2172 78.5443C78.7634 79.0247 78.2913 79.487 77.8296 79.9597C77.1645 80.6404 76.4614 81.2781 75.7274 81.8811C75.5724 82.0086 75.4404 82.165 75.2851 82.2923C74.9817 82.541 74.9746 82.5376 75.1093 82.9269C75.2359 83.292 75.3813 83.6505 75.5005 84.0178C75.7454 84.7736 75.9289 85.5413 75.8783 86.3476C75.8726 86.4399 75.8756 86.5327 75.8778 86.625C75.9084 87.907 75.568 89.1037 75.0366 90.2474C74.7419 90.8815 74.3674 91.4697 73.88 91.9776C73.6911 92.1746 73.5495 92.4197 73.3532 92.6073C73.1168 92.8329 72.8396 93.0138 72.5897 93.2258C71.9246 93.7901 71.1513 94.1524 70.3531 94.4656C70.0502 94.5845 69.7358 94.6734 69.4267 94.7762C69.358 94.7771 69.2894 94.7787 69.2208 94.7787C69.0757 94.7782 68.9994 94.8518 68.9893 94.998H66.3653C66.3614 94.8535 66.289 94.7793 66.1463 94.7768C66.0006 94.7765 65.8549 94.7759 65.7092 94.7757L65.7106 94.7779ZM5.90392 28.8886C5.96762 28.9786 6.04334 28.9734 6.14038 28.9397C8.09247 28.2615 10.0456 27.5866 11.9986 26.9108C12.0497 26.893 12.1155 26.8891 12.1484 26.8536C12.1937 26.8041 12.2142 26.7308 12.2457 26.6677C12.3914 26.6305 12.5373 26.5932 12.6831 26.5557C12.7454 26.5793 12.817 26.636 12.8681 26.621C13.355 26.4768 13.841 26.329 14.3216 26.165C15.0266 25.925 15.7256 25.6671 16.4292 25.4237C18.4726 24.7166 20.5174 24.0128 22.5613 23.307C22.6641 23.2714 22.7737 23.2434 22.8631 23.185C22.9137 23.1519 22.9292 23.0641 22.9604 23.0008L23.3978 22.8888C23.4601 22.9122 23.532 22.9691 23.5831 22.9541C24.0703 22.8096 24.5568 22.6615 25.038 22.4973C25.6055 22.3034 26.1656 22.0866 26.7323 21.8902C28.6567 21.2225 30.5809 20.5542 32.5084 19.896C33.3854 19.5965 34.2722 19.3264 35.1505 19.0302C35.9255 18.7687 36.6936 18.4856 37.4667 18.218C39.4089 17.5464 41.3512 16.8743 43.2959 16.2102C44.1556 15.9165 45.0235 15.6473 45.8844 15.3558C46.6591 15.0935 47.428 14.8131 48.2014 14.5461C50.1436 13.8748 52.0856 13.2015 54.0306 12.5388C55.0284 12.199 56.0349 11.885 57.0343 11.5497C57.5684 11.3704 58.0941 11.1662 58.6264 10.9812C60.4814 10.3357 62.3362 9.68856 64.1942 9.05227C65.1573 8.72245 66.1274 8.41402 67.0951 8.0981C67.2004 8.06364 67.2266 7.98307 67.2408 7.88859C67.2846 7.58462 67.0831 7.47097 66.8595 7.35844C65.3115 6.5796 63.7798 5.76714 62.1629 5.13529C60.7053 4.56568 59.242 4.01635 57.73 3.61345C56.8017 3.36616 55.8758 3.09997 54.936 2.90714C53.998 2.71486 53.0571 2.52841 52.1015 2.42644C51.5091 2.36309 50.9241 2.22972 50.3249 2.21888C50.2885 2.21832 50.2491 2.22027 50.2169 2.20693C49.8842 2.06967 49.5348 2.12135 49.191 2.11079C49.0455 2.10635 48.8881 2.13163 48.7574 2.08328C48.4898 1.98409 48.2192 2.00159 47.9474 2.00132C46.7813 1.99909 45.6151 1.99493 44.4489 2.00298C43.9604 2.00632 43.4648 1.93713 42.9867 2.10607C42.4039 2.07717 41.8279 2.15275 41.2514 2.22166C41.1254 2.23666 40.9964 2.22916 40.8709 2.24778C40.46 2.30891 40.0508 2.38087 39.6402 2.442C39.0678 2.5273 38.4913 2.58871 37.9227 2.69346C37.2289 2.82156 36.5373 2.96854 35.8514 3.13498C34.6519 3.42618 33.4663 3.7735 32.293 4.1575C31.5159 4.41202 30.7518 4.70961 29.9899 5.00942C29.0072 5.39592 28.0324 5.80382 27.0931 6.29174C26.267 6.72075 25.4406 7.14977 24.6268 7.60184C23.9421 7.98223 23.2652 8.37985 22.6028 8.79914C21.9875 9.1887 21.3902 9.6091 20.7951 10.0309C20.156 10.4841 19.5253 10.9503 18.8991 11.4218C18.7758 11.5147 18.6232 11.6122 18.6317 11.8314C18.7017 11.8753 18.7733 11.9337 18.8545 11.9684C19.1557 12.097 19.4553 12.2318 19.764 12.3391C21.6048 12.9781 23.4795 13.4577 25.433 13.5603C25.5049 13.5641 25.5757 13.5855 25.6476 13.595C25.8447 13.6203 26.0418 13.6636 26.2391 13.6642C27.6967 13.67 29.1545 13.6678 30.6124 13.6667C30.7578 13.6667 30.9114 13.6842 31.047 13.6439C31.5938 13.4816 32.1659 13.5914 32.7184 13.4558C33.1022 13.3616 33.5169 13.3991 33.9012 13.3063C34.7634 13.0979 35.6376 12.9531 36.4946 12.7061C37.8557 12.3141 39.1279 11.7608 40.279 10.9253C40.4261 10.8186 40.5705 10.7052 40.7014 10.5794C40.9398 10.3504 41.1727 10.1154 41.3979 9.87306C41.9892 9.23704 42.2894 8.49433 42.2054 7.6049C42.1601 7.1242 41.7055 6.34953 41.1259 6.19921C40.4289 6.0186 39.8378 6.09807 39.3275 6.63989C39.1613 6.81634 39.0134 6.99944 38.9234 7.22562C38.7531 7.6538 38.4615 7.92666 37.9664 7.98723C37.9276 7.9739 37.859 7.95139 37.7909 7.92722C37.1736 7.70743 36.9566 7.26063 37.1326 6.6285C37.2092 6.35426 37.3541 6.12641 37.499 5.89134C37.8445 5.33062 38.3114 4.88577 38.883 4.59958C39.8734 4.1036 40.9094 4.05803 41.9425 4.48593C42.9094 4.8866 43.5362 5.61321 43.8776 6.61155C44.0359 7.07391 44.0624 7.54488 44.0681 8.02836C44.0785 8.87249 43.8134 9.61549 43.3801 10.3224C43.0879 10.7992 42.7218 11.2018 42.335 11.5944C41.9356 11.9998 41.5248 12.3849 41.0516 12.7047C40.1068 13.3432 39.0916 13.8334 38.0241 14.2093C37.4593 14.4083 36.8754 14.55 36.3016 14.7228C35.3443 15.0112 34.3547 15.139 33.3766 15.3191C32.898 15.4072 32.4037 15.4063 31.9166 15.4458C31.8622 15.4502 31.8029 15.4402 31.754 15.4591C31.3838 15.6014 30.9986 15.5475 30.6187 15.5553C30.2726 15.5625 29.9139 15.5058 29.5837 15.5808C29.1655 15.6756 28.753 15.6581 28.3366 15.6645C28.1007 15.6681 27.8552 15.6853 27.6311 15.6278C27.3955 15.5675 27.165 15.5581 26.9291 15.5567C26.5647 15.5547 26.2003 15.5597 25.8359 15.5539C25.6916 15.5517 25.5472 15.5297 25.4035 15.513C25.2241 15.4922 25.0453 15.4658 24.866 15.4455C24.4347 15.3963 24.0003 15.3677 23.5725 15.2963C23.1269 15.2216 22.6898 15.0957 22.2456 15.0104C20.7946 14.7317 19.3968 14.2835 18.0492 13.672C17.7507 13.5364 17.45 13.4058 17.1501 13.2738C16.9645 13.1921 16.8015 13.2177 16.6482 13.361C16.2745 13.7109 15.8901 14.049 15.5184 14.4011C15.2784 14.6281 15.0482 14.8662 14.8218 15.1074C14.157 15.8156 13.4958 16.5278 12.8342 17.2397C12.7845 17.293 12.7448 17.3558 12.6989 17.4133C12.4362 17.7418 12.1735 18.0702 11.9097 18.3978C11.6574 18.7115 11.3952 19.0171 11.1533 19.3386C10.7788 19.836 10.4032 20.3336 10.0549 20.8499C9.55168 21.5954 9.05662 22.3475 8.58725 23.1153C8.09848 23.9147 7.61435 24.7174 7.20568 25.5654C6.86206 26.279 6.47306 26.9697 6.12371 27.6805C5.98702 27.9586 5.90283 28.2634 5.79485 28.5563C5.64833 28.7719 5.65872 28.8033 5.90419 28.8895L5.90392 28.8886ZM61.1194 86.0009C61.0828 86.4649 61.1511 86.9206 61.2288 87.3749C61.2873 87.718 61.3373 88.0648 61.4248 88.4007C61.5937 89.0496 61.8982 89.6431 62.2662 90.1924C62.9119 91.1563 63.7697 91.8876 64.7951 92.4108C65.0542 92.5431 65.3194 92.6801 65.5974 92.7537C66.1395 92.8973 66.6829 93.0568 67.2581 93.0043C67.4932 92.9829 67.7321 92.9885 67.9683 93.0029C68.6566 93.0452 69.3138 92.8684 69.9307 92.6139C70.9296 92.2016 71.8033 91.5942 72.5039 90.7281C72.996 90.1193 73.3773 89.4638 73.6553 88.7356C73.8538 88.216 73.9741 87.6725 74.0079 87.1248C74.0465 86.5019 74.0462 85.875 73.9166 85.2501C73.7261 84.3304 73.3415 83.5093 72.8352 82.7327C72.5597 82.3104 72.1852 81.9869 71.8476 81.626C71.3621 81.1067 70.7579 80.7496 70.1218 80.4873C69.3318 80.1614 68.4991 79.9538 67.6285 79.9994C67.483 80.0069 67.3371 79.9994 67.1914 80.0005C66.5301 80.0052 65.8841 80.1403 65.2847 80.3984C64.1857 80.8716 63.2128 81.5265 62.4923 82.5368C61.84 83.4512 61.4089 84.4457 61.2271 85.556C60.9691 85.6672 60.9527 85.7344 61.1194 86.0009ZM16.7283 35.1121C16.874 35.0749 17.02 35.0376 17.1657 35.0001C17.228 35.0235 17.2996 35.0804 17.3507 35.0654C17.8373 34.9212 18.3239 34.7748 18.8036 34.6095C19.662 34.3138 20.5152 34.0021 21.3722 33.7014C21.835 33.5391 22.2997 33.3819 22.7666 33.2316C22.8888 33.1921 22.9497 33.1243 22.9604 33.0004C22.9686 32.8262 22.9333 32.6836 22.7759 32.5697C22.4962 32.3671 22.1947 32.1751 21.9719 31.9165C21.5302 31.4035 21.1543 30.8406 20.8697 30.2123C20.5991 29.6141 20.4427 29.0017 20.4452 28.3451C20.4463 28.0306 20.4354 27.7155 20.449 27.4012C20.4578 27.2012 20.4939 27.0008 20.5324 26.8036C20.5947 26.4843 20.6691 26.1675 20.75 25.7974C20.6169 25.8127 20.5291 25.8074 20.4523 25.8341C19.7478 26.0784 19.0472 26.3337 18.3422 26.5754C14.6772 27.8328 11.0112 29.0873 7.34509 30.3421C6.5876 30.6013 5.83011 30.8598 5.07071 31.1129C4.81594 31.1979 4.61994 31.3113 4.54968 31.6133C4.48325 31.8981 4.3422 32.1637 4.25254 32.4441C4.05599 33.0576 3.87037 33.6747 3.68285 34.291C3.66344 34.3552 3.65906 34.4241 3.64266 34.5205C3.76212 34.5344 3.84878 34.5444 3.93571 34.5544C3.9994 34.6447 4.07512 34.6406 4.17217 34.6061C5.26671 34.2185 6.3629 33.8356 7.45826 33.45C7.50856 33.4322 7.56706 33.4136 7.59959 33.3755C7.63212 33.3374 7.63677 33.2746 7.65344 33.2227C7.79915 33.1854 7.94512 33.1482 8.09083 33.1107C8.15315 33.134 8.22505 33.191 8.27617 33.176C8.76303 33.0315 9.24961 32.8851 9.72991 32.7195C10.3827 32.4947 11.027 32.2449 11.6798 32.0204C12.9862 31.5711 14.2967 31.1337 15.6042 30.6872C16.0509 30.5347 16.4946 30.3716 16.9377 30.2085C17.3562 30.0545 17.7523 30.0473 18.1205 30.3482C18.1861 30.4018 18.2856 30.413 18.3693 30.4435C18.5106 30.5508 18.4723 30.7075 18.4773 30.8514C18.4896 31.2215 18.3469 31.4944 17.9956 31.635C17.8778 31.6822 17.763 31.7392 17.6432 31.78C16.6649 32.114 15.6843 32.4413 14.707 32.7789C14.2095 32.9506 13.721 33.149 13.2229 33.3188C11.0571 34.0571 8.8885 34.7873 6.72237 35.5253C6.10402 35.7359 5.49196 35.9665 4.87471 36.181C4.37856 36.3536 3.8794 36.5164 3.38078 36.6817C3.15471 36.7568 3.00764 36.9057 2.96336 37.1455C2.88381 37.5778 2.80891 38.011 2.73209 38.4436C2.52297 38.4939 2.51231 38.5162 2.62493 38.6665C2.62411 38.7773 2.62357 38.8882 2.62275 38.9991C2.48424 39.0441 2.43422 39.1231 2.47267 39.2361C2.48415 39.2692 2.50055 39.3008 2.51477 39.3331C2.51477 39.5181 2.51449 39.7029 2.51422 39.888C2.52898 40.0091 2.57354 40.1163 2.71432 40.0897C2.85592 40.063 2.99315 40.0088 3.13011 39.9602C3.81488 39.716 4.49528 39.4587 5.18388 39.2264C6.1997 38.8838 7.22317 38.5648 8.23899 38.223C9.01397 37.9624 9.7813 37.6781 10.5541 37.4106C12.4783 36.7445 14.4036 36.0821 16.3283 35.4175C16.4311 35.3819 16.5408 35.3538 16.6301 35.2955C16.6807 35.2624 16.6963 35.1746 16.7277 35.1113L16.7283 35.1121ZM68.4912 9.49406C68.2766 9.42265 68.1131 9.5388 67.9486 9.59492C65.6059 10.3943 63.2681 11.2073 60.9253 12.0065C57.7737 13.0815 54.6186 14.1454 51.4664 15.2182C50.9673 15.3883 50.478 15.5883 49.9788 15.7592C46.4486 16.9676 42.917 18.1716 39.3862 19.3781C35.8383 20.5904 32.2908 21.8043 28.7429 23.0172C27.3648 23.4882 25.9882 23.9627 24.6074 24.4257C24.076 24.6038 23.6077 24.8741 23.2548 25.3181C23.0501 25.5757 22.8349 25.8388 22.6972 26.1345C22.4648 26.633 22.2658 27.1517 22.3019 27.7263C22.3145 27.9292 22.306 28.1337 22.3038 28.3374C22.2956 29.0812 22.6206 29.703 23.0599 30.2504C23.4016 30.6761 23.8024 31.0506 24.2977 31.3213C25.0489 31.732 25.8198 31.9098 26.653 31.6869C27.0201 31.5889 27.3774 31.4516 27.7374 31.3277C30.3018 30.4455 32.8652 29.5608 35.4304 28.6813C35.7568 28.5694 36.0947 28.4924 36.4211 28.381C37.1269 28.1398 37.8275 27.8828 38.5325 27.6394C41.0272 26.7783 43.5222 25.9189 46.0186 25.0631C46.3794 24.9394 46.7509 24.8486 47.1118 24.7243C47.7998 24.4879 48.4813 24.2311 49.1699 23.9958C51.0818 23.3423 52.9967 22.6979 54.9086 22.0444C55.5456 21.8266 56.1664 21.5534 56.8126 21.3723C58.0791 21.0172 59.3016 20.5573 60.4672 19.9421C61.3756 19.4628 62.2186 18.8943 62.9168 18.1205C63.396 17.5895 63.7074 16.9771 63.8399 16.2713C63.8522 16.2063 63.8203 16.1327 63.8033 16.0288C63.6243 16.0777 63.4684 16.1116 63.3184 16.163C60.5459 17.1118 57.7743 18.0635 55.0024 19.013C51.438 20.2341 47.8733 21.4539 44.309 22.6743C40.951 23.8238 37.5941 24.9764 34.2347 26.1217C31.8226 26.9442 29.4079 27.7588 26.9931 28.5732C26.4537 28.7552 26.021 28.561 25.7769 28.0556C25.6629 27.82 25.6692 27.5952 25.7889 27.366C25.9423 27.0723 26.1798 26.89 26.4871 26.7836C27.4324 26.4551 28.373 26.1123 29.3202 25.7899C32.0071 24.8758 34.6975 23.9714 37.3847 23.0578C38.0219 22.841 38.6498 22.5965 39.2862 22.3773C41.6265 21.5709 43.9686 20.771 46.3094 19.9666C49.0291 19.0321 51.7477 18.0946 54.468 17.1621C54.8288 17.0385 55.2006 16.9479 55.5611 16.8237C56.5592 16.4805 57.552 16.1216 58.5504 15.7801C60.4964 15.1143 62.4477 14.4633 64.3919 13.792C65.6827 13.346 66.857 12.7036 67.7687 11.6355C68.108 11.2382 68.3745 10.8036 68.5087 10.2951C68.579 10.0292 68.5934 9.75553 68.4915 9.4949L68.4912 9.49406Z" fill="#383838"/>
<path d="M292.362 45.3333V41.8789C292.705 41.6194 293.095 41.4638 293.465 41.2771C293.838 41.0887 294.226 40.932 294.603 40.75C294.98 40.5677 295.346 40.3601 295.726 40.1848C296.098 40.0134 296.432 39.7447 296.831 39.6847C296.998 39.8255 296.952 39.9836 296.952 40.1237C296.956 41.3615 296.955 42.5991 296.955 43.837C296.955 44.3357 296.955 44.8345 296.956 45.3333C296.976 45.4341 296.997 45.535 297.025 45.6667H301V47.0001C299.744 47.0065 298.488 47.0124 297.232 47.0213C297.2 47.0213 297.169 47.0526 297.102 47.0885C297.091 47.1707 297.072 47.276 297.066 47.3825C297.058 47.5117 297.063 47.6414 297.063 47.7712C297.063 51.8802 297.064 55.9891 297.063 60.0981C297.063 60.7303 297.18 61.3438 297.368 61.9403C297.449 62.1993 297.588 62.4449 297.73 62.6775C298.164 63.3846 298.739 63.9359 299.515 64.2385C299.75 64.3302 300.001 64.3785 300.246 64.4466C300.496 64.5161 300.555 64.57 300.557 64.822C300.559 65.1507 300.597 65.4833 300.521 65.8318C300.225 65.9246 299.938 65.8993 299.653 65.8579C299.546 65.8423 299.442 65.7884 299.336 65.7842C298.318 65.7437 297.385 65.3825 296.473 64.9704C295.943 64.7309 295.434 64.4386 294.935 64.1368C294.187 63.685 293.597 63.0601 293.174 62.2896C292.981 61.9376 292.825 61.5569 292.705 61.1726C292.438 60.3249 292.354 59.451 292.357 58.5588C292.371 54.9497 292.363 51.3403 292.361 47.7309C292.361 47.5131 292.393 47.2899 292.306 47.0465C292.182 47.031 292.06 47.0035 291.938 47.0024C291.429 46.9974 290.918 47.0024 290.408 46.9987C290.248 46.9976 290.088 46.981 289.895 46.9693C289.858 46.513 289.748 46.086 289.957 45.6659C290.351 45.6661 290.746 45.6767 291.14 45.6639C291.529 45.6511 291.924 45.7234 292.322 45.6108C292.336 45.5103 292.349 45.4219 292.362 45.3333Z" fill="#383838"/>
<path d="M144.324 46.0001C144.333 46.1274 144.325 46.2594 144.355 46.3813C144.469 46.8331 144.46 47.2791 144.359 47.7331C144.315 47.926 144.334 48.1327 144.324 48.3333C144.324 48.5925 144.324 48.8518 144.324 49.111C144.341 49.4142 144.306 49.7106 144.214 49.9999C144.214 50.0741 144.214 50.148 144.214 50.2222C144.019 51.4953 143.807 52.7651 143.356 53.9772C143.209 54.3737 143.049 54.7663 142.879 55.1533C142.695 55.5735 142.492 55.9839 142.284 56.3932C141.939 57.07 141.503 57.6821 141.089 58.3098C140.849 58.6744 140.526 58.982 140.24 59.3157C140.145 59.4268 140.054 59.5421 139.955 59.6502C139.846 59.7703 139.734 59.8878 139.617 59.9998C139.538 60.0751 139.437 60.1284 139.364 60.2087C138.62 61.0334 137.713 61.6527 136.792 62.2393C136.304 62.55 135.814 62.8712 135.254 63.0651C134.809 63.219 134.391 63.4538 133.962 63.655C133.053 64.0815 132.101 64.3838 131.14 64.6614C130.235 64.9231 129.315 65.1299 128.39 65.2924C127.751 65.4047 127.116 65.5875 126.456 65.5569C125.88 65.7653 125.266 65.6003 124.677 65.7545C124.351 65.8395 123.988 65.7731 123.643 65.7784C123.353 65.7826 123.063 65.7556 122.779 65.8637C122.665 65.9068 122.527 65.8876 122.4 65.8879C120.615 65.8893 118.83 65.8898 117.044 65.8873C116.903 65.8873 116.763 65.8634 116.596 65.8484C116.579 65.7173 116.559 65.6117 116.553 65.5055C116.547 65.3763 116.551 65.2466 116.551 65.1168C116.551 53.3806 116.551 41.6444 116.551 29.9082C116.551 29.7601 116.54 29.6106 116.557 29.4644C116.567 29.3803 116.625 29.3022 116.66 29.2213C118.665 29.2213 120.669 29.2213 122.674 29.2213C123.036 29.2216 123.399 29.2202 123.761 29.223C124.014 29.2249 124.263 29.2185 124.513 29.3C124.679 29.3539 124.872 29.3261 125.052 29.333C125.484 29.3497 125.921 29.2805 126.345 29.4314C126.427 29.4606 126.525 29.4425 126.615 29.4442C126.868 29.4489 127.122 29.4225 127.365 29.5311C127.428 29.5592 127.508 29.5567 127.58 29.5531C128.144 29.5256 128.691 29.6384 129.239 29.7548C129.413 29.792 129.599 29.7726 129.78 29.7793C129.934 29.9607 130.143 29.8635 130.327 29.889C130.4 29.9257 130.473 29.9624 130.546 29.999C130.801 30.0363 131.056 30.0738 131.312 30.111C131.385 30.1477 131.457 30.1844 131.53 30.2213C131.792 30.2914 132.051 30.3722 132.315 30.4297C133.509 30.6895 134.634 31.1588 135.742 31.6545C136.973 32.2044 138.142 32.8735 139.155 33.7918C139.217 33.848 139.319 33.8582 139.402 33.8902C139.839 34.3348 140.277 34.7791 140.714 35.2236H140.714C140.757 35.3217 140.779 35.4398 140.847 35.5151C141.512 36.2567 142.003 37.1172 142.456 37.9969C143.183 39.4062 143.662 40.9086 143.978 42.4646C144.036 42.7511 144.064 43.044 144.105 43.3341C144.142 43.5194 144.178 43.7044 144.215 43.8898C144.215 44.0009 144.215 44.1121 144.215 44.2232C144.306 44.5125 144.341 44.8092 144.324 45.1121C144.324 45.4083 144.324 45.7048 144.324 46.001L144.324 46.0001ZM127.813 63.8873C128.026 64.0384 128.066 64.0284 128.25 63.7781C128.287 63.7775 128.323 63.7773 128.359 63.777C128.57 63.9267 128.601 63.9165 128.688 63.6675C128.761 63.667 128.833 63.6664 128.906 63.6661C129.015 63.812 129.159 63.7887 129.3 63.74C130.103 63.4647 130.907 63.1938 131.704 62.9039C131.941 62.8178 132.164 62.6847 132.382 62.5533C132.446 62.5144 132.471 62.408 132.514 62.3327C132.743 62.1379 132.963 61.9289 133.279 61.8887C133.46 61.9064 133.616 61.8381 133.767 61.7483C133.882 61.6797 133.931 61.5752 133.935 61.4435C133.995 61.3766 134.048 61.3001 134.117 61.2437C134.398 61.0126 134.693 60.7975 134.967 60.558C135.493 60.0987 135.934 59.5535 136.366 59.0089C137.204 57.9533 137.824 56.758 138.365 55.5251C138.6 54.9894 138.768 54.4184 138.918 53.8505C139.101 53.1589 139.263 52.4584 139.377 51.7521C139.441 51.3561 139.562 50.9596 139.514 50.5476C139.508 50.4934 139.507 50.432 139.526 50.3825C139.659 50.0249 139.611 49.6526 139.622 49.2847C139.628 49.1005 139.638 48.9162 139.655 48.7326C139.675 48.5136 139.732 48.2947 139.726 48.0771C139.698 47.1377 139.798 46.1968 139.635 45.2568C139.555 44.7909 139.586 44.3063 139.53 43.8275C139.447 43.1132 139.328 42.4085 139.17 41.7111C138.835 40.2282 138.322 38.8116 137.523 37.5168C137.186 36.9708 136.844 36.424 136.454 35.9172C136.055 35.3984 135.622 34.9088 135.127 34.4695C134.496 33.9091 133.837 33.4039 133.119 32.9613C131.974 32.2542 130.751 31.7529 129.455 31.4309C128.929 31.3003 128.407 31.1483 127.863 31.0946C127.559 31.0649 127.263 30.9616 126.96 30.9163C126.566 30.8574 126.17 30.7887 125.774 30.7843C124.39 30.7684 123.005 30.7773 121.621 30.7804C121.517 30.7804 121.414 30.8093 121.307 30.8254C121.219 31.0871 121.254 31.3286 121.254 31.5651C121.252 42.1898 121.252 52.8146 121.252 63.4394C121.252 63.5875 121.244 63.7364 121.256 63.8834C121.265 63.9873 121.304 64.0885 121.329 64.189C121.428 64.2021 121.499 64.2196 121.571 64.2199C122.573 64.2221 123.574 64.2221 124.576 64.2216C124.667 64.2216 124.767 64.2338 124.847 64.2013C125.128 64.0871 125.42 64.1176 125.71 64.1104C125.837 64.1074 125.966 64.1079 126.09 64.0829C126.659 63.9673 127.229 63.8662 127.813 63.8878V63.8873Z" fill="#383838"/>
<path d="M264.373 65.7787C264.116 65.8004 263.877 65.7317 263.632 65.6631C263.024 65.4922 262.418 65.311 261.866 64.9985C261.24 64.6433 260.601 64.3019 260.067 63.7998C259.994 63.7311 259.878 63.7097 259.781 63.6664C259.777 63.5222 259.704 63.4477 259.562 63.4438C259.482 63.3444 259.41 63.2363 259.321 63.1468C258.603 62.428 258.043 61.5944 257.602 60.6783C257.402 60.2646 257.191 59.8517 257.045 59.4177C256.86 58.8633 256.715 58.2957 256.589 57.7199C256.474 57.1917 256.56 56.6557 256.413 56.1314C256.334 55.8449 256.352 55.5098 256.45 55.2003C256.488 55.08 256.498 54.9466 256.498 54.8191C256.499 54.2272 256.584 53.6435 256.729 53.0761C257.08 51.706 257.688 50.4603 258.525 49.323C258.931 48.7707 259.409 48.2908 259.906 47.8362C260.361 47.4194 260.87 47.0546 261.427 46.7778C261.883 46.5511 262.346 46.3386 262.81 46.1271C263.225 45.9376 263.66 45.8237 264.115 45.7706C264.419 45.7353 264.716 45.6328 265.029 45.6656C265.138 45.6656 265.247 45.6656 265.357 45.6656C265.758 45.6656 266.158 45.6656 266.56 45.6656C266.778 45.6656 266.997 45.6656 267.216 45.6659C267.542 45.665 267.87 45.6492 268.182 45.7728C268.738 45.7387 269.247 45.9596 269.776 46.0688C270.227 46.1616 270.64 46.3397 271.042 46.5544C271.078 46.555 271.115 46.5553 271.151 46.5556C271.224 46.6692 271.297 46.67 271.37 46.555C271.37 40.8144 271.369 35.0736 271.369 29.333C271.37 29.2961 271.37 29.2594 271.37 29.2224C271.443 29.2219 271.516 29.2213 271.589 29.2208C272.827 29.221 274.066 29.2213 275.304 29.2219C275.432 29.2219 275.559 29.2177 275.687 29.2249C275.96 29.2405 276.05 29.325 276.067 29.5889C276.076 29.7365 276.07 29.8849 276.07 30.033C276.07 41.7483 276.07 53.4634 276.07 65.1788C276.07 65.3805 276.07 65.5822 276.07 65.7995C275.956 65.8348 275.873 65.882 275.79 65.8823C274.387 65.8857 272.985 65.8832 271.583 65.8807C271.548 65.8807 271.513 65.8623 271.444 65.8431C271.423 65.7584 271.382 65.6578 271.375 65.555C271.362 65.3708 271.37 65.1852 271.369 65.0001C271.368 64.9662 271.373 64.9312 271.366 64.8984C271.32 64.6547 271.27 64.6367 271.042 64.7776C270.706 64.9118 270.363 65.0301 270.037 65.1841C269.506 65.4347 268.942 65.55 268.376 65.6689C268.02 65.7437 267.652 65.7301 267.303 65.7931C266.4 65.9565 265.495 65.8537 264.592 65.887C264.519 65.8509 264.446 65.8151 264.373 65.779V65.7787ZM271.37 63.3457V62.8203C271.37 58.2331 271.37 53.646 271.37 49.0585C271.37 48.9846 271.364 48.9099 271.371 48.8368C271.405 48.512 271.253 48.3025 270.97 48.1896C270.565 48.0288 270.152 47.8865 269.746 47.7281C269.177 47.5064 268.562 47.5931 267.982 47.4483C267.931 47.4355 267.873 47.4461 267.819 47.4547C267.392 47.5233 266.964 47.5934 266.537 47.6642C265.956 47.7609 265.413 47.974 264.922 48.2961C264.482 48.585 264.066 48.9151 263.652 49.2427C263.512 49.3542 263.406 49.5117 263.288 49.6515C263.206 49.749 263.129 49.8518 263.052 49.9535C262.875 50.1861 262.678 50.4067 262.526 50.6556C262.221 51.1569 261.948 51.6754 261.738 52.2308C261.345 53.2731 261.138 54.3509 261.1 55.4596C261.081 56.0092 261.028 56.5677 261.194 57.1109C261.22 57.1956 261.197 57.2948 261.203 57.3871C261.211 57.4971 261.212 57.6096 261.238 57.7158C261.465 58.6474 261.714 59.5691 262.172 60.4213C262.68 61.3654 263.249 62.2449 264.109 62.914C264.677 63.3566 265.273 63.7256 265.949 63.9615C266.378 64.1115 266.824 64.1838 267.269 64.2694C267.671 64.3466 268.07 64.361 268.46 64.3127C268.979 64.2485 269.496 64.134 269.997 63.9848C270.463 63.8459 270.926 63.6708 271.371 63.3455L271.37 63.3457Z" fill="#383838"/>
<path d="M191.665 59.1109C191.628 58.9998 191.591 58.8889 191.554 58.7777C191.538 58.7063 191.53 58.6313 191.503 58.5638C190.982 57.2465 190.46 55.9297 189.933 54.6146C189.908 54.5518 189.842 54.5057 189.806 54.4631C189.728 54.4559 189.674 54.4465 189.62 54.4465C185.758 54.4454 181.895 54.4448 178.033 54.4468C177.928 54.4468 177.823 54.4754 177.702 54.4929C177.468 55.1039 177.233 55.7021 177.008 56.3045C176.661 57.2359 176.325 58.1717 175.975 59.102C175.56 60.2043 175.134 61.3027 174.715 62.403C174.432 63.1424 174.137 63.8773 173.877 64.6247C173.745 65.0043 173.51 65.3533 173.514 65.7776C173.441 65.8151 173.369 65.8526 173.296 65.8901C172.568 65.8901 171.838 65.8901 171.11 65.8901C170.968 65.8859 170.895 65.8126 170.892 65.6675C171.008 65.4005 171.132 65.1368 171.237 64.8656C171.496 64.1965 171.748 63.5241 172.001 62.8523C172.227 62.2496 172.451 61.6455 172.678 61.0428C172.924 60.3882 173.172 59.7344 173.419 59.0803C173.739 58.237 174.058 57.394 174.377 56.5507C174.598 55.9655 174.818 55.3795 175.039 54.7944C175.339 54.0027 175.64 53.2119 175.94 52.4206C176.195 51.7496 176.448 51.078 176.702 50.4067C176.995 49.6323 177.288 48.8579 177.581 48.0835C177.836 47.4122 178.09 46.7412 178.344 46.0699C178.637 45.2955 178.929 44.5208 179.222 43.7464C179.477 43.0751 179.73 42.4038 179.986 41.7333C180.268 40.9942 180.558 40.2579 180.835 39.5166C181.189 38.5682 181.528 37.6143 181.883 36.6666C182.297 35.564 182.722 34.4656 183.143 33.3656C183.491 32.4545 183.845 31.5459 184.186 30.632C184.359 30.1672 184.508 29.6931 184.668 29.2233H184.668C184.74 29.2233 184.813 29.2233 184.885 29.2233H184.885C184.93 29.4197 184.951 29.6256 185.022 29.8112C185.468 30.9604 185.927 32.1047 186.378 33.2517C186.97 34.7582 187.56 36.2659 188.151 37.7733C188.634 39.0064 189.116 40.2398 189.599 41.473C189.996 42.4833 190.395 43.4924 190.79 44.5036C191.164 45.4633 191.533 46.4255 191.907 47.3855C192.3 48.3969 192.696 49.4075 193.093 50.4172C193.564 51.6156 194.038 52.8132 194.512 54.0105C194.83 54.8146 195.156 55.6154 195.47 56.4212C195.997 57.7752 196.515 59.1331 197.041 60.4877C197.508 61.688 197.978 62.8867 198.451 64.084C198.661 64.6142 198.883 65.1393 199.1 65.667C199.1 65.7409 199.099 65.8145 199.099 65.8884C197.568 65.889 196.038 65.8895 194.507 65.8901C194.398 65.7787 194.288 65.6673 194.178 65.5558C194.222 65.3291 194.049 65.1832 193.98 64.9985C193.865 64.6898 193.778 64.3699 193.659 64.0632C193.174 62.812 192.686 61.5622 192.191 60.3154C192.029 59.9086 191.841 59.5124 191.665 59.1112L191.665 59.1109ZM184.012 38.5554C184.001 38.4068 183.959 38.274 183.832 38.1826C183.749 38.2902 183.699 38.4144 183.682 38.5552C183.525 38.6766 183.5 38.8641 183.439 39.0372C183.179 39.765 182.912 40.4899 182.646 41.2148C182.201 42.423 181.753 43.63 181.308 44.8384C181.054 45.5289 180.807 46.2218 180.553 46.9121C180.171 47.9474 179.786 48.9815 179.401 50.0157C179.1 50.826 178.793 51.634 178.495 52.4456C178.427 52.6301 178.328 52.8127 178.356 53.0074C178.403 53.0463 178.431 53.0883 178.458 53.0886C182.007 53.0977 185.555 53.1039 189.104 53.1077C189.171 53.1077 189.238 53.078 189.338 53.0547C189.291 52.8763 189.26 52.7165 189.206 52.5648C188.918 51.7496 188.628 50.9352 188.331 50.123C187.883 48.8965 187.428 47.6723 186.978 46.4466C186.73 45.7734 186.488 45.0982 186.24 44.4255C185.857 43.3905 185.47 42.3571 185.088 41.3218C184.821 40.5969 184.564 39.868 184.293 39.1448C184.217 38.9417 184.106 38.7516 184.012 38.5554H184.012Z" fill="#383838"/>
<path d="M212.876 29.221C214.179 29.188 215.435 29.4364 216.653 29.8935C217.355 30.1571 217.997 30.5431 218.599 30.9935C218.872 31.1983 219.064 31.4545 219.003 31.8418C218.969 32.056 219.02 32.2814 218.955 32.5378C218.831 32.507 218.704 32.5151 218.644 32.4542C218.081 31.8821 217.398 31.5009 216.69 31.1622C216.111 30.8857 215.495 30.7423 214.862 30.6651C214.737 30.6498 214.613 30.619 214.488 30.602C214.345 30.5828 214.194 30.5367 214.058 30.5631C213.509 30.669 212.943 30.6801 212.409 30.8782C212.01 31.026 211.657 31.2427 211.332 31.5134C210.487 32.2164 209.972 33.1458 209.64 34.1761C209.496 34.6237 209.336 35.0872 209.376 35.5793C209.165 36.6229 209.282 37.6788 209.273 38.7285C209.254 40.967 209.267 43.2057 209.268 45.4441C209.317 45.5136 209.354 45.6242 209.418 45.6439C209.535 45.6797 209.668 45.6656 209.794 45.6656C210.93 45.6664 212.067 45.6656 213.204 45.6653C213.238 45.7278 213.301 45.7892 213.302 45.8526C213.312 46.2016 213.307 46.5511 213.307 46.8631C213.139 47.0432 212.966 46.9968 212.808 46.9974C211.843 47.0015 210.878 46.9993 209.912 46.9993C209.732 46.9993 209.552 46.9993 209.351 46.9993C209.319 47.1346 209.28 47.236 209.272 47.34C209.26 47.5056 209.268 47.6728 209.268 47.8393C209.268 53.6129 209.268 59.3868 209.266 65.1604C209.266 65.378 209.298 65.6014 209.208 65.8498C208.833 65.9254 208.452 65.879 208.076 65.8868C207.694 65.8945 207.311 65.8884 206.929 65.8884C206.547 65.8884 206.164 65.8934 205.782 65.887C205.404 65.8806 205.023 65.919 204.62 65.8526C204.6 65.7267 204.575 65.6222 204.57 65.5167C204.562 65.3505 204.567 65.1838 204.567 65.0171C204.567 59.2618 204.567 53.5068 204.567 47.7515C204.567 47.5322 204.56 47.313 204.555 47.0665C204.404 47.0407 204.284 47.0043 204.163 47.0026C203.672 46.996 203.18 47.001 202.688 46.9987C202.508 46.9979 202.329 46.989 202.157 46.9843C201.996 46.7614 202.066 46.5322 202.055 46.318C202.046 46.1524 202.051 45.9843 202.069 45.8195C202.081 45.7156 202.176 45.6817 202.27 45.6653C202.754 45.6656 203.238 45.6667 203.722 45.6661C203.937 45.6658 204.152 45.6645 204.367 45.6583C204.499 45.6547 204.547 45.5611 204.566 45.4441C204.566 42.6675 204.566 39.8905 204.567 37.1139C204.567 36.8561 204.546 36.5971 204.649 36.3473C204.683 36.2664 204.671 36.165 204.674 36.0728C204.722 34.6076 205.22 33.3036 206.048 32.1199C206.527 31.4359 207.12 30.8632 207.822 30.4292C208.6 29.9485 209.423 29.5556 210.324 29.3633C210.377 29.3519 210.432 29.3366 210.485 29.3375C210.759 29.3411 211.025 29.3075 211.293 29.2397C211.483 29.1919 211.691 29.2241 211.892 29.2208C212.22 29.2208 212.548 29.2208 212.876 29.2208L212.876 29.221Z" fill="#383838"/>
<path d="M242.287 45.6656C242.962 45.6347 243.618 45.7653 244.283 45.8606C245.62 46.0524 246.843 46.5433 248.01 47.1957C248.613 47.5331 249.181 47.9365 249.667 48.4436C249.755 48.5364 249.844 48.6301 249.937 48.7181C250.762 49.495 251.391 50.415 251.855 51.4514C252.277 52.3948 252.552 53.3767 252.693 54.4109C252.777 55.0216 252.795 55.6257 252.775 56.2314C252.74 57.3037 252.543 58.3504 252.167 59.3579C251.895 60.0856 251.548 60.7758 251.142 61.4338C250.988 61.6822 250.798 61.9075 250.62 62.1401C250.487 62.3143 250.347 62.4835 250.21 62.6541C250.176 62.6969 250.142 62.7431 250.101 62.7778C249.4 63.3594 248.739 63.9915 247.923 64.4208C247.291 64.7528 246.648 65.0629 245.972 65.2738C245.422 65.4455 244.854 65.5706 244.285 65.6864C243.765 65.7923 243.228 65.6975 242.725 65.884C242.033 65.884 241.334 65.9429 240.65 65.8662C240.058 65.7998 239.456 65.7976 238.874 65.6578C238.274 65.5139 237.666 65.3922 237.099 65.1363C236.501 64.8659 235.897 64.6033 235.325 64.2852C234.866 64.0304 234.432 63.7211 234.05 63.3496C233.905 63.209 233.77 63.0576 233.623 62.9192C232.285 61.658 231.522 60.0673 231.074 58.3009C230.988 57.9647 230.991 57.606 230.908 57.269C230.752 56.6291 230.824 55.9822 230.809 55.3381C230.802 55.0805 230.833 54.8285 230.88 54.571C230.946 54.2122 230.95 53.8407 231.025 53.4787C231.23 52.4759 231.598 51.539 232.089 50.6468C232.364 50.1458 232.704 49.6881 233.057 49.248C233.364 48.8648 233.753 48.5495 234.112 48.2108C234.581 47.7687 235.124 47.4314 235.675 47.1107C236.546 46.6036 237.468 46.2246 238.451 46.004C238.592 45.9723 238.733 45.939 238.875 45.9118C239.213 45.8465 239.558 45.8145 239.893 45.7542C240.329 45.6756 240.759 45.6772 241.194 45.6659C241.558 45.6659 241.923 45.6659 242.287 45.6659L242.287 45.6656ZM235.508 55.9072C235.508 56.1848 235.526 56.4637 235.504 56.7394C235.466 57.2259 235.575 57.6955 235.66 58.1628C235.794 58.9044 235.997 59.6308 236.285 60.3304C236.595 61.0862 237.007 61.7883 237.519 62.4091C238.018 63.0145 238.608 63.5283 239.293 63.9429C240.465 64.6522 241.695 64.8428 243.005 64.5397C243.355 64.4588 243.701 64.3208 244.021 64.154C244.341 63.9876 244.652 63.7828 244.92 63.5405C245.368 63.1368 245.829 62.7306 246.189 62.2513C246.661 61.6244 247.058 60.94 247.338 60.1887C247.706 59.2012 248.016 58.1903 248.06 57.1425C248.104 56.1342 248.152 55.1186 247.988 54.1033C247.806 52.9835 247.522 51.9102 246.998 50.9049C246.448 49.8518 245.787 48.8957 244.823 48.1838C244.186 47.7131 243.521 47.3358 242.725 47.1907C241.955 47.0504 241.217 47.1127 240.469 47.3016C239.816 47.4664 239.277 47.8343 238.743 48.2185C238.342 48.5072 237.96 48.8265 237.658 49.2216C236.896 50.2202 236.285 51.3042 235.938 52.5281C235.681 53.4328 235.462 54.3426 235.507 55.2959C235.516 55.499 235.508 55.703 235.508 55.9063V55.9072Z" fill="#383838"/>
<path d="M157.007 45.6686C157.225 45.6678 157.443 45.6667 157.662 45.6658C158.245 45.6658 158.828 45.6658 159.411 45.6658C159.593 45.6667 159.775 45.6678 159.956 45.6686C160.036 45.7978 160.165 45.7739 160.286 45.7778C160.322 45.9193 160.386 46.0599 160.389 46.2018C160.4 46.757 160.392 47.3127 160.389 47.8682C160.388 47.9207 160.364 47.9732 160.354 48.0132C160.236 48.1332 160.115 48.1063 159.989 48.0677C159.642 47.9612 159.293 47.8604 158.946 47.7526C158.257 47.5389 157.549 47.5353 156.841 47.5622C156.645 47.5697 156.45 47.635 156.256 47.6814C155.974 47.7492 155.695 47.827 155.413 47.8959C154.947 48.0099 154.529 48.2413 154.118 48.4761C153.772 48.6739 153.449 48.916 153.121 49.146C153.017 49.2188 152.932 49.3183 152.836 49.4033C152.69 49.5334 152.617 49.6915 152.63 49.8929C152.639 50.0218 152.632 50.1522 152.632 50.2816C152.632 55.2442 152.632 60.2068 152.63 65.1693C152.63 65.3866 152.663 65.61 152.59 65.8001C152.528 65.8342 152.497 65.8662 152.466 65.8665C150.955 65.8754 149.443 65.8818 147.931 65.8881C147.931 59.3832 147.931 52.8782 147.931 46.3733C147.931 46.2624 147.925 46.151 147.933 46.0407C147.941 45.9351 147.962 45.8303 147.974 45.7481C148.042 45.7145 148.073 45.6853 148.105 45.685C149.578 45.677 151.05 45.6714 152.523 45.6658C152.614 45.8287 152.637 46.0043 152.634 46.1899C152.627 46.5708 152.632 46.9521 152.632 47.333C152.641 47.4536 152.65 47.5745 152.662 47.7242C152.744 47.677 152.793 47.6559 152.834 47.6248C153.812 46.8909 154.86 46.2941 156.032 45.942C156.134 45.9115 156.244 45.9048 156.35 45.8873C156.459 45.8503 156.568 45.8134 156.678 45.7767C156.798 45.7739 156.927 45.7973 157.007 45.6683L157.007 45.6686Z" fill="#383838"/>
<path d="M228.511 45.6656C228.892 45.6645 229.274 45.6522 229.644 45.7809C229.848 45.852 229.925 45.9134 229.925 46.1296C229.928 46.7565 229.954 47.3844 229.906 48.0491C229.794 48.0641 229.687 48.1068 229.595 48.0852C229.401 48.0396 229.216 47.9568 229.025 47.8951C228.169 47.617 227.291 47.51 226.394 47.5592C226.287 47.565 226.181 47.5992 226.076 47.6245C225.705 47.7134 225.336 47.8076 224.965 47.8935C224.497 48.0018 224.08 48.2347 223.669 48.4686C223.306 48.6751 222.967 48.9263 222.626 49.1691C222.508 49.253 222.413 49.3697 222.309 49.4734C222.213 49.5687 222.166 49.6845 222.169 49.8223C222.172 49.9704 222.169 50.1185 222.169 50.2666C222.169 55.2295 222.169 60.1923 222.167 65.1552C222.167 65.3733 222.199 65.5967 222.116 65.829C222.045 65.8481 221.978 65.8818 221.91 65.882C220.525 65.8857 219.14 65.8862 217.755 65.8845C217.686 65.8845 217.617 65.8595 217.519 65.8406C217.502 65.7292 217.478 65.6247 217.47 65.5192C217.461 65.4088 217.467 65.2972 217.467 65.186C217.467 58.8897 217.467 52.5937 217.467 46.2974C217.467 46.1493 217.461 46.0001 217.478 45.8537C217.485 45.7881 217.542 45.7281 217.576 45.6656C219.034 45.6656 220.492 45.6656 221.95 45.6656C222.121 45.7467 222.17 45.8918 222.169 46.0724C222.165 46.4589 222.165 46.8456 222.17 47.2321C222.171 47.355 222.192 47.4772 222.203 47.58C222.338 47.6556 222.401 47.575 222.475 47.5286C222.981 47.2099 223.469 46.8562 223.998 46.582C224.754 46.1902 225.545 45.8918 226.398 45.7639C226.775 45.7075 227.147 45.6636 227.526 45.6656C227.854 45.6656 228.182 45.6656 228.51 45.6656H228.511Z" fill="#383838"/>
<path d="M285.912 45.6656C286.034 45.727 286.117 45.8209 286.124 45.964C286.13 46.1118 286.129 46.2599 286.129 46.408C286.129 52.6629 286.129 58.9178 286.129 65.1727C286.129 65.375 286.129 65.5772 286.129 65.7948C286.019 65.8312 285.937 65.8818 285.855 65.882C284.471 65.8868 283.087 65.8862 281.703 65.8834C281.635 65.8834 281.566 65.8551 281.471 65.8343C281.456 65.7173 281.438 65.612 281.431 65.5055C281.424 65.395 281.429 65.2835 281.429 65.1727C281.429 58.8808 281.429 52.589 281.429 46.2971C281.429 46.149 281.423 46.0001 281.44 45.8537C281.447 45.7881 281.504 45.7284 281.538 45.6659C282.996 45.6659 284.454 45.6659 285.912 45.6659V45.6656Z" fill="#383838"/>
<path d="M160.176 65.4439C160.14 65.4069 160.104 65.3699 160.067 65.333C159.885 65.1477 159.702 64.9623 159.52 64.7773C159.484 64.7403 159.448 64.7034 159.411 64.6664C159.375 64.5922 159.338 64.5183 159.302 64.4441C159.297 64.3221 159.322 64.1904 159.193 64.1107C159.192 63.9995 159.192 63.8887 159.191 63.7775C159.107 63.4441 158.993 63.111 159.19 62.7775C159.22 62.443 159.319 62.134 159.502 61.8511C159.56 61.7625 159.588 61.6547 159.63 61.5558C159.739 61.4446 159.848 61.3338 159.958 61.2226C160.054 61.1807 160.157 61.1487 160.247 61.0951C160.495 60.9478 160.735 60.7867 161.034 60.7611C161.079 60.7572 161.119 60.7002 161.161 60.6677C161.373 60.6677 161.586 60.6536 161.796 60.6716C161.95 60.6847 162.101 60.74 162.254 60.7764C162.632 60.8439 162.974 61.004 163.272 61.2435C163.83 61.6908 164.2 62.2501 164.224 63.0001C164.223 63.2218 164.233 63.4441 164.219 63.6647C164.195 64.0198 164.088 64.3463 163.87 64.6345C163.499 65.1268 163.054 65.5155 162.454 65.6842C162.282 65.7326 162.102 65.762 161.924 65.7745C161.707 65.7901 161.488 65.7787 161.27 65.7792C161.053 65.794 160.855 65.7451 160.662 65.6411C160.509 65.5589 160.339 65.5086 160.176 65.4441L160.176 65.4439Z" fill="#383838"/>
<path d="M283.557 42.7622C283.052 42.8948 282.601 42.665 282.208 42.3699C281.788 42.0537 281.408 41.665 281.271 41.1159C281.201 40.8322 281.093 40.5346 281.12 40.2554C281.161 39.8411 281.215 39.4121 281.417 39.0317C281.89 38.1381 282.656 37.6732 283.626 37.683C284.644 37.693 285.486 38.1339 286 39.0795C286.15 39.3548 286.251 39.6519 286.24 39.9761C286.226 40.3793 286.279 40.7842 286.132 41.1798C285.987 41.5724 285.732 41.8703 285.428 42.1337C285.29 42.2524 285.147 42.3679 284.993 42.4616C284.559 42.725 284.088 42.8375 283.557 42.7625L283.557 42.7622Z" fill="#383838"/>
<path d="M23.3977 22.8889C23.5603 22.815 23.7183 22.7278 23.8864 22.6697C24.952 22.3018 26.0203 21.9414 27.0873 21.5766C30.7692 20.3176 34.4503 19.0567 38.1325 17.7988C41.6425 16.5996 45.1544 15.4053 48.6635 14.2042C49.4374 13.9394 50.2015 13.6448 50.9754 13.3809C53.7278 12.442 56.4831 11.512 59.2361 10.5745C60.0447 10.2991 60.847 10.0051 61.6554 9.72812C63.3229 9.15684 64.9915 8.58945 66.6615 8.02568C66.849 7.96233 67.0475 7.93315 67.241 7.88814C67.2268 7.98261 67.2003 8.06319 67.0953 8.09764C66.1276 8.41357 65.1574 8.72199 64.1944 9.05181C62.3361 9.68783 60.4816 10.3352 58.6265 10.9807C58.0943 11.1658 57.5686 11.37 57.0344 11.5492C56.035 11.8846 55.0288 12.1986 54.0307 12.5384C52.0855 13.2011 50.1438 13.8743 48.2015 14.5456C47.4282 14.8129 46.6592 15.093 45.8845 15.3553C45.024 15.6468 44.156 15.916 43.296 16.2097C41.3513 16.8738 39.4091 17.546 37.4668 18.2175C36.6938 18.4848 35.9256 18.768 35.1506 19.0297C34.2726 19.3262 33.3858 19.596 32.5086 19.8955C30.5811 20.5538 28.6566 21.2218 26.7324 21.8897C26.1657 22.0865 25.6056 22.3032 25.0381 22.4969C24.557 22.6611 24.0707 22.8092 23.5833 22.9537C23.5322 22.9689 23.4603 22.912 23.3979 22.8884L23.3977 22.8889Z" fill="#383838"/>
<path d="M2.51466 39.8889C2.65763 39.8705 2.8088 39.8764 2.94275 39.8305C4.16496 39.4115 5.38252 38.9786 6.60445 38.5596C7.9647 38.0934 9.3296 37.641 10.6899 37.175C11.3265 36.9569 11.9547 36.7132 12.5914 36.4948C13.8983 36.0461 15.2083 35.6062 16.5174 35.1639C16.5858 35.1408 16.6579 35.1289 16.7282 35.1117C16.6967 35.1747 16.6812 35.2628 16.6306 35.2959C16.5412 35.3542 16.4316 35.3826 16.3288 35.4179C14.404 36.0825 12.4787 36.7449 10.5545 37.4109C9.78175 37.6785 9.01442 37.9628 8.23943 38.2234C7.22334 38.5652 6.19987 38.8841 5.18433 39.2267C4.49573 39.459 3.81532 39.7163 3.13055 39.9606C2.9936 40.0095 2.85637 40.0634 2.71477 40.0901C2.57426 40.1167 2.52943 40.0095 2.51466 39.8883V39.8889Z" fill="#383838"/>
<path d="M8.09073 33.1111C8.23534 33.0416 8.37475 32.9566 8.52537 32.9052C9.64152 32.5242 10.7615 32.1544 11.8771 31.7723C12.5463 31.5431 13.2078 31.2919 13.8765 31.0616C14.9218 30.7015 15.9715 30.355 17.016 29.9927C17.2446 29.9132 17.4742 29.8548 17.7085 29.896C18.0209 29.951 18.3104 30.061 18.3689 30.4442C18.285 30.4136 18.1858 30.4025 18.1201 30.3489C17.7519 30.0479 17.3558 30.0552 16.9373 30.2091C16.4939 30.3722 16.0505 30.535 15.6038 30.6879C14.2963 31.1344 12.9858 31.5717 11.6794 32.021C11.0266 32.2455 10.3823 32.4953 9.72954 32.7201C9.24924 32.8854 8.76265 33.0322 8.27579 33.1766C8.22468 33.1919 8.15278 33.135 8.09045 33.1113L8.09073 33.1111Z" fill="#383838"/>
<path d="M12.683 26.5555C12.8453 26.4819 13.0031 26.3944 13.1706 26.3366C14.3548 25.9295 15.5423 25.5313 16.7268 25.1248C18.7352 24.4358 20.7422 23.7428 22.7501 23.0526C22.8182 23.0292 22.8901 23.0176 22.9603 23.0006C22.9289 23.0637 22.9133 23.1518 22.863 23.1848C22.7736 23.2432 22.664 23.2712 22.5612 23.3068C20.5173 24.0126 18.4728 24.7164 16.4291 25.4235C15.7255 25.6672 15.0262 25.9248 14.3215 26.1649C13.8406 26.3285 13.3546 26.4763 12.868 26.6208C12.8169 26.6361 12.745 26.5792 12.683 26.5555Z" fill="#383838"/>
<path d="M5.9041 28.7781C6.07959 28.7381 6.26357 28.7198 6.42923 28.6542C7.30754 28.3072 8.20444 28.021 9.106 27.7428C9.98923 27.4702 10.8522 27.1301 11.7254 26.8234C11.8959 26.7634 12.0717 26.7192 12.2453 26.6675C12.2141 26.7306 12.1936 26.8037 12.148 26.8534C12.1154 26.889 12.0496 26.8929 11.9982 26.9106C10.0453 27.5864 8.09209 28.2613 6.14001 28.9396C6.04296 28.9732 5.96724 28.9785 5.90355 28.8884C5.90355 28.8518 5.90355 28.8148 5.90382 28.7781H5.9041Z" fill="#383838"/>
<path d="M17.1656 35C17.3102 34.9305 17.4496 34.8455 17.6002 34.7941C18.7163 34.4131 19.8358 34.0427 20.9519 33.6612C21.5008 33.4737 22.0434 33.2669 22.5913 33.0758C22.7091 33.0347 22.837 33.0244 22.9603 32.9999C22.9496 33.1238 22.8887 33.1919 22.7665 33.2311C22.2996 33.3814 21.8349 33.5387 21.3721 33.701C20.5153 34.0016 19.6622 34.3131 18.8035 34.609C18.3235 34.7743 17.8372 34.9208 17.3506 35.065C17.2995 35.0803 17.2276 35.0233 17.1656 34.9997V35Z" fill="#383838"/>
<path d="M3.93561 34.5546C4.24752 34.4173 4.55177 34.2572 4.8727 34.1467C5.79612 33.8282 6.7261 33.5295 7.65362 33.2231C7.63667 33.275 7.6323 33.3378 7.59977 33.3759C7.56724 33.4139 7.50874 33.4326 7.45844 33.4503C6.36307 33.8357 5.26689 34.2189 4.17234 34.6065C4.07502 34.641 3.9993 34.6449 3.93588 34.5548L3.93561 34.5546Z" fill="#383838"/>
<path d="M61.2278 85.5556C61.2135 85.7092 61.279 85.8829 61.1197 86.0004C60.9524 85.7337 60.9686 85.6664 61.2278 85.5556Z" fill="#383838"/>
<path d="M2.62374 39C2.621 39.1226 2.64404 39.2534 2.51513 39.334C2.50087 39.3018 2.48441 39.2704 2.47289 39.237C2.43394 39.1242 2.48414 39.0452 2.62347 39H2.62374Z" fill="#383838"/>
<path d="M2.73313 38.4446C2.6972 38.5188 2.66127 38.5932 2.62562 38.6674C2.51262 38.5171 2.52331 38.4949 2.73313 38.4446Z" fill="#383838"/>
<path d="M128.906 63.6658C129.168 63.495 129.476 63.4394 129.766 63.3627C130.595 63.144 131.391 62.8448 132.157 62.4599C132.269 62.4038 132.395 62.3741 132.514 62.3324C132.471 62.4077 132.446 62.5141 132.382 62.553C132.164 62.6844 131.941 62.8175 131.704 62.9037C130.907 63.1935 130.103 63.4644 129.3 63.7398C129.159 63.7884 129.015 63.8117 128.906 63.6658Z" fill="#383838"/>
<path d="M133.279 61.8887C133.441 61.6536 133.667 61.5163 133.935 61.4438C133.931 61.5752 133.882 61.68 133.767 61.7483C133.616 61.8381 133.459 61.9064 133.279 61.8887Z" fill="#383838"/>
<path d="M127.812 63.8873C127.928 63.7261 128.099 63.7931 128.25 63.7781C128.066 64.0287 128.026 64.0384 127.812 63.8873Z" fill="#383838"/>
<path d="M128.359 63.777C128.438 63.6469 128.567 63.67 128.688 63.6675C128.601 63.9165 128.57 63.927 128.359 63.777Z" fill="#383838"/>
<path d="M12.3956 64.8512C12.6931 64.8973 12.9601 64.9395 13.2278 64.9793C13.2997 64.9898 13.3726 64.9996 13.4451 64.9976C14.5074 64.9721 15.5317 65.2127 16.5486 65.4775C17.6407 65.7617 18.6983 66.1471 19.7054 66.6734C20.4489 67.0621 21.1971 67.4397 21.8764 67.9407C22.36 68.2972 22.8354 68.6629 23.3001 69.0463C23.8113 69.4681 24.2577 69.9507 24.7298 70.4095C25.1896 70.8566 25.5707 71.3725 25.9752 71.8691C26.3814 72.3675 26.754 72.8891 27.1004 73.4276C27.8964 74.6657 28.5719 75.9703 29.1471 77.3315C29.5054 78.1798 29.851 79.0314 30.1293 79.91C30.3121 80.4877 30.471 81.0734 30.665 81.6469C30.7823 81.9934 30.6924 82.3013 30.571 82.6122C30.5456 82.6772 30.4887 82.7345 30.4351 82.7825C29.9188 83.2441 29.0836 83.0051 28.8822 82.3374C28.8026 82.0734 28.7428 81.8034 28.6588 81.5411C28.4235 80.8053 28.178 80.0729 27.941 79.3376C27.543 78.1028 26.9402 76.9622 26.3609 75.8122C25.9968 75.0895 25.5575 74.4109 25.0772 73.7613C24.7618 73.3348 24.4444 72.9099 24.124 72.4876C24.0467 72.3856 23.957 72.2925 23.8676 72.2006C23.5989 71.9241 23.3203 71.6571 23.0584 71.3742C22.2433 70.4937 21.2832 69.7979 20.289 69.1519C19.2748 68.4928 18.1762 68.0024 17.0393 67.6081C16.1992 67.3166 15.3321 67.1355 14.4557 66.9846C13.9842 66.9035 13.5175 66.9132 13.0482 66.8823C12.6521 66.8562 12.2603 66.8604 11.865 66.8829C11.5294 66.9023 11.2175 66.8062 10.9783 66.5425C10.4821 65.9954 10.694 65.2013 11.4009 65.0157C11.7311 64.929 12.0764 64.902 12.3962 64.8509L12.3956 64.8512Z" fill="#383838"/>
<path d="M66.8214 40.177C66.8471 40.2718 66.8627 40.3246 66.8752 40.3779C67.0926 41.3057 66.3977 42.1348 65.3619 41.9895C65.2077 41.9678 65.0579 41.875 64.9193 41.7925C64.8278 41.738 64.7523 41.6488 64.6823 41.5644C64.4948 41.3382 64.2706 41.2954 63.9956 41.3721C63.5427 41.4982 63.0845 41.6049 62.6182 41.7222C62.5454 41.8089 62.596 41.892 62.6739 41.9417C63.0585 42.1862 63.4522 42.416 63.8354 42.6627C64.2821 42.9506 64.7436 43.2023 65.2441 43.383C65.4486 43.4569 65.6451 43.5627 65.8307 43.6783C66.2498 43.9392 66.3575 44.6664 66.0387 45.0446C65.9811 45.1132 65.9043 45.1707 65.8263 45.2146C65.6836 45.2949 65.5333 45.3616 65.3493 45.4519C65.0473 45.3438 64.7118 45.2541 64.4029 45.1073C63.4142 44.6378 62.4503 44.1201 61.5507 43.4866C61.0417 43.1282 60.5461 42.7539 60.1377 42.2774C59.954 42.0628 59.7418 41.9731 59.4638 41.9964C59.2468 42.0148 59.024 42.022 58.8091 41.9934C58.5967 41.965 58.3717 41.9217 58.1858 41.8211C57.7944 41.6088 57.6003 41.1017 57.7523 40.6777C57.8463 40.4146 58.0522 40.2101 58.3223 40.1187C58.5087 40.0553 58.7091 40.0186 58.9053 40.0061C59.1957 39.9878 59.4882 39.9936 59.7793 40.0025C60.8541 40.0356 61.9118 39.9167 62.9607 39.6755C63.9032 39.459 64.8264 39.2017 65.6547 38.6721C65.7599 38.6049 65.8881 38.5754 65.9994 38.5163C66.2446 38.3854 66.4685 38.4587 66.6628 38.6091C66.8197 38.7305 67.004 38.8714 67.071 39.0453C67.182 39.3345 67.2035 39.658 67.0136 39.945C66.9635 40.0206 66.8979 40.0856 66.8211 40.1776L66.8214 40.177Z" fill="#383838"/>
<path d="M69.3161 35.0969C69.3161 35.2928 69.3229 35.3676 69.315 35.4409C69.2647 35.9108 68.7445 36.2973 68.2855 36.1881C67.8257 36.0786 67.3689 35.9719 66.8914 35.9952C66.7859 36.0005 66.6771 35.9647 66.5718 35.9386C66.2837 35.8666 65.998 35.8644 65.7104 35.9427C65.6063 35.9711 65.4975 35.9936 65.3901 35.9972C63.6411 36.0597 62.0028 36.5479 60.4244 37.2929C59.5674 37.6974 58.6716 37.9792 57.7302 38.1284C57.3133 38.1945 56.9024 38.2317 56.4864 38.2167C56.2906 38.2095 56.0878 38.1701 55.9044 38.1011C55.4355 37.925 55.1846 37.3484 55.3489 36.8727C55.4309 36.6352 55.8032 36.3487 56.0528 36.3348C56.1436 36.3298 56.2349 36.3331 56.3259 36.3331C57.3346 36.3337 58.3026 36.1442 59.2353 35.7418C60.0362 35.3962 60.823 35.0161 61.6608 34.7585C62.4252 34.5234 63.1936 34.3312 63.9844 34.2106C64.8278 34.0819 65.6697 33.9685 66.5242 34.003C66.7038 34.0102 66.8821 34.0497 67.0614 34.0691C67.2232 34.0869 67.3856 34.1041 67.5483 34.11C67.9312 34.1239 68.2967 34.2261 68.666 34.317C68.9383 34.3839 69.1026 34.5848 69.2445 34.7943C69.3191 34.9047 69.3115 35.0728 69.3166 35.0972L69.3161 35.0969Z" fill="#383838"/>
<path d="M41.3631 36.1097C40.9328 36.1097 40.6201 36.1383 40.3142 36.1036C39.7579 36.0405 39.2049 35.9461 38.6524 35.8521C38.3676 35.8038 38.0871 35.7282 37.8048 35.6649C37.3231 35.5568 37.1162 35.3139 37.0727 34.7085C37.0459 34.3367 37.4458 33.8782 37.8332 33.7982C37.9532 33.7735 38.0871 33.7902 38.2101 33.8135C38.6896 33.9044 39.1634 34.0377 39.6461 34.0958C40.402 34.1869 41.1633 34.2947 41.9254 34.2164C42.9546 34.1105 43.974 33.9433 44.9119 33.4559C46.0311 32.8746 46.8771 32.0146 47.4547 30.8812C47.5302 30.7334 47.5944 30.5789 47.6781 30.4364C47.9257 30.0138 48.4665 29.8643 48.9232 30.0849C49.3653 30.2983 49.538 30.7645 49.3448 31.2544C49.017 32.0855 48.5293 32.8099 47.9296 33.4642C47.5559 33.8716 47.1431 34.235 46.7087 34.5651C46.3627 34.8282 45.9676 35.0327 45.5759 35.2242C44.8037 35.6021 43.9838 35.8521 43.1392 35.9794C42.514 36.0736 41.8828 36.1903 41.3634 36.1094L41.3631 36.1097Z" fill="#383838"/>
<path d="M71.6148 86.5634C71.6411 86.8673 71.6001 87.2491 71.497 87.6259C71.3384 88.2052 71.0755 88.7226 70.6498 89.1477C70.5719 89.2255 70.4897 89.2994 70.4194 89.3836C69.876 90.0341 69.1535 90.397 68.3552 90.5142C67.235 90.6787 66.1585 90.5229 65.2094 89.7874C64.7813 89.4559 64.4246 89.0858 64.1526 88.619C63.9016 88.188 63.7182 87.7359 63.6263 87.2411C63.5692 86.9326 63.4883 86.6276 63.5268 86.3127C63.6192 85.5581 63.7931 84.8229 64.2116 84.1816C64.3797 83.9243 64.64 83.7309 64.8387 83.4916C65.2424 83.0054 65.7829 82.7442 66.3526 82.5502C67.1423 82.2816 67.9353 82.2549 68.7492 82.5227C69.4408 82.7506 70.0487 83.0762 70.5386 83.6264C71.2184 84.3897 71.6553 85.2505 71.6151 86.3108C71.6129 86.3661 71.6151 86.4217 71.6151 86.5628L71.6148 86.5634Z" fill="#383838"/>
</g>
<defs>
<clipPath id="clip0_2_269">
<rect width="301" height="95" fill="white"/>
</clipPath>
</defs>
</svg>
