<svg width="56" height="38" viewBox="0 0 56 38" fill="none" xmlns="http://www.w3.org/2000/svg">
<rect width="56" height="38" rx="4" fill="#383838"/>
<path fill-rule="evenodd" clip-rule="evenodd" d="M28 27.3319C30.4032 25.3385 31.9312 22.3458 31.9312 18.9999C31.9312 15.654 30.4032 12.6613 28 10.6679C29.9075 9.08572 32.3663 8.13306 35.05 8.13306C41.1148 8.13306 46.0312 12.9983 46.0312 18.9999C46.0312 25.0015 41.1148 29.8668 35.05 29.8668C32.3663 29.8668 29.9075 28.9141 28 27.3319ZM28 27.3319C26.0925 28.9141 23.6337 29.8668 20.95 29.8668C14.8852 29.8668 9.96875 25.0015 9.96875 18.9999C9.96875 12.9983 14.8852 8.13306 20.95 8.13306C23.6337 8.13306 26.0925 9.08572 28 10.6679C25.5968 12.6613 24.0688 15.654 24.0688 18.9999C24.0688 22.3458 25.5968 25.3385 28 27.3319Z" fill="white"/>
</svg>
