<svg width="173" height="55" viewBox="0 0 173 55" fill="none" xmlns="http://www.w3.org/2000/svg">
<g id="Group 230">
<path id="Vector" d="M37.7678 54.4744C37.7225 54.4527 37.6793 54.4211 37.6317 54.4106C36.9742 54.264 36.3971 53.9407 35.8781 53.5247C35.5862 53.2906 35.33 53.0052 35.0932 52.7039C34.8823 52.4356 34.7059 52.1516 34.5599 51.8461C34.3538 51.4146 34.2179 50.9574 34.1331 50.4872C34.0883 50.2387 34.0784 49.9831 34.0624 49.7301C34.0537 49.5932 34.063 49.4578 34.1027 49.3206C34.1555 49.1391 34.1338 48.945 34.172 48.7551C34.227 48.4821 34.3164 48.2232 34.4083 47.9654C34.6698 47.2321 35.1161 46.6193 35.6786 46.1002C36.0902 45.7202 36.5716 45.4396 37.0857 45.2188C37.4534 45.0608 37.8446 44.9958 38.2292 44.9046C38.2991 44.888 38.3752 44.896 38.4484 44.8957C38.6578 44.8947 38.8674 44.9013 39.0767 44.8943C39.5985 44.8769 40.0843 45.0278 40.569 45.2001C40.9991 45.3529 41.3735 45.6027 41.741 45.8646C41.8681 45.9551 41.9737 46.0773 42.0865 46.1878C42.2066 46.3055 42.3236 46.4266 42.4393 46.5435C42.4842 46.5315 42.5205 46.5325 42.5414 46.5146C42.7169 46.3646 42.8927 46.2147 43.0625 46.0581C43.3485 45.7943 43.634 45.5299 43.9124 45.2579C44.1842 44.9925 44.4619 44.7307 44.7092 44.4426C44.9833 44.1236 45.287 43.8315 45.538 43.4911C45.6628 43.322 45.823 43.1845 45.9473 43.0104C46.1916 42.6681 46.4699 42.3507 46.7192 42.0119C46.9626 41.6813 47.1981 41.3435 47.4182 40.9966C47.7064 40.5423 47.9736 40.0742 48.2542 39.6149C48.5857 39.0726 48.8737 38.5063 49.1411 37.9298C49.4392 37.287 49.7352 36.6429 49.9646 35.9696C50.0909 35.599 50.2438 35.2376 50.3659 34.8655C50.6198 34.0914 50.8326 33.3046 51.0122 32.5098C51.1378 31.9542 51.232 31.3912 51.3307 30.8297C51.369 30.6117 51.3777 30.3886 51.4061 30.1686C51.4413 29.8968 51.484 29.6259 51.5216 29.3544C51.5288 29.302 51.5285 29.2484 51.5293 29.1952C51.5323 29.0152 51.5202 28.8357 51.5799 28.6588C51.6058 28.5818 51.5893 28.4901 51.5924 28.4052C51.6052 28.0668 51.5536 27.7249 51.6509 27.3909C51.6652 27.3417 51.6548 27.285 51.655 27.2319C51.6551 26.9232 51.6588 26.6145 51.6531 26.3059C51.6511 26.1906 51.6262 26.0758 51.6133 25.9605C51.605 25.8869 51.5951 25.8131 51.5935 25.7392C51.5904 25.5902 51.6008 25.4407 51.5909 25.2923C51.562 24.8605 51.5503 24.4268 51.4757 23.9991C51.4721 23.9782 51.4705 23.9569 51.4688 23.9357C51.4072 23.1445 51.2484 22.3697 51.1074 21.5905C50.8784 20.3236 50.4867 19.1064 50.0752 17.8944C49.9325 17.4741 49.7495 17.0675 49.5757 16.6587C49.3982 16.2409 49.2213 15.822 49.0219 15.4146C48.818 14.9978 48.5928 14.5912 48.3666 14.1861C48.1658 13.8264 47.9563 13.4716 47.7406 13.1212C47.5692 12.8428 47.3733 12.5801 47.2049 12.3002C46.9923 11.9466 46.7363 11.6261 46.4952 11.2944C46.3096 11.0392 46.1096 10.7947 45.914 10.5472C45.738 10.3244 45.5592 10.104 45.3817 9.88265C45.3751 9.87435 45.3682 9.86636 45.3608 9.85886C44.8183 9.29847 44.3198 8.69497 43.7519 8.15918C43.7213 8.13028 43.6922 8.0945 43.6555 8.07933C43.6208 8.06496 43.5678 8.05825 43.5397 8.07582C43.5122 8.09291 43.4885 8.14784 43.4935 8.18138C43.5155 8.32734 43.5504 8.47123 43.5769 8.61656C43.592 8.69944 43.6069 8.78328 43.6102 8.86713C43.6171 9.04695 43.6102 9.22469 43.6594 9.40388C43.6885 9.51023 43.6591 9.63432 43.6495 9.74994C43.6426 9.83379 43.6101 9.91747 43.6145 9.99987C43.6313 10.3122 43.5593 10.6101 43.4874 10.9084C43.293 11.7134 42.9408 12.439 42.4473 13.0999C42.1858 13.4502 41.8725 13.7467 41.5635 14.0468C41.3718 14.2329 41.3244 14.4029 41.4061 14.6653C41.5377 15.0877 41.6309 15.5239 41.7208 15.9582C41.7976 16.3297 41.8581 16.7056 41.9054 17.0822C41.9448 17.3965 41.9571 17.7144 41.9765 18.0311C41.985 18.1685 41.9743 18.305 42.021 18.4408C42.0476 18.5179 42.0394 18.6088 42.0395 18.6934C42.041 19.1723 42.0403 19.6513 42.0402 20.1302C42.0402 20.1941 42.0534 20.2631 42.0344 20.3207C41.956 20.5595 41.9858 20.8048 41.9759 21.0478C41.9717 21.1526 41.9495 21.2567 41.9351 21.3612C41.9293 21.4032 41.9187 21.4447 41.9165 21.4867C41.8934 21.9517 41.8212 22.4096 41.7412 22.8678C41.6994 23.107 41.6427 23.3451 41.6139 23.5847C41.5572 24.0566 41.6155 24.5077 41.8832 24.9261C42.1844 25.3969 42.4517 25.8902 42.7321 26.3748C43.0866 26.9872 43.461 27.589 43.7865 28.2169C44.088 28.7987 44.4173 29.3702 44.6206 30.0006C44.6464 30.0804 44.6679 30.1635 44.6778 30.2468C44.7198 30.6004 44.5718 30.8839 44.3556 31.1447C44.0831 31.4732 43.724 31.6624 43.3361 31.7983C43.0606 31.8949 42.7759 31.9644 42.4946 32.0426C42.4451 32.0564 42.3905 32.0608 42.3392 32.0573C42.1371 32.0434 41.9524 32.1211 41.7462 32.1533C41.7462 32.2237 41.7285 32.2915 41.749 32.3437C41.908 32.7482 42.0784 33.1476 42.3082 33.5176C42.3695 33.6163 42.4152 33.7265 42.4854 33.8174C42.6294 34.0037 42.6287 34.2152 42.5917 34.4257C42.551 34.6561 42.4193 34.8361 42.2091 34.9393C41.9836 35.0499 41.7514 35.1467 41.5223 35.2499C41.4944 35.2625 41.4675 35.2773 41.4215 35.3007C41.429 35.3684 41.4295 35.4402 41.446 35.5083C41.4961 35.7138 41.5445 35.9203 41.6089 36.1214C41.6587 36.2769 41.664 36.4329 41.6645 36.5926C41.6653 36.8943 41.5341 37.1208 41.2955 37.291C40.9371 37.5467 40.5798 37.8038 40.222 38.0603C40.188 38.0847 40.151 38.1056 40.1201 38.1337C40.0533 38.1941 40.015 38.265 40.052 38.3597C40.0868 38.4483 40.1103 38.5426 40.1531 38.6267C40.3122 38.9407 40.4117 39.2784 40.4997 39.6151C40.5653 39.8669 40.6239 40.1319 40.5941 40.3995C40.5344 40.9324 40.37 41.4259 39.9312 41.7562C39.7081 41.924 39.4407 42.0411 39.1793 42.1439C38.8397 42.2774 38.4845 42.3586 38.1217 42.4175C37.9238 42.4496 37.7225 42.4325 37.5329 42.4764C37.1794 42.5582 36.8251 42.5234 36.4712 42.5294C36.3479 42.5315 36.2243 42.4969 36.1003 42.4895C35.9023 42.4779 35.7037 42.475 35.5055 42.4684C35.4805 42.4501 35.4564 42.4175 35.4305 42.4157C35.2641 42.4053 35.101 42.3827 34.9373 42.3459C34.6438 42.28 34.3436 42.2442 34.051 42.1747C33.3819 42.016 32.7237 41.8209 32.0778 41.5778C31.3058 41.2871 30.5475 40.9652 29.8111 40.5932C29.383 40.377 28.9663 40.136 28.5526 39.8918C28.0574 39.5994 27.5672 39.2978 27.0814 38.9894C26.5779 38.6698 26.1015 38.3091 25.6149 37.9638C25.0342 37.5518 24.4867 37.0974 23.9233 36.6635C23.768 36.5439 23.6503 36.4002 23.6893 36.1774C23.7019 36.1052 23.6914 36.0291 23.6915 35.9546C23.7305 35.9056 23.7666 35.8537 23.809 35.8082C23.998 35.6052 24.3043 35.5787 24.5212 35.7505C24.8333 35.9977 25.1373 36.2557 25.4534 36.4971C25.9362 36.8662 26.4178 37.238 26.9161 37.5847C27.3979 37.9199 27.8895 38.2406 28.3913 38.5461C28.9737 38.9008 29.5634 39.2408 30.1646 39.5598C30.4699 39.7218 30.7846 39.8666 31.1014 40.0046C31.5711 40.209 32.0409 40.416 32.5207 40.5936C33.177 40.8363 33.849 41.0302 34.5342 41.1723C34.7684 41.2209 35.0019 41.2975 35.238 41.3081C35.5301 41.321 35.8137 41.4179 36.1091 41.3852C36.1696 41.3785 36.2329 41.3975 36.295 41.405C36.4082 41.4187 36.5215 41.4436 36.6348 41.4443C36.8844 41.4456 37.1322 41.4527 37.3824 41.3932C37.5817 41.3456 37.7937 41.367 38.0022 41.332C38.3543 41.2729 38.6938 41.1848 39.0248 41.0556C39.3581 40.9254 39.5846 40.5396 39.5174 40.1878C39.442 39.7922 39.3353 39.4056 39.1617 39.0392C39.0715 38.8487 38.9997 38.648 38.934 38.4471C38.8619 38.2265 38.8814 38.0108 38.9939 37.8015C39.1127 37.5807 39.293 37.4159 39.4797 37.2659C39.7736 37.0299 40.0887 36.821 40.3936 36.599C40.4598 36.5508 40.521 36.4957 40.5815 36.4462C40.5567 36.3239 40.541 36.2196 40.5136 36.1186C40.4858 36.0166 40.448 35.9173 40.4118 35.8176C40.3534 35.656 40.2912 35.6126 40.1309 35.6405C39.8343 35.6922 39.5383 35.7477 39.2434 35.8082C38.9884 35.8607 38.7665 35.82 38.5909 35.6082C38.3387 35.3043 38.515 34.812 38.906 34.7432C39.1821 34.6946 39.4615 34.6649 39.7367 34.6125C40.229 34.5189 40.7111 34.3832 41.1828 34.2122C41.2453 34.1895 41.2962 34.1336 41.3674 34.0823C41.2623 33.8661 41.1709 33.6641 41.0675 33.4686C40.8632 33.0823 40.7278 32.6712 40.626 32.2472C40.5619 31.9804 40.5831 31.7196 40.6992 31.4714C40.8221 31.2085 41.0433 31.0643 41.317 31.044C41.5867 31.0241 41.856 31.0166 42.1256 30.9784C42.5538 30.9177 42.9632 30.8122 43.3431 30.5988C43.4555 30.5357 43.5452 30.454 43.6025 30.3348C43.564 30.2285 43.5376 30.1243 43.4907 30.0309C43.2143 29.4825 42.9348 28.9357 42.6523 28.3906C42.5648 28.222 42.465 28.0599 42.3696 27.8954C42.1898 27.585 42.0092 27.2747 41.8284 26.9647C41.5624 26.5088 41.3063 26.0464 41.0268 25.5993C40.7049 25.0842 40.5061 24.5384 40.5331 23.921C40.5419 23.7207 40.5287 23.523 40.576 23.3204C40.6646 22.9409 40.7165 22.5525 40.7809 22.1673C40.8419 21.8027 40.8507 21.4324 40.8994 21.0657C40.9408 20.7534 40.8954 20.43 40.972 20.1174C40.9459 19.5884 41.0342 19.055 40.9135 18.5294C40.9064 18.4989 40.9107 18.4658 40.91 18.4339C40.9038 18.1377 40.9028 17.8441 40.8579 17.5469C40.806 17.2037 40.7834 16.8546 40.7199 16.5122C40.6411 16.0868 40.5525 15.6633 40.4668 15.2393C40.4502 15.1566 40.4269 15.0756 40.3322 15.0232C40.2731 15.0535 40.2079 15.0839 40.1457 15.1197C39.9006 15.2607 39.6635 15.4181 39.4105 15.5425C38.9878 15.7503 38.5609 15.9519 38.1253 16.1296C37.5932 16.3468 37.0516 16.5402 36.4943 16.6849C36.2723 16.7425 36.0525 16.8114 35.8365 16.8888C35.5908 16.977 35.3531 17.0884 35.1069 17.1756C34.5103 17.3869 33.9731 17.7148 33.4391 18.0471C33.164 18.2183 32.8992 18.4093 32.6433 18.6092C32.4549 18.7565 32.2884 18.9325 32.1121 19.0957C32.0492 19.1596 31.9862 19.2234 31.9234 19.2873C31.5837 19.528 31.3487 19.8723 31.0875 20.1864C30.8398 20.4846 30.6336 20.8193 30.4154 21.1422C30.1676 21.5089 29.9334 21.8853 29.6806 22.2483C29.4944 22.5158 29.3005 22.7798 29.0873 23.0249C28.8804 23.2627 28.6494 23.4777 28.3988 23.673C27.9866 23.9943 27.5283 24.2241 27.0382 24.3742C26.6215 24.5018 26.1926 24.6039 25.7488 24.5898C25.6977 24.5882 25.6462 24.6061 25.5946 24.613C25.4917 24.6265 25.3888 24.6481 25.2856 24.6495C25.0774 24.6526 24.8722 24.6468 24.6636 24.6015C24.4527 24.5555 24.231 24.5708 24.0128 24.5349C23.6004 24.4672 23.1969 24.3694 22.7958 24.256C22.3644 24.134 21.9362 23.9988 21.5016 23.8894C20.9972 23.7624 20.4978 23.6139 19.9781 23.5494C19.6171 23.5047 19.2599 23.4294 18.8939 23.4381C18.7997 23.4403 18.7053 23.4414 18.6112 23.4379C18.2332 23.424 17.8632 23.4888 17.4984 23.574C17.1428 23.657 16.7885 23.7547 16.4601 23.9216C15.8871 24.2131 15.3614 24.5737 14.9141 25.0453C14.7543 25.2138 14.5693 25.3626 14.434 25.5491C14.1557 25.9326 13.8827 26.3214 13.6951 26.7646C13.4629 27.3132 13.2814 27.8729 13.258 28.4759C13.2552 28.5491 13.235 28.6216 13.2215 28.6941C13.1843 28.8943 13.1841 29.0944 13.2215 29.2947C13.235 29.3672 13.2575 29.4402 13.257 29.5128C13.2558 29.7046 13.2822 29.8905 13.3164 30.0796C13.4665 30.904 13.7634 31.6645 14.2145 32.3671C14.434 32.7091 14.7155 32.9901 14.9914 33.28C15.1963 33.4953 15.4153 33.6891 15.67 33.8399C16.1403 34.1183 16.6185 34.3711 17.1749 34.4285C17.4438 34.4563 17.6376 34.6164 17.7461 34.8679C17.7733 34.9308 17.7837 35.0177 17.7642 35.0816C17.6962 35.3043 17.5742 35.4703 17.3251 35.5292C17.2211 35.5538 17.1422 35.5191 17.0517 35.5115C16.5016 35.4647 15.9971 35.2646 15.5099 35.0193C14.9723 34.7486 14.5295 34.3417 14.0811 33.9456C14.0344 33.9044 13.9986 33.8501 13.9595 33.8004C13.9139 33.7428 13.8739 33.6802 13.8253 33.6254C13.5018 33.2615 13.235 32.8568 13.0041 32.4285C12.7423 31.9431 12.536 31.4343 12.4033 30.895C12.3021 30.4845 12.1857 30.078 12.1896 29.6491C12.1902 29.5863 12.1744 29.5234 12.1667 29.4605C12.1538 29.3559 12.1307 29.2511 12.1307 29.1465C12.1307 28.914 12.1184 28.6829 12.1795 28.4505C12.2272 28.2693 12.207 28.0752 12.2397 27.8846C12.369 27.1325 12.63 26.434 12.9934 25.7709C13.0745 25.6229 13.1552 25.4729 13.2526 25.3359C13.5034 24.9831 13.77 24.6433 14.089 24.3493C14.1897 24.2565 14.2766 24.1478 14.3798 24.0582C14.5853 23.8796 14.7903 23.6989 15.009 23.5377C15.4331 23.2253 15.8864 22.9626 16.3805 22.7801C16.7136 22.6571 17.0479 22.541 17.3987 22.4746C17.5841 22.4395 17.7741 22.4396 17.9543 22.3999C18.1421 22.3583 18.3264 22.3542 18.5138 22.3526C18.7336 22.3508 18.9536 22.3516 19.1734 22.3526C19.2466 22.3529 19.3207 22.3499 19.3927 22.3607C19.6287 22.3963 19.8626 22.4548 20.0997 22.4733C20.591 22.5118 21.0622 22.6483 21.5359 22.7659C22.1629 22.9214 22.7809 23.1147 23.4037 23.2879C23.949 23.4398 24.5014 23.5384 25.071 23.5032C25.2066 23.4949 25.3431 23.5018 25.4793 23.5019C25.7401 23.5019 26.0006 23.5106 26.2566 23.4381C26.4669 23.3785 26.6916 23.3576 26.8905 23.2725C27.3641 23.0698 27.8078 22.8103 28.1701 22.4297C28.4681 22.1166 28.7211 21.7663 28.9626 21.4078C29.3219 20.8743 29.6719 20.3342 30.0372 19.8049C30.2886 19.4406 30.567 19.0966 30.8794 18.783C31.006 18.6559 31.132 18.5281 31.2569 18.3992C31.499 18.1496 31.7638 17.9272 32.0422 17.721C32.1938 17.6087 32.3518 17.5049 32.4981 17.3859C32.8587 17.0923 33.2674 16.8784 33.6655 16.6475C34.084 16.4048 34.534 16.23 34.9794 16.0475C35.2211 15.9485 35.4682 15.8624 35.7166 15.7821C35.9447 15.7083 36.1807 15.6596 36.4079 15.5833C36.9528 15.4001 37.4961 15.2163 38.0245 14.9825C38.688 14.6888 39.3224 14.3466 39.9249 13.9432C40.229 13.7395 40.5017 13.4898 40.7916 13.2672C41.1327 13.0052 41.3893 12.6732 41.6452 12.3433C41.9153 11.9952 42.1368 11.6103 42.2934 11.1866C42.4828 10.6744 42.558 10.1446 42.6034 9.60669C42.6113 9.51391 42.5863 9.41793 42.5742 9.32387C42.5662 9.2611 42.5447 9.19866 42.5455 9.13638C42.5502 8.75981 42.4499 8.40256 42.3448 8.04851C42.2298 7.6614 42.0502 7.30319 41.852 6.95202C41.6205 6.54207 41.333 6.18307 40.9891 5.86878C40.9537 5.83636 40.8951 5.83029 40.8474 5.81192C40.8174 5.772 40.793 5.72537 40.7564 5.69327C40.6261 5.57908 40.5223 5.61374 40.4739 5.78526C40.4659 5.81352 40.4711 5.84578 40.4703 5.87612C40.4495 5.97945 40.4307 6.08325 40.4074 6.18594C40.3045 6.64172 40.0817 7.0349 39.7754 7.37634C39.4368 7.75371 39.0751 8.1076 38.6284 8.35561C38.4176 8.47267 38.2085 8.59468 37.9901 8.69529C37.8237 8.77195 37.7407 8.87846 37.7668 9.06579C37.7726 9.10747 37.7648 9.15107 37.7681 9.19339C37.802 9.62234 37.6617 10.0144 37.4845 10.3859C37.2439 10.8904 36.8621 11.2938 36.4415 11.6435C36.0302 11.9854 35.5823 12.2821 35.093 12.5057C34.8643 12.6103 34.6467 12.7437 34.4121 12.831C33.8535 13.0389 33.2887 13.2296 32.725 13.423C30.7365 14.1051 28.7472 14.7848 26.7586 15.4664C24.7304 16.1617 22.7031 16.8597 20.6746 17.554C18.656 18.2448 16.6342 18.9262 14.6177 19.6233C12.6011 20.3204 10.5741 20.9857 8.56135 21.6951C6.23322 22.5156 3.89048 23.2927 1.55418 24.089C1.26917 24.1861 1.26965 24.187 1.25708 24.4847C1.25488 24.5377 1.26352 24.5959 1.24514 24.6428C1.17663 24.8177 1.198 24.9991 1.1947 25.1788C1.19125 25.3596 1.2167 25.5467 1.17836 25.7192C1.13594 25.91 1.13327 26.0975 1.13233 26.2879C1.1306 26.6496 1.1317 27.0115 1.13201 27.3732C1.13201 27.4476 1.11646 27.5278 1.13783 27.5957C1.22314 27.8665 1.18559 28.1438 1.19517 28.4186C1.19517 28.525 1.19517 28.6315 1.19517 28.7378C1.21104 28.7712 1.22188 28.8284 1.24388 28.8333C1.31207 28.8483 1.31128 28.7846 1.32024 28.738C1.40241 28.6481 1.42142 28.5323 1.44624 28.4189C1.48678 28.3582 1.52998 28.2995 1.56706 28.2367C1.69653 28.019 1.81216 27.7916 1.95529 27.5838C2.0923 27.385 2.27487 27.2177 2.40527 27.0153C2.61769 26.6857 2.93726 26.4814 3.22525 26.2406C3.52644 25.9888 3.88372 25.8291 4.23472 25.6649C4.59702 25.4956 4.98604 25.3965 5.37946 25.3631C5.68756 25.3369 6.00006 25.3445 6.31492 25.4017C6.69042 25.4699 7.03875 25.5943 7.38236 25.7497C7.66234 25.8763 7.89974 26.0685 8.13934 26.2548C8.32096 26.3962 8.50431 26.5434 8.65342 26.7176C8.85107 26.9484 9.03222 27.1979 9.19138 27.4577C9.38432 27.7728 9.53405 28.1115 9.6258 28.4753C9.70389 28.7851 9.75652 29.0954 9.74222 29.4167C9.7328 29.6291 9.76438 29.8471 9.7284 30.0538C9.64481 30.5346 9.4888 30.9896 9.24653 31.4205C8.97267 31.9074 8.58303 32.2584 8.13148 32.5556C7.9695 32.6621 7.78881 32.6463 7.61363 32.6223C7.48228 32.6045 7.30034 32.3648 7.29139 32.2274C7.2873 32.1639 7.2873 32.0997 7.29076 32.0359C7.29924 31.8797 7.34983 31.7504 7.49407 31.6658C7.62039 31.5917 7.74199 31.5075 7.85747 31.4168C7.95598 31.3393 8.05999 31.2593 8.1318 31.1584C8.63016 30.4586 8.80818 29.6845 8.60408 28.8388C8.48028 28.3256 8.2633 27.8588 7.8636 27.4986C7.76195 27.4069 7.67019 27.3039 7.57388 27.2062C7.34921 26.9784 7.0873 26.797 6.79852 26.6761C6.30109 26.4677 5.79047 26.3767 5.24167 26.4907C4.67118 26.6092 4.16747 26.8574 3.73399 27.2266C3.33555 27.566 2.97968 27.9558 2.69908 28.4144C2.29922 29.0679 2.07156 29.7708 2.01029 30.5338C2.00526 30.5967 1.98688 30.6584 1.97933 30.7211C1.92277 31.1975 1.94068 31.6747 1.96928 32.1516C1.97682 32.2776 1.99897 32.4028 2.01076 32.5286C2.01767 32.6025 2.0095 32.6786 2.02207 32.7512C2.07784 33.0733 2.14038 33.3942 2.19741 33.7161C2.30079 34.3003 2.42962 34.8779 2.63089 35.4362C2.71337 35.6651 2.80701 35.8898 2.89154 36.1178C3.10538 36.6942 3.35896 37.253 3.61741 37.8092C3.87163 38.3568 4.15459 38.8894 4.46332 39.4078C4.71722 39.834 4.96185 40.2662 5.22313 40.6876C5.40648 40.9832 5.6057 41.2691 5.80759 41.5521C6.01546 41.8434 6.22693 42.1329 6.45224 42.4103C6.6909 42.704 6.92264 43.0033 7.17167 43.2894C7.48228 43.6465 7.79368 44.003 8.11168 44.353C8.33165 44.5953 8.56496 44.8256 8.79953 45.0533C9.04086 45.2876 9.28989 45.5137 9.53782 45.741C9.63821 45.833 9.74489 45.9178 9.84812 46.0066C10.0151 46.1503 10.1806 46.2959 10.3488 46.4381C10.525 46.5868 10.7005 46.7365 10.8819 46.8782C11.2705 47.1813 11.6711 47.4675 12.0697 47.7567C12.4356 48.0223 12.8187 48.2577 13.1977 48.5006C13.4888 48.6871 13.789 48.8593 14.0899 49.0295C14.4913 49.2566 14.8915 49.4874 15.3028 49.6948C15.7047 49.8975 16.1159 50.0821 16.5302 50.2574C17.0501 50.4775 17.5719 50.695 18.1025 50.8862C18.653 51.0845 19.2117 51.2608 19.7726 51.4267C20.2322 51.5626 20.6974 51.6826 21.1653 51.7853C21.6526 51.8923 22.1466 51.9676 22.6368 52.0616C23.0555 52.1417 23.4731 52.227 23.9009 52.2398C23.9424 52.2411 23.9877 52.2406 24.0244 52.2567C24.1446 52.3099 24.2702 52.3009 24.3954 52.3027C24.4686 52.3038 24.5479 52.2899 24.6136 52.3139C24.8077 52.3846 25.0064 52.3602 25.2041 52.3664C25.2876 52.369 25.3781 52.3544 25.4532 52.3821C25.6071 52.4388 25.7624 52.4284 25.9186 52.4295C26.1698 52.4313 26.4215 52.4225 26.6725 52.4316C27.1856 52.4501 27.6923 52.3977 28.1951 52.3009C28.6816 52.2074 29.1351 52.0323 29.5547 51.7568C30.0203 51.4512 30.1855 50.9409 30.074 50.3988C29.9937 50.0081 29.8143 49.6622 29.5978 49.3358C29.4757 49.1518 29.3517 48.9644 29.2004 48.8061C28.0489 47.601 26.8357 46.4576 25.7279 45.2087C25.4903 44.9409 25.233 44.6894 25.015 44.4064C24.8854 44.2381 24.7348 44.0923 24.6034 43.9278C24.4527 43.7388 24.3061 43.5466 24.1567 43.3567C23.8837 43.0095 23.5982 42.6717 23.3394 42.3138C23 41.8445 22.6802 41.3604 22.3543 40.8809C21.9567 40.2956 21.5904 39.6889 21.2658 39.0601C20.8 38.1577 20.345 37.2482 20.0164 36.2809C19.8666 35.8396 19.6907 35.4062 19.5665 34.9578C19.3803 34.2861 19.2125 33.608 19.069 32.9258C18.9781 32.4933 18.8791 32.0594 18.8492 31.615C18.8409 31.4909 18.7927 31.4304 18.6791 31.4252C18.4032 31.4126 18.1472 31.3229 17.8919 31.2307C17.57 31.1146 17.3076 30.8998 17.0782 30.6549C16.9147 30.4801 16.7986 30.2623 16.6936 30.04C16.4584 29.5416 16.3967 29.031 16.5334 28.4941C16.6861 27.8943 17.0006 27.4117 17.5127 27.0682C17.7777 26.8904 18.0699 26.743 18.3774 26.7111C18.8202 26.6649 19.2628 26.6732 19.7008 26.8547C20.1308 27.0329 20.4488 27.3331 20.7079 27.6865C20.9901 28.0714 21.1568 28.5224 21.1158 29.0254C21.1029 29.184 21.1378 29.3524 21.0982 29.5018C20.9777 29.9562 20.7984 30.3829 20.4546 30.7215C20.3032 30.8706 20.1417 31.0017 19.9625 31.1124C19.8812 31.1627 19.8497 31.236 19.8634 31.3286C19.8835 31.4642 19.8978 31.6019 19.9318 31.7341C20.0524 32.2049 20.1118 32.6878 20.218 33.1623C20.336 33.6893 20.476 34.2094 20.6218 34.7277C20.7422 35.1552 20.9001 35.5725 21.0543 35.9894C21.2638 36.5556 21.4979 37.1118 21.7634 37.6533C21.9218 37.9764 22.0996 38.2894 22.2621 38.6103C22.5348 39.1489 22.8494 39.6617 23.1848 40.1616C23.4551 40.5645 23.7206 40.9708 24.0004 41.3667C24.2372 41.7016 24.4898 42.0251 24.739 42.3509C24.9051 42.5681 25.0733 42.7837 25.2477 42.9938C25.4157 43.1963 25.5957 43.3883 25.765 43.5897C25.9678 43.831 26.1557 44.0859 26.3666 44.3195C26.6275 44.6086 26.8938 44.8931 27.1573 45.1798C27.7146 45.7859 28.3058 46.3598 28.8845 46.9456C28.926 46.9876 28.9787 47.0181 29.0438 47.0671C29.0703 47.009 29.0919 46.9748 29.1021 46.9375C29.1549 46.7437 29.2053 46.5494 29.2557 46.355C29.3802 45.8742 29.4708 45.3871 29.5436 44.8951C29.5731 44.6951 29.5706 44.4913 29.6107 44.2978C29.6545 44.0859 29.6576 43.8775 29.6617 43.6657C29.663 43.6021 29.6561 43.5328 29.6782 43.4765C29.7351 43.3319 29.7228 43.1834 29.7233 43.0354C29.7246 42.6098 29.7272 42.184 29.7221 41.7584C29.7202 41.6019 29.7547 41.4649 29.8556 41.3457C29.9866 41.191 30.1469 41.1067 30.3521 41.1262C30.4776 41.2114 30.6033 41.2967 30.7288 41.382C30.7837 41.5447 30.7958 41.7119 30.7936 41.8835C30.7886 42.2984 30.7931 42.7134 30.7914 43.1283C30.7906 43.3187 30.8087 43.5102 30.7406 43.6962C30.7199 43.7531 30.7307 43.8225 30.7295 43.8862C30.726 44.0555 30.7463 44.2269 30.6776 44.3898C30.6658 44.4177 30.6673 44.4527 30.6677 44.4843C30.6723 44.8465 30.5944 45.199 30.5336 45.5519C30.471 45.9157 30.3783 46.2744 30.2955 46.6345C30.2196 46.9648 30.115 47.2861 29.9967 47.6029C29.9745 47.6623 29.959 47.7244 29.9368 47.7839C29.8955 47.8947 29.9161 47.987 29.9953 48.0764C30.2679 48.3843 30.5017 48.7224 30.7095 49.0776C30.9414 49.4735 31.1012 49.9077 31.1557 50.3592C31.2542 51.1741 31.0324 51.9011 30.4116 52.4571C30.1394 52.701 29.8361 52.9016 29.4875 53.0416C29.1755 53.1671 28.8598 53.2689 28.5366 53.349C28.3357 53.3989 28.1273 53.4176 27.9225 53.4517C27.1532 53.5798 26.3782 53.5078 25.6063 53.5057C25.2762 53.5048 24.9409 53.4693 24.6103 53.4359C24.4248 53.4172 24.2383 53.4022 24.0521 53.3839C23.8148 53.3605 23.5798 53.3155 23.3438 53.2796C23.1693 53.2529 22.9953 53.2205 22.82 53.1997C22.1788 53.124 21.5511 52.9773 20.9198 52.8466C20.2758 52.7134 19.6452 52.5299 19.0167 52.3421C18.4465 52.1717 17.8899 51.9546 17.3291 51.7522C17.054 51.6529 16.7822 51.5436 16.5115 51.4327C16.2504 51.3257 15.9891 51.2179 15.734 51.0973C15.2317 50.86 14.7262 50.6278 14.2352 50.3679C13.1603 49.7991 12.136 49.1426 11.142 48.4394C10.7324 48.1496 10.33 47.8473 9.95244 47.5119C9.64717 47.2407 9.31471 47.001 9.0085 46.7305C8.68578 46.4453 8.37784 46.1426 8.06769 45.8429C7.87806 45.6595 7.69329 45.4709 7.51229 45.2788C7.1514 44.8954 6.78626 44.5155 6.4392 44.1194C6.1974 43.8434 5.98199 43.5434 5.75622 43.253C5.51081 42.9376 5.26382 42.6233 5.02359 42.3041C4.79577 42.0013 4.59231 41.6813 4.38508 41.3636C4.0908 40.9125 3.81255 40.4521 3.54813 39.9826C3.38755 39.6973 3.22431 39.4134 3.07081 39.1242C2.94182 38.881 2.82728 38.6296 2.70285 38.3838C2.40134 37.7886 2.14368 37.1731 1.90345 36.5509C1.69778 36.0182 1.50595 35.479 1.33155 34.935C1.07011 34.1197 0.855962 33.2912 0.675594 32.4521C0.56907 31.9566 0.493969 31.4557 0.389174 30.9604C0.343453 30.7446 0.341096 30.5198 0.311716 30.3C0.279665 30.0598 0.237872 29.8209 0.203464 29.581C0.192937 29.5077 0.19058 29.433 0.188852 29.3589C0.184924 29.1896 0.196551 29.021 0.139047 28.8544C0.112494 28.7778 0.126635 28.6859 0.126006 28.601C0.124278 28.3776 0.123964 28.1541 0.124749 27.9307C0.125063 27.8429 0.0882986 27.79 0 27.7793V25.7358C0.0680308 25.7248 0.119407 25.6941 0.12145 25.6162C0.124435 25.4993 0.123964 25.3822 0.125692 25.2653C0.12852 25.0847 0.105738 24.8982 0.14266 24.7249C0.178797 24.5555 0.18571 24.3895 0.188852 24.2203C0.189952 24.1565 0.189166 24.0922 0.197651 24.0293C0.234415 23.7578 0.274794 23.4868 0.312973 23.2153C0.334969 23.0586 0.354294 22.9016 0.376762 22.745C0.408342 22.5259 0.433323 22.3053 0.476058 22.0883C0.561686 21.6533 0.666953 21.2221 0.746767 20.7861C0.847949 20.2331 1.00114 19.6941 1.16658 19.1599C1.37004 18.5024 1.60414 17.8548 1.8241 17.2026C2.03432 16.5793 2.30503 15.9812 2.58281 15.3883C2.89264 14.7271 3.20263 14.0648 3.59228 13.4451C3.80564 13.1059 3.99229 12.7492 4.20298 12.4083C4.51344 11.9056 4.85846 11.4268 5.19877 10.9443C5.62393 10.3411 6.09873 9.77933 6.56253 9.20888C6.85445 8.84972 7.18235 8.5201 7.50145 8.18441C7.79965 7.87076 8.10336 7.56207 8.41225 7.25944C8.65247 7.02404 8.90449 6.80126 9.15131 6.57289C9.15901 6.5657 9.16718 6.559 9.17535 6.55245C9.46099 6.32296 9.75558 6.1037 10.0304 5.86143C10.409 5.5275 10.812 5.22615 11.2221 4.93693C12.0106 4.38086 12.8091 3.83613 13.6593 3.38211C14.1484 3.121 14.625 2.83609 15.1358 2.61156C15.6527 2.38431 16.1645 2.14412 16.6865 1.92757C17.5763 1.55866 18.4825 1.23974 19.4123 0.994286C20.3583 0.744517 21.3067 0.507523 22.2781 0.370981C22.741 0.305983 23.1996 0.211601 23.6678 0.189882C23.6991 0.188445 23.7336 0.190681 23.7606 0.178064C23.9002 0.112747 24.0479 0.130634 24.1935 0.12728C24.3038 0.125843 24.4142 0.126641 24.5245 0.122489C24.5985 0.119615 24.6241 0.0656363 24.6334 0H28.1525C28.1619 0.0656363 28.1874 0.119615 28.2614 0.122489C28.3717 0.126801 28.4821 0.126003 28.5924 0.12728C28.7057 0.141014 28.819 0.154429 28.9321 0.168802C28.9836 0.175349 29.0353 0.191958 29.0864 0.189722C29.5063 0.171836 29.915 0.273405 30.3241 0.335528C30.9185 0.425917 31.5088 0.551281 32.0981 0.680318C33.2325 0.92849 34.3335 1.28382 35.4258 1.66949C35.9469 1.85363 36.45 2.09062 36.9613 2.30382C37.6878 2.60693 38.373 2.99675 39.0749 3.35112C39.3541 3.49214 39.6137 3.67356 39.8808 3.839C40.2902 4.09261 40.7034 4.34062 41.1055 4.60604C41.3759 4.78458 41.6317 4.98612 41.8901 5.18255C42.2317 5.44222 42.573 5.70253 42.9075 5.97146C43.1034 6.12893 43.2779 6.31418 43.4762 6.46813C43.7666 6.69362 44.0274 6.95377 44.2979 7.20019C44.7647 7.62547 45.2021 8.08588 45.631 8.5514C45.7578 8.6889 45.8796 8.83583 46.0031 8.97908C46.2018 9.20952 46.3927 9.44715 46.5861 9.68239C46.7063 9.82851 46.8279 9.97352 46.9436 10.1232C47.1943 10.4475 47.4515 10.7675 47.6878 11.1024C47.9977 11.5413 48.3051 11.9833 48.5857 12.4415C48.9217 12.9901 49.2742 13.5294 49.5526 14.1136C49.7204 14.4657 49.9217 14.8015 50.0885 15.154C50.2831 15.5647 50.4626 15.983 50.6372 16.403C50.8034 16.803 50.9671 17.205 51.1096 17.614C51.2836 18.1132 51.4364 18.6203 51.5948 19.1251C51.7752 19.7 51.9276 20.2832 52.0564 20.8722C52.1442 21.2737 52.2107 21.6801 52.2845 22.0846C52.3414 22.3957 52.3951 22.7074 52.4501 23.0189C52.4575 23.0605 52.4663 23.1021 52.4699 23.1441C52.4929 23.4071 52.4831 23.6781 52.5447 23.9314C52.6157 24.2235 52.5754 24.5208 52.6448 24.8131C52.6951 25.0245 52.6583 25.2574 52.6605 25.4806C52.6605 25.5233 52.6605 25.5659 52.6605 25.6085C52.6632 25.7558 52.6437 25.9056 52.7095 26.0455C52.7095 26.5417 52.7205 27.0382 52.7017 27.5335C52.6971 27.6544 52.6602 27.7804 52.6607 27.9072C52.6607 27.9713 52.6607 28.0352 52.6607 28.099C52.6607 28.2479 52.6655 28.397 52.6586 28.5456C52.6533 28.661 52.634 28.7758 52.6195 28.8908C52.6156 28.9223 52.6033 28.9528 52.601 28.9841C52.578 29.2791 52.5626 29.5747 52.5325 29.8687C52.5067 30.12 52.4666 30.37 52.4286 30.6199C52.3826 30.9222 52.3336 31.224 52.2833 31.5257C52.2453 31.7542 52.211 31.984 52.1614 32.2102C52.0528 32.7052 51.9403 33.1997 51.8207 33.692C51.6683 34.32 51.4587 34.9305 51.2569 35.5431C51.0083 36.2972 50.733 37.0409 50.3915 37.7578C50.1366 38.2928 49.898 38.8364 49.6276 39.3631C49.3866 39.8324 49.1209 40.2895 48.8494 40.7416C48.5887 41.1755 48.3196 41.6054 48.0303 42.0197C47.7054 42.4852 47.3569 42.934 47.0126 43.3849C46.764 43.7106 46.5118 44.0338 46.2487 44.3473C46.0188 44.6212 45.7761 44.8845 45.5306 45.1442C45.2698 45.4203 44.9985 45.686 44.7331 45.9577C44.3509 46.349 43.9468 46.7155 43.5249 47.062C43.4358 47.1353 43.3599 47.2252 43.2707 47.2984C43.0963 47.4413 43.0922 47.4394 43.1697 47.6631C43.2424 47.873 43.326 48.079 43.3945 48.2901C43.5353 48.7245 43.6407 49.1657 43.6116 49.6292C43.6083 49.6822 43.6101 49.7355 43.6113 49.7886C43.6289 50.5254 43.4333 51.2132 43.1279 51.8706C42.9585 52.235 42.7433 52.5731 42.4631 52.865C42.3546 52.9782 42.2732 53.1191 42.1604 53.2269C42.0245 53.3565 41.8652 53.4605 41.7215 53.5824C41.3393 53.9067 40.8948 54.115 40.436 54.2949C40.262 54.3633 40.0813 54.4144 39.9036 54.4735C39.8641 54.474 39.8247 54.4749 39.7853 54.4749C39.7018 54.4746 39.658 54.5169 39.6522 54.6009H38.144C38.1418 54.5179 38.1002 54.4752 38.0182 54.4738C37.9345 54.4736 37.8507 54.4733 37.767 54.4732L37.7678 54.4744ZM3.394 16.6047C3.4306 16.6564 3.47412 16.6534 3.5299 16.6341C4.65186 16.2443 5.77444 15.8564 6.89687 15.468C6.92625 15.4577 6.96412 15.4555 6.98297 15.4351C7.00905 15.4066 7.02084 15.3645 7.0389 15.3282C7.12265 15.3068 7.20655 15.2854 7.29029 15.2639C7.32611 15.2774 7.36727 15.31 7.39666 15.3014C7.67648 15.2185 7.95583 15.1336 8.23204 15.0393C8.63723 14.9014 9.03898 14.7532 9.44339 14.6133C10.6178 14.2068 11.793 13.8023 12.9678 13.3967C13.0269 13.3762 13.0899 13.3601 13.1412 13.3266C13.1703 13.3076 13.1793 13.2571 13.1972 13.2207L13.4486 13.1563C13.4844 13.1697 13.5257 13.2025 13.5551 13.1939C13.8351 13.1108 14.1147 13.0257 14.3913 12.9313C14.7174 12.8198 15.0394 12.6953 15.3651 12.5824C16.4711 12.1986 17.5771 11.8145 18.6849 11.4362C19.1889 11.264 19.6986 11.1088 20.2034 10.9386C20.6488 10.7883 21.0903 10.6256 21.5346 10.4718C22.6509 10.0858 23.7672 9.69948 24.885 9.3178C25.3791 9.149 25.8779 8.99425 26.3727 8.82672C26.8179 8.67597 27.2599 8.51483 27.7044 8.36136C28.8207 7.97553 29.9368 7.58858 31.0547 7.20769C31.6282 7.01238 32.2067 6.83192 32.7811 6.63917C33.0881 6.53616 33.3902 6.41878 33.6961 6.31242C34.7623 5.94144 35.8283 5.5695 36.8962 5.20379C37.4498 5.01423 38.0074 4.83696 38.5635 4.65539C38.624 4.63558 38.6391 4.58927 38.6473 4.53497C38.6724 4.36026 38.5566 4.29494 38.4281 4.23027C37.5384 3.78263 36.6581 3.31567 35.7287 2.95251C34.891 2.62513 34.0499 2.30941 33.1809 2.07784C32.6474 1.93571 32.1152 1.78272 31.5751 1.67189C31.036 1.56138 30.4952 1.45422 29.9459 1.39561C29.6055 1.3592 29.2692 1.28254 28.9249 1.27631C28.904 1.27599 28.8813 1.27711 28.8628 1.26945C28.6716 1.19056 28.4708 1.22026 28.2731 1.21419C28.1896 1.21164 28.0991 1.22617 28.024 1.19838C27.8701 1.14137 27.7146 1.15143 27.5584 1.15127C26.8882 1.14999 26.2179 1.1476 25.5477 1.15223C25.2669 1.15414 24.9821 1.11438 24.7073 1.21148C24.3723 1.19487 24.0413 1.23831 23.7099 1.27791C23.6375 1.28654 23.5633 1.28222 23.4912 1.29292C23.255 1.32806 23.0198 1.36942 22.7839 1.40455C22.4549 1.45358 22.1235 1.48887 21.7967 1.54908C21.398 1.6227 21.0005 1.70718 20.6062 1.80284C19.9168 1.97021 19.2354 2.16983 18.5611 2.39053C18.1144 2.53682 17.6753 2.70786 17.2374 2.88017C16.6726 3.10231 16.1123 3.33675 15.5724 3.61718C15.0976 3.86376 14.6227 4.11033 14.155 4.37016C13.7614 4.58879 13.3724 4.81732 12.9917 5.05831C12.638 5.2822 12.2947 5.52383 11.9527 5.76625C11.5853 6.02672 11.2229 6.2947 10.8629 6.5657C10.7921 6.61904 10.7044 6.6751 10.7093 6.8011C10.7495 6.82633 10.7907 6.85987 10.8373 6.87983C11.0105 6.95377 11.1827 7.03123 11.36 7.09287C12.418 7.46018 13.4955 7.73582 14.6183 7.79475C14.6596 7.79698 14.7003 7.80928 14.7416 7.81471C14.8549 7.82924 14.9682 7.85416 15.0816 7.85448C15.9194 7.85783 16.7572 7.85655 17.5951 7.85591C17.6787 7.85591 17.767 7.86597 17.845 7.84282C18.1592 7.74955 18.488 7.81263 18.8056 7.7347C19.0261 7.68056 19.2645 7.70212 19.4854 7.64878C19.9809 7.52901 20.4834 7.44581 20.9759 7.30383C21.7582 7.0785 22.4894 6.76054 23.151 6.28032C23.2356 6.219 23.3185 6.15384 23.3938 6.0815C23.5308 5.9499 23.6646 5.8148 23.7941 5.67554C24.1339 5.30999 24.3065 4.88312 24.2582 4.37192C24.2321 4.09564 23.9709 3.6504 23.6378 3.564C23.2371 3.4602 22.8975 3.50587 22.6041 3.81729C22.5086 3.91869 22.4236 4.02394 22.3719 4.15393C22.274 4.40003 22.1064 4.55685 21.8218 4.59167C21.7995 4.584 21.7601 4.57106 21.721 4.55717C21.3662 4.43085 21.2415 4.17405 21.3426 3.81074C21.3866 3.65311 21.4699 3.52216 21.5532 3.38706C21.7518 3.06478 22.0201 2.80911 22.3487 2.64462C22.9179 2.35955 23.5133 2.33336 24.1071 2.5793C24.6628 2.80958 25.0231 3.2272 25.2193 3.801C25.3103 4.06673 25.3255 4.33742 25.3288 4.6153C25.3348 5.10047 25.1824 5.5275 24.9333 5.93378C24.7654 6.20782 24.555 6.43922 24.3327 6.66488C24.1032 6.89788 23.867 7.11922 23.595 7.30303C23.0521 7.67002 22.4685 7.95173 21.855 8.1678C21.5304 8.28215 21.1948 8.3636 20.865 8.46293C20.3148 8.6287 19.746 8.70216 19.1839 8.80564C18.9088 8.85627 18.6247 8.85579 18.3447 8.87847C18.3135 8.88102 18.2794 8.87527 18.2513 8.88613C18.0385 8.9679 17.8171 8.93692 17.5988 8.94139C17.3998 8.94554 17.1937 8.91296 17.0039 8.95608C16.7635 9.01054 16.5264 9.00047 16.2872 9.00415C16.1516 9.00622 16.0105 9.01613 15.8816 8.98307C15.7462 8.94841 15.6138 8.94298 15.4782 8.94219C15.2687 8.94107 15.0593 8.94394 14.8499 8.94059C14.7669 8.93931 14.684 8.92669 14.6013 8.91711C14.4982 8.90514 14.3955 8.88996 14.2924 8.87831C14.0445 8.85004 13.7948 8.83359 13.549 8.79255C13.2929 8.74959 13.0416 8.67725 12.7863 8.62822C11.9524 8.46804 11.149 8.21044 10.3745 7.85895C10.2029 7.78101 10.0301 7.70596 9.8577 7.6301C9.75102 7.58315 9.65738 7.59784 9.56924 7.68024C9.35446 7.8813 9.13356 8.07566 8.91988 8.278C8.78194 8.40847 8.64965 8.54533 8.51956 8.68395C8.13745 9.09102 7.75739 9.50033 7.37717 9.90948C7.34858 9.94014 7.3258 9.97624 7.2994 10.0093C7.14841 10.1981 6.99743 10.3868 6.84581 10.5751C6.70079 10.7554 6.55012 10.9311 6.41107 11.1158C6.19583 11.4017 5.97995 11.6877 5.77979 11.9845C5.49054 12.4129 5.206 12.8452 4.93624 13.2865C4.65531 13.7459 4.37706 14.2073 4.14218 14.6947C3.94468 15.1048 3.72111 15.5018 3.52032 15.9103C3.44176 16.0702 3.39337 16.2454 3.33131 16.4137C3.24709 16.5376 3.25306 16.5557 3.39415 16.6052L3.394 16.6047ZM35.129 49.4299C35.108 49.6966 35.1472 49.9585 35.1919 50.2196C35.2255 50.4168 35.2542 50.6161 35.3045 50.8092C35.4016 51.1821 35.5766 51.5232 35.7881 51.8389C36.1592 52.3929 36.6522 52.8133 37.2416 53.114C37.3905 53.19 37.5429 53.2687 37.7027 53.311C38.0143 53.3936 38.3266 53.4853 38.6572 53.4551C38.7923 53.4428 38.9296 53.446 39.0654 53.4543C39.461 53.4786 39.8387 53.377 40.1933 53.2307C40.7674 52.9937 41.2695 52.6446 41.6722 52.1468C41.955 51.7969 42.1742 51.4202 42.334 51.0016C42.448 50.703 42.5172 50.3906 42.5367 50.0759C42.5588 49.7178 42.5587 49.3575 42.4842 48.9984C42.3747 48.4698 42.1536 47.9979 41.8626 47.5515C41.7043 47.3088 41.489 47.1229 41.295 46.9154C41.0159 46.6169 40.6687 46.4117 40.3031 46.261C39.8491 46.0736 39.3705 45.9543 38.8701 45.9805C38.7865 45.9848 38.7026 45.9805 38.6188 45.9812C38.2388 45.9839 37.8675 46.0615 37.523 46.2099C36.8914 46.4818 36.3322 46.8582 35.918 47.4389C35.5432 47.9645 35.2954 48.536 35.1909 49.1742C35.0426 49.2381 35.0332 49.2767 35.129 49.4299ZM9.61527 20.1816C9.69902 20.1602 9.78292 20.1388 9.86666 20.1173C9.90248 20.1307 9.94365 20.1634 9.97303 20.1548C10.2527 20.0719 10.5324 19.9878 10.8081 19.8927C11.3014 19.7228 11.7918 19.5436 12.2843 19.3708C12.5503 19.2776 12.8174 19.1872 13.0858 19.1008C13.156 19.0781 13.1911 19.0392 13.1972 18.9679C13.2019 18.8678 13.1816 18.7859 13.0911 18.7204C12.9304 18.604 12.7571 18.4936 12.6291 18.3449C12.3752 18.0501 12.1591 17.7266 11.9956 17.3655C11.84 17.0217 11.7502 16.6697 11.7516 16.2923C11.7522 16.1116 11.7459 15.9305 11.7538 15.7498C11.7588 15.6349 11.7795 15.5197 11.8017 15.4063C11.8375 15.2228 11.8802 15.0408 11.9267 14.8281C11.8502 14.8368 11.7998 14.8338 11.7557 14.8491C11.3508 14.9895 10.9481 15.1363 10.5429 15.2752C8.43644 15.9978 6.32937 16.7189 4.22231 17.4401C3.78694 17.5891 3.35158 17.7376 2.91511 17.8831C2.76868 17.932 2.65603 17.9971 2.61565 18.1707C2.57747 18.3344 2.4964 18.4871 2.44486 18.6482C2.3319 19.0008 2.22522 19.3555 2.11744 19.7097C2.10628 19.7466 2.10377 19.7862 2.09434 19.8416C2.163 19.8496 2.21281 19.8554 2.26277 19.8611C2.29938 19.913 2.3429 19.9106 2.39867 19.8908C3.02776 19.668 3.65779 19.448 4.28735 19.2263C4.31626 19.2161 4.34988 19.2054 4.36858 19.1835C4.38728 19.1616 4.38995 19.1255 4.39953 19.0957C4.48327 19.0743 4.56717 19.0529 4.65092 19.0313C4.68674 19.0447 4.72806 19.0775 4.75744 19.0689C5.03726 18.9858 5.31693 18.9017 5.59298 18.8065C5.96817 18.6773 6.33849 18.5337 6.71368 18.4047C7.46453 18.1464 8.21774 17.8951 8.96922 17.6384C9.22594 17.5508 9.48094 17.457 9.73562 17.3633C9.97617 17.2748 10.2038 17.2706 10.4155 17.4436C10.4532 17.4744 10.5104 17.4808 10.5584 17.4984C10.6397 17.56 10.6177 17.6501 10.6205 17.7328C10.6276 17.9455 10.5456 18.1024 10.3437 18.1832C10.2759 18.2103 10.21 18.2431 10.1411 18.2665C9.57882 18.4585 9.01525 18.6466 8.45357 18.8406C8.16762 18.9393 7.88685 19.0534 7.60059 19.1509C6.35577 19.5753 5.10938 19.995 3.8644 20.4191C3.509 20.5402 3.15722 20.6727 2.80246 20.796C2.5173 20.8952 2.2304 20.9888 1.94383 21.0838C1.81389 21.1269 1.72936 21.2125 1.70391 21.3503C1.65819 21.5988 1.61514 21.8478 1.57099 22.0964C1.4508 22.1253 1.44467 22.1381 1.5094 22.2245C1.50893 22.2882 1.50862 22.3519 1.50815 22.4157C1.42854 22.4415 1.39979 22.4869 1.42189 22.5519C1.42849 22.5709 1.43792 22.5891 1.44609 22.6076C1.44609 22.714 1.44593 22.8202 1.44577 22.9265C1.45426 22.9962 1.47987 23.0578 1.56078 23.0425C1.64216 23.0272 1.72104 22.996 1.79975 22.9681C2.19332 22.8277 2.58438 22.6798 2.98016 22.5463C3.56399 22.3494 4.15223 22.1661 4.73607 21.9696C5.18149 21.8198 5.62251 21.6565 6.06668 21.5027C7.17261 21.1199 8.27917 20.7391 9.38542 20.3571C9.44449 20.3367 9.50749 20.3206 9.55887 20.287C9.58794 20.268 9.59689 20.2176 9.61496 20.1812L9.61527 20.1816ZM39.3659 5.45771C39.2426 5.41667 39.1486 5.48342 39.0541 5.51568C37.7076 5.97514 36.3639 6.44242 35.0175 6.90171C33.2061 7.51959 31.3927 8.13107 29.581 8.74767C29.2941 8.84541 29.0128 8.96039 28.7259 9.05861C26.697 9.75314 24.6672 10.4451 22.6379 11.1385C20.5987 11.8353 18.5598 12.533 16.5206 13.2301C15.7286 13.5008 14.9374 13.7736 14.1438 14.0396C13.8384 14.142 13.5692 14.2974 13.3664 14.5526C13.2487 14.7006 13.1251 14.8518 13.0459 15.0218C12.9123 15.3083 12.798 15.6064 12.8187 15.9367C12.8259 16.0533 12.821 16.1708 12.8198 16.2879C12.8151 16.7154 13.0019 17.0728 13.2544 17.3874C13.4508 17.632 13.6811 17.8473 13.9658 18.0029C14.3975 18.2389 14.8406 18.3411 15.3195 18.213C15.5305 18.1567 15.7358 18.0778 15.9428 18.0065C17.4167 17.4995 18.8899 16.991 20.3643 16.4856C20.5519 16.4212 20.7461 16.377 20.9337 16.3129C21.3393 16.1743 21.742 16.0266 22.1472 15.8867C23.5811 15.3918 25.0151 14.8978 26.4498 14.406C26.6572 14.3349 26.8707 14.2827 27.0781 14.2113C27.4736 14.0754 27.8653 13.9278 28.261 13.7926C29.3599 13.417 30.4605 13.0466 31.5594 12.671C31.9254 12.5458 32.2822 12.3888 32.6537 12.2847C33.3816 12.0806 34.0842 11.8163 34.7541 11.4627C35.2762 11.1872 35.7608 10.8605 36.162 10.4157C36.4375 10.1105 36.6164 9.75857 36.6926 9.35293C36.6997 9.31556 36.6813 9.27324 36.6716 9.21351C36.5686 9.24162 36.4791 9.2611 36.3928 9.29065C34.7994 9.83602 33.2064 10.383 31.6132 10.9287C29.5646 11.6306 27.5158 12.3316 25.4672 13.033C23.5372 13.6937 21.6079 14.3561 19.6771 15.0144C18.2907 15.4871 16.9029 15.9554 15.5149 16.4234C15.205 16.528 14.9562 16.4164 14.8159 16.1259C14.7504 15.9905 14.754 15.8613 14.8228 15.7296C14.911 15.5608 15.0475 15.456 15.2241 15.3948C15.7674 15.2061 16.3081 15.009 16.8525 14.8237C18.3967 14.2983 19.9431 13.7785 21.4875 13.2534C21.8537 13.1289 22.2146 12.9883 22.5804 12.8623C23.9255 12.3989 25.2716 11.9391 26.617 11.4768C28.1801 10.9397 29.7426 10.4009 31.3061 9.86493C31.5135 9.79386 31.7272 9.7418 31.9344 9.67041C32.508 9.47318 33.0787 9.26685 33.6524 9.07058C34.7709 8.68794 35.8924 8.31377 37.0098 7.92794C37.7517 7.67162 38.4267 7.3024 38.9507 6.68851C39.1456 6.46014 39.2988 6.21037 39.376 5.91813C39.4164 5.76529 39.4247 5.60799 39.3661 5.45819L39.3659 5.45771Z" fill="#5F7E5F"/>
<path id="Vector_2" d="M168.035 26.0561V24.0707C168.233 23.9216 168.457 23.8321 168.67 23.7248C168.884 23.6165 169.107 23.5265 169.324 23.4219C169.54 23.3171 169.751 23.1978 169.969 23.097C170.183 22.9985 170.375 22.8441 170.604 22.8096C170.7 22.8905 170.674 22.9814 170.674 23.0619C170.676 23.7734 170.675 24.4847 170.675 25.1961C170.675 25.4828 170.676 25.7694 170.676 26.0561C170.688 26.1141 170.7 26.172 170.716 26.2477H173V27.0141C172.279 27.0178 171.557 27.0212 170.835 27.0263C170.817 27.0263 170.799 27.0443 170.76 27.0649C170.754 27.1122 170.743 27.1727 170.739 27.2339C170.735 27.3081 170.738 27.3827 170.738 27.4573C170.738 29.8189 170.738 32.1805 170.738 34.5422C170.738 34.9055 170.805 35.2581 170.913 35.601C170.96 35.7498 171.039 35.891 171.121 36.0247C171.37 36.4311 171.701 36.7479 172.147 36.9218C172.282 36.9745 172.427 37.0023 172.567 37.0415C172.711 37.0814 172.745 37.1124 172.746 37.2572C172.747 37.4461 172.769 37.6373 172.725 37.8376C172.555 37.8909 172.39 37.8764 172.226 37.8526C172.165 37.8436 172.105 37.8127 172.044 37.8103C171.459 37.7869 170.923 37.5793 170.399 37.3425C170.094 37.2048 169.801 37.0368 169.514 36.8634C169.085 36.6037 168.745 36.2446 168.502 35.8017C168.391 35.5994 168.302 35.3806 168.233 35.1597C168.079 34.6725 168.031 34.1702 168.033 33.6574C168.041 31.5831 168.036 29.5086 168.035 27.4341C168.035 27.3089 168.054 27.1807 168.003 27.0408C167.932 27.0319 167.862 27.016 167.792 27.0154C167.499 27.0125 167.206 27.0154 166.913 27.0133C166.821 27.0127 166.729 27.0031 166.618 26.9964C166.596 26.7342 166.533 26.4887 166.654 26.2473C166.88 26.2474 167.107 26.2535 167.334 26.2461C167.557 26.2388 167.784 26.2803 168.013 26.2156C168.021 26.1578 168.028 26.107 168.035 26.0561Z" fill="#5F7E5F"/>
<path id="Vector_3" d="M82.9508 26.4395C82.9561 26.5127 82.9511 26.5885 82.9687 26.6586C83.0341 26.9183 83.029 27.1746 82.9706 27.4356C82.9458 27.5464 82.9563 27.6652 82.9508 27.7805C82.9508 27.9295 82.9506 28.0785 82.9505 28.2275C82.9602 28.4018 82.9404 28.5722 82.8876 28.7384C82.8876 28.781 82.8876 28.8235 82.8876 28.8662C82.7753 29.5979 82.6537 30.3277 82.3944 31.0243C82.3096 31.2522 82.218 31.4779 82.1203 31.7003C82.0144 31.9418 81.8975 32.1777 81.7779 32.4129C81.5801 32.802 81.329 33.1538 81.0916 33.5145C80.9537 33.7241 80.7675 33.9008 80.6033 34.0926C80.5487 34.1565 80.4963 34.2228 80.4398 34.2849C80.3771 34.3539 80.3125 34.4215 80.2451 34.4858C80.1997 34.5291 80.1417 34.5598 80.1001 34.6059C79.6721 35.0799 79.1513 35.4359 78.6215 35.773C78.341 35.9515 78.0595 36.1361 77.7376 36.2476C77.4819 36.3361 77.2417 36.471 76.9952 36.5867C76.4726 36.8318 75.9256 37.0055 75.3734 37.1651C74.8529 37.3155 74.3241 37.4343 73.7924 37.5278C73.4254 37.5923 73.0602 37.6974 72.6811 37.6798C72.3501 37.7996 71.9972 37.7047 71.6585 37.7933C71.4715 37.8422 71.2629 37.804 71.0641 37.8071C70.8976 37.8095 70.7309 37.794 70.5676 37.8561C70.5024 37.8809 70.4228 37.8698 70.3497 37.87C69.3237 37.8708 68.2978 37.8711 67.2717 37.8697C67.1908 37.8697 67.1098 37.8559 67.0138 37.8473C67.0043 37.7719 66.9929 37.7113 66.9896 37.6502C66.9857 37.576 66.9884 37.5014 66.9884 37.4268C66.9884 30.6815 66.9884 23.9361 66.9884 17.1907C66.9884 17.1056 66.9819 17.0197 66.9918 16.9357C66.9977 16.8873 67.0305 16.8424 67.0511 16.796C68.2032 16.796 69.3552 16.796 70.5073 16.796C70.7156 16.7961 70.924 16.7953 71.1323 16.7969C71.2773 16.798 71.4204 16.7944 71.5645 16.8412C71.66 16.8721 71.7705 16.8562 71.8743 16.8602C72.1226 16.8697 72.3738 16.83 72.6173 16.9167C72.6642 16.9335 72.7206 16.9231 72.7726 16.924C72.9177 16.9268 73.064 16.9116 73.2035 16.974C73.2397 16.9902 73.2859 16.9887 73.327 16.9866C73.6515 16.9708 73.9655 17.0357 74.2804 17.1026C74.3808 17.124 74.4878 17.1128 74.5916 17.1166C74.6803 17.2209 74.8001 17.165 74.9062 17.1797C74.9481 17.2008 74.9899 17.2219 75.0319 17.243C75.1785 17.2644 75.3251 17.2859 75.4718 17.3073C75.5138 17.3284 75.5555 17.3495 75.5975 17.3707C75.7477 17.411 75.8968 17.4574 76.0486 17.4905C76.7349 17.6398 77.3812 17.9095 78.0185 18.1944C78.7255 18.5105 79.3978 18.895 79.9801 19.4228C80.0156 19.4551 80.074 19.461 80.1218 19.4794C80.3732 19.7349 80.6245 19.9903 80.8759 20.2458H80.8758C80.9006 20.3022 80.9133 20.37 80.9521 20.4133C81.3345 20.8395 81.6166 21.3341 81.8772 21.8397C82.2947 22.6497 82.5703 23.5132 82.7517 24.4075C82.7852 24.5722 82.8011 24.7405 82.8249 24.9072C82.8458 25.0137 82.8669 25.1201 82.8878 25.2266C82.8878 25.2905 82.8878 25.3544 82.8878 25.4183C82.9406 25.5845 82.9602 25.7551 82.9506 25.9291C82.9506 26.0994 82.9508 26.2698 82.9509 26.44L82.9508 26.4395ZM73.4607 36.7202C73.5836 36.807 73.6062 36.8013 73.7124 36.6574C73.7333 36.6571 73.7541 36.6569 73.775 36.6568C73.8963 36.7428 73.914 36.7369 73.9638 36.5938C74.0056 36.5935 74.0474 36.5932 74.0892 36.593C74.152 36.6769 74.2345 36.6635 74.3159 36.6355C74.777 36.4773 75.2393 36.3216 75.6976 36.155C75.8338 36.1055 75.9617 36.029 76.0869 35.9534C76.124 35.9311 76.1383 35.8699 76.163 35.8266C76.2945 35.7147 76.4213 35.5946 76.6027 35.5714C76.7066 35.5817 76.7964 35.5424 76.883 35.4908C76.9492 35.4514 76.9776 35.3913 76.9798 35.3156C77.0144 35.2771 77.0447 35.2332 77.0841 35.2008C77.246 35.0679 77.4153 34.9443 77.5729 34.8067C77.8752 34.5427 78.1285 34.2293 78.3769 33.9163C78.8584 33.3096 79.2149 32.6226 79.5257 31.914C79.6606 31.6061 79.7571 31.2779 79.8437 30.9515C79.9489 30.554 80.0421 30.1514 80.1073 29.7455C80.1439 29.5179 80.2135 29.29 80.1864 29.0532C80.1827 29.022 80.1823 28.9867 80.1929 28.9583C80.2696 28.7528 80.242 28.5388 80.2484 28.3273C80.2517 28.2215 80.2574 28.1156 80.2671 28.01C80.2787 27.8842 80.3116 27.7583 80.3078 27.6333C80.2916 27.0934 80.3491 26.5526 80.2558 26.0123C80.2096 25.7445 80.2275 25.466 80.1955 25.1909C80.1475 24.7803 80.0794 24.3753 79.9887 23.9744C79.7961 23.1221 79.5013 22.308 79.0421 21.5638C78.8484 21.25 78.6513 20.9357 78.4275 20.6444C78.1984 20.3462 77.9494 20.0648 77.6648 19.8124C77.3019 19.4902 76.9231 19.1999 76.5108 18.9455C75.8523 18.5391 75.1499 18.251 74.405 18.0659C74.1027 17.9908 73.8026 17.9035 73.4896 17.8726C73.3149 17.8556 73.1448 17.7962 72.9705 17.7701C72.7444 17.7363 72.5165 17.6968 72.289 17.6943C71.4935 17.6852 70.6977 17.6903 69.9022 17.692C69.8427 17.692 69.7831 17.7086 69.7219 17.7179C69.671 17.8683 69.6911 18.0071 69.6911 18.143C69.6901 24.2496 69.6901 30.3562 69.6903 36.4627C69.6903 36.5478 69.6854 36.6334 69.6926 36.7179C69.6978 36.7777 69.72 36.8358 69.7341 36.8936C69.791 36.9011 69.8322 36.9112 69.8733 36.9113C70.4492 36.9126 71.0248 36.9126 71.6007 36.9123C71.6528 36.9123 71.7102 36.9193 71.7562 36.9006C71.9179 36.835 72.0855 36.8526 72.2522 36.8484C72.3251 36.8466 72.3996 36.847 72.4706 36.8326C72.7977 36.7662 73.1251 36.708 73.4607 36.7205V36.7202Z" fill="#5F7E5F"/>
<path id="Vector_4" d="M151.949 37.8075C151.802 37.82 151.664 37.7806 151.523 37.7411C151.174 37.6429 150.826 37.5388 150.509 37.3591C150.148 37.155 149.781 36.9587 149.474 36.6702C149.432 36.6307 149.366 36.6184 149.31 36.5935C149.308 36.5106 149.266 36.4678 149.184 36.4656C149.138 36.4084 149.097 36.3463 149.045 36.2949C148.633 35.8817 148.311 35.4026 148.057 34.8761C147.943 34.6383 147.821 34.401 147.738 34.1516C147.631 33.833 147.548 33.5067 147.476 33.1758C147.409 32.8722 147.458 32.5641 147.374 32.2628C147.329 32.0981 147.339 31.9055 147.395 31.7276C147.417 31.6585 147.423 31.5818 147.423 31.5085C147.423 31.1684 147.472 30.8328 147.556 30.5067C147.757 29.7193 148.107 29.0033 148.588 28.3497C148.821 28.0322 149.096 27.7564 149.382 27.4951C149.643 27.2556 149.936 27.0459 150.256 26.8868C150.518 26.7565 150.784 26.6344 151.051 26.5128C151.289 26.4039 151.539 26.3384 151.801 26.3079C151.976 26.2877 152.146 26.2287 152.326 26.2476C152.389 26.2476 152.452 26.2476 152.515 26.2476C152.745 26.2476 152.975 26.2476 153.206 26.2476C153.332 26.2476 153.457 26.2476 153.583 26.2477C153.77 26.2472 153.959 26.2381 154.139 26.3092C154.458 26.2896 154.75 26.4165 155.055 26.4793C155.314 26.5326 155.551 26.635 155.782 26.7584C155.803 26.7588 155.824 26.7589 155.845 26.7591C155.887 26.8244 155.929 26.8249 155.971 26.7588C155.97 23.4594 155.97 20.1598 155.97 16.8605C155.971 16.8392 155.971 16.8181 155.971 16.7969C156.013 16.7966 156.055 16.7963 156.096 16.7959C156.808 16.7961 157.52 16.7963 158.232 16.7966C158.305 16.7966 158.379 16.7942 158.452 16.7983C158.609 16.8073 158.66 16.8558 158.67 17.0075C158.676 17.0923 158.672 17.1776 158.672 17.2627C158.672 23.9961 158.672 30.7294 158.672 37.4627C158.672 37.5787 158.672 37.6946 158.672 37.8195C158.606 37.8398 158.559 37.8669 158.511 37.8671C157.705 37.869 156.899 37.8676 156.093 37.8661C156.073 37.8661 156.053 37.8556 156.013 37.8446C156.001 37.7959 155.977 37.7381 155.973 37.679C155.966 37.5731 155.97 37.4664 155.97 37.3601C155.97 37.3406 155.972 37.3205 155.969 37.3016C155.942 37.1616 155.913 37.1512 155.782 37.2321C155.589 37.3093 155.392 37.3773 155.205 37.4658C154.9 37.6098 154.575 37.6761 154.25 37.7445C154.045 37.7874 153.834 37.7796 153.633 37.8158C153.114 37.9097 152.594 37.8507 152.075 37.8698C152.033 37.8491 151.991 37.8285 151.949 37.8077V37.8075ZM155.971 36.4092V36.1072C155.971 33.4708 155.971 30.8343 155.971 28.1977C155.971 28.1552 155.967 28.1122 155.971 28.0702C155.991 27.8835 155.904 27.7631 155.741 27.6983C155.508 27.6058 155.271 27.524 155.037 27.433C154.71 27.3056 154.357 27.3554 154.024 27.2722C153.994 27.2649 153.961 27.2709 153.93 27.2759C153.684 27.3153 153.438 27.3556 153.193 27.3963C152.859 27.4519 152.547 27.5743 152.265 27.7594C152.012 27.9255 151.773 28.1152 151.535 28.3035C151.454 28.3676 151.393 28.4581 151.326 28.5385C151.278 28.5945 151.234 28.6536 151.19 28.712C151.088 28.8457 150.975 28.9725 150.888 29.1156C150.712 29.4037 150.556 29.7017 150.435 30.0209C150.209 30.62 150.09 31.2394 150.068 31.8766C150.057 32.1925 150.026 32.5135 150.122 32.8257C150.137 32.8744 150.124 32.9315 150.127 32.9845C150.132 33.0477 150.133 33.1124 150.147 33.1734C150.278 33.7089 150.421 34.2386 150.684 34.7284C150.976 35.271 151.303 35.7765 151.797 36.161C152.124 36.4154 152.467 36.6275 152.855 36.7631C153.101 36.8493 153.358 36.8909 153.614 36.9401C153.845 36.9845 154.074 36.9928 154.298 36.965C154.596 36.9281 154.893 36.8623 155.182 36.7765C155.45 36.6967 155.715 36.5961 155.971 36.4091L155.971 36.4092Z" fill="#5F7E5F"/>
<path id="Vector_5" d="M110.16 33.9747C110.139 33.9109 110.117 33.8471 110.096 33.7833C110.087 33.7422 110.082 33.6991 110.067 33.6603C109.767 32.9032 109.467 32.1463 109.165 31.3905C109.15 31.3544 109.112 31.3279 109.091 31.3034C109.047 31.2993 109.016 31.2939 108.984 31.2939C106.765 31.2932 104.545 31.2929 102.325 31.294C102.265 31.294 102.204 31.3105 102.135 31.3205C102 31.6717 101.865 32.0155 101.736 32.3618C101.536 32.8971 101.344 33.435 101.142 33.9696C100.904 34.6032 100.659 35.2344 100.418 35.8668C100.255 36.2918 100.085 36.7142 99.9362 37.1438C99.8605 37.362 99.7254 37.5625 99.7276 37.8064C99.686 37.828 99.6442 37.8495 99.6025 37.8711C99.1837 37.8711 98.7646 37.8711 98.3458 37.8711C98.2644 37.8687 98.2221 37.8265 98.2207 37.7432C98.2872 37.5897 98.3585 37.4381 98.419 37.2823C98.5679 36.8977 98.7125 36.5112 98.8578 36.1251C98.9882 35.7787 99.1167 35.4315 99.247 35.0851C99.3885 34.7089 99.5309 34.3331 99.6732 33.9572C99.8567 33.4725 100.041 32.988 100.224 32.5033C100.351 32.1669 100.477 31.8301 100.604 31.4938C100.776 31.0388 100.95 30.5843 101.122 30.1295C101.268 29.7438 101.414 29.3578 101.56 28.972C101.729 28.5269 101.897 28.0818 102.065 27.6368C102.211 27.2509 102.358 26.8653 102.504 26.4794C102.672 26.0343 102.84 25.5891 103.008 25.144C103.155 24.7582 103.301 24.3724 103.448 23.987C103.61 23.5622 103.776 23.139 103.935 22.7129C104.139 22.1679 104.334 21.6196 104.538 21.0749C104.776 20.4412 105.02 19.8099 105.262 19.1777C105.462 18.654 105.665 18.1318 105.861 17.6065C105.961 17.3394 106.047 17.0669 106.139 16.7969H106.138C106.18 16.7969 106.222 16.7969 106.263 16.7969H106.263C106.289 16.9098 106.301 17.0281 106.342 17.1348C106.598 17.7953 106.862 18.453 107.121 19.1122C107.462 19.9781 107.801 20.8446 108.14 21.711C108.418 22.4197 108.695 23.1286 108.973 23.8374C109.201 24.418 109.43 24.9981 109.657 25.5792C109.872 26.1308 110.084 26.6838 110.299 27.2356C110.525 27.8169 110.752 28.3977 110.981 28.9781C111.251 29.6669 111.524 30.3552 111.796 31.0433C111.979 31.5055 112.167 31.9657 112.347 32.4288C112.65 33.2071 112.948 33.9875 113.25 34.766C113.518 35.4559 113.788 36.1449 114.06 36.833C114.181 37.1377 114.309 37.4396 114.433 37.7428C114.433 37.7853 114.433 37.8276 114.433 37.8701C113.553 37.8704 112.673 37.8708 111.794 37.8711C111.731 37.807 111.667 37.743 111.604 37.679C111.629 37.5486 111.53 37.4648 111.49 37.3586C111.424 37.1812 111.374 36.9974 111.306 36.8211C111.027 36.1019 110.747 35.3836 110.462 34.667C110.369 34.4332 110.261 34.2055 110.16 33.9749L110.16 33.9747ZM105.761 22.1605C105.755 22.0751 105.731 21.9988 105.658 21.9462C105.61 22.0081 105.582 22.0795 105.572 22.1604C105.481 22.2302 105.467 22.338 105.432 22.4374C105.283 22.8557 105.129 23.2723 104.976 23.689C104.72 24.3834 104.463 25.0771 104.207 25.7716C104.061 26.1685 103.919 26.5668 103.773 26.9635C103.554 27.5585 103.333 28.1529 103.111 28.7473C102.938 29.213 102.762 29.6774 102.59 30.1439C102.552 30.2499 102.495 30.3548 102.51 30.4668C102.538 30.4891 102.553 30.5133 102.569 30.5134C104.609 30.5187 106.648 30.5222 108.688 30.5244C108.727 30.5244 108.765 30.5074 108.822 30.4939C108.795 30.3914 108.778 30.2996 108.747 30.2124C108.581 29.7438 108.414 29.2758 108.244 28.809C107.986 28.104 107.725 27.4004 107.466 26.696C107.324 26.309 107.184 25.921 107.042 25.5343C106.822 24.9394 106.599 24.3455 106.38 23.7505C106.226 23.3338 106.079 22.9149 105.923 22.4992C105.879 22.3825 105.816 22.2733 105.761 22.1605H105.761Z" fill="#5F7E5F"/>
<path id="Vector_6" d="M122.352 16.7965C123.101 16.7775 123.823 16.9203 124.523 17.183C124.926 17.3345 125.295 17.5563 125.641 17.8152C125.798 17.9329 125.908 18.0802 125.873 18.3028C125.854 18.4259 125.883 18.5554 125.846 18.7028C125.774 18.6851 125.701 18.6897 125.667 18.6548C125.344 18.3259 124.951 18.1068 124.544 17.9122C124.211 17.7533 123.857 17.6708 123.493 17.6265C123.421 17.6177 123.35 17.5999 123.278 17.5902C123.196 17.5792 123.109 17.5527 123.031 17.5678C122.715 17.6287 122.39 17.6351 122.083 17.7489C121.854 17.8339 121.651 17.9585 121.464 18.114C120.979 18.5181 120.683 19.0522 120.492 19.6444C120.409 19.9017 120.317 20.1681 120.34 20.4509C120.219 21.0507 120.286 21.6576 120.281 22.2609C120.27 23.5475 120.278 24.8341 120.278 26.1207C120.306 26.1606 120.328 26.2242 120.364 26.2355C120.431 26.2561 120.508 26.248 120.58 26.248C121.234 26.2484 121.887 26.248 122.54 26.2478C122.56 26.2837 122.596 26.319 122.597 26.3554C122.602 26.556 122.6 26.7569 122.6 26.9363C122.503 27.0397 122.404 27.0131 122.313 27.0134C121.758 27.0158 121.203 27.0145 120.649 27.0145C120.545 27.0145 120.441 27.0145 120.326 27.0145C120.307 27.0923 120.285 27.1506 120.281 27.2103C120.273 27.3055 120.278 27.4016 120.278 27.4973C120.278 30.8157 120.278 34.1342 120.277 37.4526C120.277 37.5776 120.295 37.706 120.243 37.8488C120.028 37.8923 119.809 37.8656 119.593 37.8701C119.373 37.8745 119.153 37.871 118.934 37.871C118.714 37.871 118.494 37.8739 118.274 37.8702C118.057 37.8665 117.838 37.8886 117.606 37.8504C117.595 37.7781 117.581 37.718 117.578 37.6573C117.573 37.5618 117.576 37.466 117.576 37.3702C117.576 34.0624 117.576 30.7547 117.576 27.4468C117.576 27.3208 117.572 27.1948 117.57 27.0532C117.482 27.0383 117.414 27.0174 117.344 27.0164C117.062 27.0126 116.779 27.0155 116.496 27.0142C116.393 27.0137 116.29 27.0086 116.191 27.0059C116.098 26.8778 116.139 26.7461 116.132 26.6229C116.127 26.5278 116.13 26.4311 116.14 26.3364C116.147 26.2767 116.202 26.2572 116.256 26.2478C116.534 26.248 116.812 26.2486 117.091 26.2483C117.214 26.2481 117.338 26.2473 117.461 26.2438C117.537 26.2417 117.565 26.1879 117.576 26.1207C117.576 24.5248 117.576 22.9288 117.576 21.3329C117.576 21.1847 117.564 21.0359 117.624 20.8923C117.643 20.8458 117.636 20.7875 117.638 20.7345C117.665 19.8924 117.952 19.143 118.428 18.4626C118.702 18.0695 119.044 17.7403 119.447 17.4909C119.894 17.2146 120.367 16.9888 120.885 16.8783C120.916 16.8717 120.947 16.8629 120.978 16.8634C121.135 16.8655 121.288 16.8462 121.442 16.8072C121.551 16.7797 121.671 16.7983 121.786 16.7963C121.975 16.7963 122.163 16.7963 122.352 16.7963L122.352 16.7965Z" fill="#5F7E5F"/>
<path id="Vector_7" d="M139.255 26.2478C139.643 26.23 140.02 26.3051 140.403 26.3599C141.171 26.4701 141.874 26.7523 142.545 27.1272C142.891 27.3211 143.218 27.553 143.497 27.8444C143.548 27.8978 143.599 27.9516 143.652 28.0022C144.127 28.4487 144.488 28.9775 144.755 29.5732C144.997 30.1154 145.155 30.6797 145.236 31.2741C145.284 31.6251 145.295 31.9723 145.284 32.3205C145.263 32.9368 145.15 33.5383 144.934 34.1174C144.778 34.5357 144.578 34.9324 144.345 35.3105C144.256 35.4533 144.147 35.5828 144.045 35.7165C143.968 35.8166 143.888 35.9139 143.809 36.0119C143.789 36.0365 143.77 36.063 143.746 36.083C143.343 36.4172 142.964 36.7806 142.495 37.0273C142.132 37.2181 141.762 37.3963 141.374 37.5176C141.057 37.6163 140.731 37.6881 140.404 37.7547C140.105 37.8156 139.796 37.7611 139.507 37.8683C139.109 37.8683 138.708 37.9021 138.315 37.858C137.975 37.8199 137.628 37.8186 137.294 37.7383C136.949 37.6555 136.599 37.5856 136.274 37.4385C135.93 37.2831 135.583 37.1322 135.254 36.9494C134.99 36.8029 134.741 36.6252 134.521 36.4116C134.438 36.3308 134.36 36.2438 134.276 36.1643C133.507 35.4394 133.068 34.5251 132.811 33.5099C132.762 33.3167 132.763 33.1105 132.716 32.9168C132.626 32.549 132.667 32.1772 132.658 31.807C132.654 31.659 132.672 31.5142 132.699 31.3661C132.737 31.1599 132.74 30.9464 132.782 30.7383C132.9 30.162 133.112 29.6235 133.394 29.1107C133.552 28.8228 133.748 28.5597 133.95 28.3068C134.127 28.0865 134.351 27.9053 134.557 27.7106C134.827 27.4565 135.138 27.2627 135.455 27.0784C135.956 26.7869 136.486 26.5691 137.051 26.4423C137.132 26.4241 137.213 26.4049 137.294 26.3893C137.489 26.3517 137.687 26.3334 137.879 26.2987C138.13 26.2535 138.377 26.2545 138.627 26.2479C138.837 26.2479 139.046 26.2479 139.256 26.2479L139.255 26.2478ZM135.359 32.1341C135.359 32.2936 135.369 32.454 135.357 32.6124C135.335 32.892 135.398 33.1619 135.446 33.4305C135.524 33.8568 135.64 34.2742 135.806 34.6764C135.984 35.1107 136.22 35.5143 136.515 35.8711C136.802 36.2191 137.141 36.5143 137.535 36.7526C138.208 37.1603 138.915 37.2699 139.668 37.0956C139.869 37.0492 140.068 36.9698 140.252 36.874C140.436 36.7783 140.615 36.6606 140.769 36.5214C141.026 36.2893 141.291 36.0558 141.498 35.7804C141.769 35.4201 141.997 35.0267 142.158 34.5949C142.37 34.0273 142.548 33.4464 142.574 32.8441C142.599 32.2646 142.626 31.6809 142.532 31.0973C142.427 30.4538 142.265 29.8368 141.963 29.2591C141.647 28.6538 141.267 28.1043 140.713 27.6951C140.347 27.4246 139.965 27.2077 139.507 27.1244C139.065 27.0437 138.641 27.0795 138.211 27.1881C137.835 27.2828 137.525 27.4942 137.219 27.7151C136.988 27.881 136.769 28.0645 136.595 28.2916C136.157 28.8656 135.806 29.4885 135.606 30.192C135.459 30.712 135.333 31.2348 135.358 31.7828C135.364 31.8995 135.359 32.0167 135.359 32.1336V32.1341Z" fill="#5F7E5F"/>
<path id="Vector_8" d="M90.2409 26.2496C90.3664 26.2492 90.4918 26.2485 90.6173 26.248C90.9524 26.248 91.2876 26.248 91.6227 26.248C91.7272 26.2485 91.8318 26.2492 91.9363 26.2496C91.9822 26.3239 92.0563 26.3102 92.1255 26.3124C92.1462 26.3937 92.1833 26.4745 92.1848 26.5561C92.1911 26.8752 92.1869 27.1946 92.1847 27.5138C92.1845 27.544 92.1706 27.5742 92.1647 27.5972C92.097 27.6662 92.0273 27.6507 91.9551 27.6285C91.7555 27.5673 91.5548 27.5093 91.3554 27.4474C90.9597 27.3246 90.5529 27.3225 90.146 27.338C90.0332 27.3423 89.921 27.3798 89.8097 27.4065C89.6476 27.4455 89.4869 27.4902 89.3249 27.5298C89.057 27.5953 88.8171 27.7283 88.5808 27.8632C88.3816 27.9769 88.1962 28.116 88.0078 28.2483C87.9481 28.2901 87.8989 28.3473 87.8439 28.3962C87.76 28.4709 87.7178 28.5618 87.7255 28.6775C87.7305 28.7516 87.7264 28.8265 87.7264 28.901C87.7264 31.7532 87.7267 34.6054 87.7255 37.4576C87.7255 37.5825 87.7443 37.7109 87.7022 37.8202C87.667 37.8398 87.6493 37.8582 87.6313 37.8583C86.7625 37.8634 85.8937 37.8671 85.0248 37.8708C85.0248 34.1321 85.0246 30.3934 85.0245 26.6546C85.0245 26.5909 85.0214 26.5269 85.0259 26.4635C85.0302 26.4028 85.0424 26.3426 85.0492 26.2953C85.0883 26.276 85.1065 26.2592 85.1249 26.2591C85.9711 26.2544 86.8175 26.2512 87.6639 26.248C87.7163 26.3416 87.7292 26.4426 87.7275 26.5492C87.7239 26.7682 87.7264 26.9873 87.7264 27.2062C87.7317 27.2756 87.7371 27.345 87.7438 27.4311C87.7911 27.4039 87.8189 27.3918 87.8427 27.3739C88.4048 26.9522 89.007 26.6091 89.6808 26.4068C89.7395 26.3892 89.8024 26.3854 89.8633 26.3753C89.9262 26.3541 89.989 26.3328 90.0519 26.3118C90.121 26.3102 90.195 26.3236 90.241 26.2495L90.2409 26.2496Z" fill="#5F7E5F"/>
<path id="Vector_9" d="M131.337 26.2475C131.556 26.2469 131.775 26.2399 131.988 26.3138C132.105 26.3547 132.149 26.39 132.15 26.5142C132.151 26.8745 132.166 27.2354 132.139 27.6174C132.074 27.626 132.013 27.6506 131.96 27.6382C131.848 27.612 131.742 27.5644 131.632 27.529C131.14 27.3691 130.636 27.3076 130.12 27.3359C130.059 27.3392 129.998 27.3589 129.937 27.3734C129.724 27.4245 129.512 27.4786 129.299 27.528C129.03 27.5903 128.79 27.7241 128.554 27.8586C128.345 27.9772 128.151 28.1216 127.954 28.2612C127.887 28.3094 127.832 28.3765 127.772 28.436C127.717 28.4908 127.69 28.5574 127.692 28.6366C127.693 28.7217 127.692 28.8069 127.692 28.892C127.692 31.7444 127.692 34.5967 127.691 37.4491C127.691 37.5745 127.709 37.7029 127.661 37.8364C127.621 37.8474 127.582 37.8667 127.543 37.8669C126.747 37.869 125.951 37.8693 125.155 37.8683C125.115 37.8683 125.075 37.854 125.019 37.8431C125.009 37.7791 124.996 37.719 124.991 37.6583C124.986 37.5949 124.989 37.5307 124.989 37.4669C124.989 33.8481 124.989 30.2295 124.989 26.6107C124.989 26.5256 124.986 26.4398 124.996 26.3556C125 26.318 125.033 26.2835 125.052 26.2475C125.89 26.2475 126.728 26.2475 127.566 26.2475C127.664 26.2942 127.692 26.3775 127.692 26.4813C127.689 26.7035 127.689 26.9258 127.692 27.1479C127.693 27.2185 127.705 27.2888 127.711 27.3479C127.789 27.3913 127.825 27.345 127.867 27.3183C128.158 27.1351 128.439 26.9318 128.743 26.7742C129.177 26.549 129.632 26.3775 130.122 26.3041C130.339 26.2716 130.553 26.2464 130.771 26.2475C130.959 26.2475 131.148 26.2475 131.336 26.2475H131.337Z" fill="#5F7E5F"/>
<path id="Vector_10" d="M164.327 26.2471C164.398 26.2824 164.445 26.3363 164.449 26.4186C164.453 26.5035 164.452 26.5887 164.452 26.6738C164.452 30.2688 164.452 33.8638 164.452 37.4587C164.452 37.575 164.452 37.6913 164.452 37.8163C164.389 37.8372 164.342 37.8663 164.295 37.8664C163.499 37.8692 162.704 37.8688 161.909 37.8672C161.869 37.8672 161.83 37.851 161.775 37.839C161.767 37.7717 161.756 37.7112 161.752 37.6501C161.748 37.5865 161.751 37.5225 161.751 37.4587C161.751 33.8425 161.751 30.2263 161.751 26.6101C161.751 26.5249 161.748 26.4393 161.757 26.3552C161.761 26.3175 161.794 26.2832 161.814 26.2472C162.652 26.2472 163.489 26.2472 164.327 26.2472V26.2471Z" fill="#5F7E5F"/>
<path id="Vector_11" d="M92.061 37.6153C92.0401 37.5941 92.0194 37.5728 91.9985 37.5516C91.8937 37.4451 91.7887 37.3385 91.6839 37.2322C91.663 37.2109 91.6423 37.1897 91.6214 37.1685C91.6005 37.1258 91.5794 37.0833 91.5586 37.0407C91.5559 36.9706 91.5699 36.8949 91.4957 36.8491C91.4954 36.7852 91.4951 36.7215 91.4948 36.6576C91.4465 36.4659 91.381 36.2745 91.4944 36.0828C91.5114 35.8905 91.5683 35.713 91.6737 35.5504C91.7067 35.4994 91.7231 35.4375 91.7471 35.3806C91.8098 35.3167 91.8726 35.253 91.9353 35.1891C91.9909 35.165 92.0498 35.1467 92.1017 35.1158C92.2442 35.0312 92.3821 34.9386 92.5542 34.9239C92.5798 34.9216 92.6027 34.8889 92.6269 34.8702C92.7487 34.8702 92.8712 34.8621 92.9921 34.8725C93.0807 34.88 93.1674 34.9117 93.2549 34.9327C93.4725 34.9715 93.6688 35.0635 93.8403 35.2011C94.1608 35.4582 94.3739 35.7797 94.3872 36.2107C94.3868 36.3382 94.3929 36.4659 94.3844 36.5927C94.3707 36.7968 94.3092 36.9845 94.1842 37.1501C93.9707 37.4331 93.7149 37.6565 93.3702 37.7534C93.2713 37.7812 93.1677 37.7981 93.0653 37.8053C92.9405 37.8143 92.8147 37.8077 92.6895 37.808C92.5652 37.8165 92.4513 37.7884 92.34 37.7287C92.2521 37.6814 92.1545 37.6525 92.0612 37.6155L92.061 37.6153Z" fill="#5F7E5F"/>
<path id="Vector_12" d="M162.975 24.5786C162.685 24.6547 162.426 24.5227 162.2 24.3531C161.958 24.1713 161.74 23.9479 161.662 23.6323C161.621 23.4693 161.559 23.2983 161.575 23.1378C161.598 22.8996 161.629 22.6531 161.745 22.4344C162.017 21.9209 162.457 21.6537 163.015 21.6593C163.6 21.665 164.084 21.9185 164.38 22.4619C164.466 22.6202 164.524 22.7909 164.517 22.9773C164.51 23.209 164.54 23.4417 164.456 23.6691C164.372 23.8947 164.225 24.0659 164.05 24.2173C163.972 24.2855 163.889 24.352 163.8 24.4058C163.551 24.5572 163.281 24.6218 162.975 24.5787L162.975 24.5786Z" fill="#5F7E5F"/>
<path id="Vector_13" d="M13.4492 13.1568C13.5427 13.1143 13.6335 13.0642 13.7301 13.0308C14.3426 12.8194 14.9566 12.6123 15.5698 12.4026C17.686 11.679 19.8017 10.9543 21.918 10.2313C23.9354 9.54204 25.9538 8.85565 27.9707 8.16527C28.4155 8.01308 28.8546 7.8438 29.2994 7.69209C30.8814 7.15246 32.465 6.61795 34.0473 6.07913C34.512 5.92086 34.9732 5.7519 35.4378 5.59268C36.3962 5.26434 37.3552 4.93824 38.315 4.61421C38.4228 4.5778 38.5369 4.56103 38.6481 4.53516C38.6399 4.58945 38.6247 4.63577 38.5643 4.65557C38.0082 4.83715 37.4506 5.01441 36.897 5.20398C35.829 5.56953 34.7631 5.94162 33.6969 6.31261C33.391 6.41897 33.0889 6.53634 32.7819 6.63935C32.2075 6.83211 31.6291 7.01257 31.0555 7.20788C29.9375 7.58876 28.8215 7.97571 27.7052 8.36154C27.2607 8.51517 26.8188 8.67615 26.3735 8.82691C25.8789 8.99443 25.3801 9.14918 24.8858 9.31798C23.7681 9.69966 22.6518 10.086 21.5354 10.472C21.0911 10.6256 20.6496 10.7883 20.2042 10.9388C19.6996 11.1092 19.1899 11.2642 18.6857 11.4364C17.5779 11.8147 16.4718 12.1986 15.3659 12.5825C15.0402 12.6956 14.7182 12.8202 14.3921 12.9315C14.1155 13.0259 13.836 13.111 13.5559 13.194C13.5265 13.2028 13.4852 13.1701 13.4494 13.1565L13.4492 13.1568Z" fill="#5F7E5F"/>
<path id="Vector_14" d="M1.44531 22.9273C1.52748 22.9168 1.61437 22.9202 1.69135 22.8938C2.39382 22.653 3.0936 22.4042 3.79591 22.1633C4.57771 21.8954 5.36219 21.6354 6.14399 21.3676C6.50991 21.2422 6.87096 21.1021 7.23688 20.9766C7.98805 20.7187 8.74094 20.4659 9.49337 20.2117C9.53264 20.1984 9.57412 20.1915 9.6145 20.1816C9.59643 20.2179 9.58748 20.2685 9.55841 20.2875C9.50703 20.3211 9.44403 20.3373 9.38496 20.3576C8.27871 20.7396 7.17215 21.1204 6.06622 21.5031C5.62205 21.6569 5.18103 21.8203 4.73561 21.9701C4.15162 22.1665 3.56338 22.3499 2.9797 22.5468C2.58392 22.6803 2.19287 22.8282 1.79929 22.9685C1.72058 22.9967 1.64171 23.0276 1.56032 23.043C1.47956 23.0583 1.4538 22.9967 1.44531 22.927V22.9273Z" fill="#5F7E5F"/>
<path id="Vector_15" d="M4.65055 19.0314C4.73366 18.9915 4.81379 18.9427 4.90036 18.9131C5.54186 18.6942 6.18556 18.4816 6.82675 18.262C7.21136 18.1303 7.59158 17.9859 7.97588 17.8535C8.57669 17.6465 9.18001 17.4474 9.78035 17.2391C9.9117 17.1935 10.0437 17.1599 10.1783 17.1836C10.3579 17.2152 10.5243 17.2784 10.5579 17.4987C10.5097 17.4811 10.4526 17.4747 10.4149 17.4439C10.2033 17.2709 9.97564 17.2751 9.7351 17.3635C9.48026 17.4573 9.22542 17.5509 8.96869 17.6387C8.21721 17.8953 7.464 18.1467 6.71315 18.4049C6.33796 18.534 5.96764 18.6775 5.59245 18.8067C5.3164 18.9018 5.03674 18.9861 4.75691 19.0691C4.72753 19.0779 4.68621 19.0452 4.65039 19.0316L4.65055 19.0314Z" fill="#5F7E5F"/>
<path id="Vector_16" d="M7.29102 15.2639C7.38434 15.2216 7.475 15.1713 7.57131 15.138C8.25193 14.9041 8.93444 14.6752 9.61522 14.4416C10.7695 14.0455 11.9231 13.6473 13.0771 13.2506C13.1162 13.2372 13.1575 13.2304 13.1979 13.2207C13.1798 13.257 13.1709 13.3076 13.142 13.3266C13.0906 13.3601 13.0276 13.3762 12.9685 13.3967C11.7938 13.8023 10.6187 14.2068 9.44412 14.6133C9.0397 14.7533 8.63781 14.9014 8.23276 15.0394C7.9564 15.1334 7.67705 15.2184 7.39738 15.3014C7.368 15.3102 7.32668 15.2775 7.29102 15.2639Z" fill="#5F7E5F"/>
<path id="Vector_17" d="M3.39485 16.5412C3.49571 16.5182 3.60145 16.5077 3.69666 16.47C4.20147 16.2705 4.71697 16.106 5.23513 15.9462C5.74277 15.7895 6.23878 15.594 6.74061 15.4177C6.83865 15.3832 6.93967 15.3578 7.03944 15.3281C7.02153 15.3644 7.00974 15.4064 6.98351 15.435C6.96481 15.4554 6.92695 15.4576 6.89741 15.4679C5.77498 15.8562 4.65239 16.2442 3.53044 16.634C3.47466 16.6533 3.43114 16.6563 3.39453 16.6046C3.39453 16.5835 3.39453 16.5623 3.39469 16.5412H3.39485Z" fill="#5F7E5F"/>
<path id="Vector_18" d="M9.86523 20.1173C9.94835 20.0774 10.0285 20.0285 10.115 19.9989C10.7565 19.78 11.3999 19.5671 12.0414 19.3479C12.3569 19.2401 12.6688 19.1212 12.9837 19.0114C13.0514 18.9877 13.1249 18.9818 13.1958 18.9678C13.1896 19.039 13.1546 19.0781 13.0844 19.1006C12.816 19.187 12.5489 19.2774 12.2829 19.3707C11.7905 19.5435 11.3002 19.7225 10.8067 19.8926C10.5308 19.9876 10.2513 20.0718 9.9716 20.1547C9.94222 20.1634 9.9009 20.1307 9.86523 20.1171V20.1173Z" fill="#5F7E5F"/>
<path id="Vector_19" d="M2.26172 19.862C2.44099 19.7831 2.61586 19.6911 2.80031 19.6275C3.33104 19.4445 3.86555 19.2728 4.39864 19.0967C4.3889 19.1265 4.38638 19.1626 4.36769 19.1845C4.34899 19.2064 4.31537 19.2171 4.28646 19.2273C3.6569 19.4488 3.02687 19.669 2.39778 19.8918C2.34185 19.9116 2.29833 19.9139 2.26188 19.8621L2.26172 19.862Z" fill="#5F7E5F"/>
<path id="Vector_20" d="M35.1913 49.1738C35.1831 49.2621 35.2208 49.362 35.1292 49.4295C35.0331 49.2762 35.0424 49.2375 35.1913 49.1738Z" fill="#5F7E5F"/>
<path id="Vector_21" d="M1.5081 22.416C1.50652 22.4864 1.51976 22.5617 1.44567 22.608C1.43748 22.5894 1.42802 22.5714 1.4214 22.5522C1.39901 22.4874 1.42786 22.442 1.50794 22.416H1.5081Z" fill="#5F7E5F"/>
<path id="Vector_22" d="M1.571 22.0967C1.55047 22.1391 1.52993 22.1816 1.50956 22.224C1.44499 22.1381 1.4511 22.1254 1.571 22.0967Z" fill="#5F7E5F"/>
<path id="Vector_23" d="M74.0879 36.5935C74.2387 36.4953 74.4155 36.4634 74.5823 36.4193C75.059 36.2936 75.5161 36.1216 75.9568 35.9004C76.0212 35.8682 76.0932 35.8511 76.1617 35.8271C76.137 35.8704 76.1225 35.9316 76.0856 35.9539C75.9605 36.0295 75.8325 36.106 75.6963 36.1555C75.238 36.3221 74.7759 36.4778 74.3146 36.636C74.2332 36.664 74.1507 36.6774 74.0879 36.5935Z" fill="#5F7E5F"/>
<path id="Vector_24" d="M76.6016 35.5721C76.6946 35.437 76.8244 35.3581 76.9786 35.3164C76.9764 35.3919 76.948 35.4521 76.8819 35.4914C76.7951 35.543 76.7053 35.5823 76.6016 35.5721Z" fill="#5F7E5F"/>
<path id="Vector_25" d="M73.4609 36.7199C73.5276 36.6273 73.6258 36.6657 73.7126 36.6571C73.6066 36.8012 73.5838 36.8068 73.4609 36.7199Z" fill="#5F7E5F"/>
<path id="Vector_26" d="M73.7754 36.6568C73.821 36.582 73.895 36.5953 73.9642 36.5938C73.9146 36.7369 73.8967 36.743 73.7754 36.6568Z" fill="#5F7E5F"/>
<path id="Vector_27" d="M7.12454 37.2746C7.29549 37.3011 7.44899 37.3254 7.6028 37.3482C7.64412 37.3543 7.68607 37.3599 7.72771 37.3587C8.33826 37.344 8.92697 37.4823 9.51143 37.6345C10.1391 37.7979 10.747 38.0194 11.3258 38.3219C11.7531 38.5453 12.1832 38.7623 12.5736 39.0503C12.8515 39.2552 13.1248 39.4653 13.3919 39.6857C13.6857 39.9281 13.9422 40.2055 14.2136 40.4692C14.4778 40.7261 14.6969 41.0227 14.9294 41.3081C15.1629 41.5946 15.377 41.8943 15.5761 42.2038C16.0336 42.9155 16.4218 43.6652 16.7524 44.4476C16.9584 44.9352 17.157 45.4246 17.3169 45.9296C17.422 46.2616 17.5133 46.5983 17.6248 46.9279C17.6923 47.127 17.6406 47.304 17.5708 47.4827C17.5562 47.5201 17.5235 47.553 17.4927 47.5806C17.1959 47.8458 16.7159 47.7085 16.6001 47.3247C16.5544 47.173 16.52 47.0178 16.4718 46.8671C16.3365 46.4442 16.1954 46.0232 16.0592 45.6006C15.8304 44.8909 15.484 44.2354 15.1511 43.5744C14.9418 43.159 14.6893 42.769 14.4133 42.3956C14.232 42.1505 14.0495 41.9063 13.8654 41.6636C13.8209 41.605 13.7694 41.5515 13.718 41.4986C13.5636 41.3397 13.4035 41.1862 13.253 41.0237C12.7845 40.5176 12.2327 40.1177 11.6612 39.7464C11.0783 39.3676 10.4469 39.0857 9.79346 38.8591C9.31064 38.6916 8.81227 38.5875 8.30856 38.5007C8.03754 38.4541 7.76934 38.4597 7.49958 38.442C7.27192 38.427 7.04677 38.4294 6.81958 38.4423C6.62665 38.4535 6.44738 38.3982 6.3099 38.2467C6.02474 37.9322 6.1465 37.4758 6.5528 37.3691C6.7426 37.3193 6.94103 37.3038 7.12486 37.2744L7.12454 37.2746Z" fill="#5F7E5F"/>
<path id="Vector_28" d="M38.4063 23.0922C38.421 23.1466 38.43 23.177 38.4372 23.2076C38.5621 23.7409 38.1627 24.2174 37.5674 24.1339C37.4788 24.1214 37.3927 24.0681 37.3131 24.0207C37.2604 23.9894 37.2171 23.9381 37.1768 23.8895C37.0691 23.7595 36.9402 23.735 36.7822 23.779C36.5218 23.8515 36.2585 23.9129 35.9905 23.9803C35.9487 24.0301 35.9777 24.0778 36.0225 24.1064C36.2436 24.2469 36.4698 24.379 36.6901 24.5208C36.9468 24.6863 37.212 24.831 37.4997 24.9348C37.6172 24.9772 37.7302 25.0381 37.8369 25.1045C38.0777 25.2545 38.1396 25.6724 37.9564 25.8898C37.9233 25.9292 37.8791 25.9623 37.8344 25.9875C37.7523 26.0337 37.6659 26.072 37.5602 26.1239C37.3866 26.0618 37.1938 26.0102 37.0163 25.9259C36.448 25.656 35.894 25.3585 35.3769 24.9943C35.0844 24.7883 34.7995 24.5732 34.5648 24.2993C34.4592 24.176 34.3373 24.1245 34.1775 24.1379C34.0528 24.1484 33.9247 24.1526 33.8012 24.1361C33.6791 24.1198 33.5498 24.0949 33.443 24.0371C33.218 23.9151 33.1065 23.6236 33.1938 23.3799C33.2479 23.2287 33.3662 23.1112 33.5214 23.0586C33.6286 23.0222 33.7437 23.0011 33.8565 22.994C34.0234 22.9834 34.1915 22.9868 34.3588 22.9919C34.9766 23.0109 35.5845 22.9425 36.1873 22.8039C36.7291 22.6795 37.2596 22.5316 37.7357 22.2272C37.7962 22.1886 37.8699 22.1717 37.9338 22.1376C38.0747 22.0624 38.2034 22.1046 38.3151 22.191C38.4053 22.2608 38.5112 22.3417 38.5497 22.4417C38.6135 22.608 38.6259 22.7938 38.5167 22.9588C38.488 23.0023 38.4502 23.0396 38.4061 23.0925L38.4063 23.0922Z" fill="#5F7E5F"/>
<path id="Vector_29" d="M39.8398 20.1724C39.8398 20.285 39.8437 20.3279 39.8392 20.3701C39.8103 20.6401 39.5113 20.8623 39.2475 20.7995C38.9832 20.7366 38.7207 20.6753 38.4462 20.6887C38.3855 20.6917 38.323 20.6711 38.2625 20.6561C38.0969 20.6147 37.9327 20.6135 37.7675 20.6585C37.7076 20.6748 37.6451 20.6877 37.5833 20.6898C36.5781 20.7257 35.6365 21.0063 34.7293 21.4345C34.2368 21.667 33.7219 21.8289 33.1808 21.9147C32.9412 21.9527 32.7051 21.9741 32.4659 21.9655C32.3534 21.9613 32.2369 21.9386 32.1314 21.899C31.862 21.7978 31.7177 21.4664 31.8122 21.193C31.8593 21.0565 32.0733 20.8918 32.2167 20.8838C32.2689 20.881 32.3214 20.8829 32.3737 20.8829C32.9535 20.8832 33.5098 20.7743 34.0459 20.543C34.5062 20.3444 34.9584 20.1259 35.44 19.9779C35.8792 19.8427 36.3209 19.7322 36.7754 19.6629C37.2601 19.589 37.744 19.5238 38.2352 19.5436C38.3384 19.5478 38.4408 19.5705 38.5439 19.5816C38.6369 19.5919 38.7303 19.6018 38.8237 19.6051C39.0439 19.6131 39.2539 19.6719 39.4662 19.7241C39.6227 19.7626 39.7171 19.878 39.7986 19.9985C39.8415 20.0619 39.8371 20.1585 39.8401 20.1725L39.8398 20.1724Z" fill="#5F7E5F"/>
<path id="Vector_30" d="M23.7733 20.7554C23.526 20.7554 23.3463 20.7718 23.1704 20.7519C22.8507 20.7156 22.5329 20.6613 22.2153 20.6073C22.0516 20.5796 21.8904 20.5361 21.7281 20.4997C21.4513 20.4376 21.3324 20.298 21.3074 19.95C21.292 19.7363 21.5218 19.4728 21.7445 19.4269C21.8134 19.4126 21.8904 19.4222 21.9611 19.4356C22.2367 19.4879 22.509 19.5645 22.7865 19.5979C23.2209 19.6503 23.6584 19.7122 24.0965 19.6672C24.688 19.6064 25.2739 19.5102 25.813 19.2301C26.4562 18.896 26.9425 18.4017 27.2744 17.7503C27.3178 17.6654 27.3547 17.5766 27.4028 17.4947C27.5451 17.2518 27.8559 17.1658 28.1185 17.2926C28.3725 17.4153 28.4718 17.6833 28.3607 17.9648C28.1724 18.4425 27.8921 18.8588 27.5473 19.2349C27.3326 19.469 27.0953 19.6779 26.8457 19.8676C26.6468 20.0189 26.4197 20.1364 26.1946 20.2464C25.7507 20.4636 25.2796 20.6073 24.7941 20.6805C24.4347 20.7346 24.072 20.8017 23.7734 20.7552L23.7733 20.7554Z" fill="#5F7E5F"/>
<path id="Vector_31" d="M41.1602 49.7536C41.1753 49.9283 41.1517 50.1478 41.0925 50.3643C41.0013 50.6973 40.8502 50.9946 40.6056 51.239C40.5608 51.2837 40.5135 51.3262 40.4731 51.3746C40.1608 51.7484 39.7455 51.957 39.2868 52.0244C38.6429 52.1189 38.0242 52.0293 37.4787 51.6066C37.2326 51.4161 37.0276 51.2034 36.8713 50.9351C36.727 50.6874 36.6216 50.4275 36.5688 50.1431C36.536 49.9659 36.4895 49.7905 36.5116 49.6096C36.5647 49.1758 36.6647 48.7533 36.9052 48.3847C37.0018 48.2368 37.1514 48.1256 37.2656 47.9881C37.4977 47.7087 37.8083 47.5586 38.1357 47.4471C38.5896 47.2927 39.0454 47.2773 39.5132 47.4313C39.9107 47.5622 40.2601 47.7494 40.5416 48.0656C40.9324 48.5043 41.1834 48.999 41.1603 49.6085C41.1591 49.6402 41.1603 49.6722 41.1603 49.7533L41.1602 49.7536Z" fill="#5F7E5F"/>
</g>
</svg>
