<svg width="80" height="80" viewBox="0 0 80 80" fill="none" xmlns="http://www.w3.org/2000/svg">
<circle cx="40" cy="40" r="40" fill="#FAC0A7"/>
<path d="M35.3583 24.291H44.6583L43.1083 47.141H36.9083L35.3583 24.291ZM40.0083 59.691C38.6416 59.691 37.4916 59.2577 36.5583 58.391C35.6583 57.491 35.2083 56.4077 35.2083 55.141C35.2083 53.8743 35.6583 52.8243 36.5583 51.991C37.4583 51.1243 38.6083 50.691 40.0083 50.691C41.4083 50.691 42.5583 51.1243 43.4583 51.991C44.3583 52.8243 44.8083 53.8743 44.8083 55.141C44.8083 56.4077 44.3416 57.491 43.4083 58.391C42.5083 59.2577 41.3749 59.691 40.0083 59.691Z" fill="white"/>
</svg>
