<svg width="33" height="33" viewBox="0 0 33 33" fill="none" xmlns="http://www.w3.org/2000/svg">
<rect x="0.00146484" y="0.499756" width="32" height="32" rx="16" fill="white"/>
<mask id="path-2-inside-1_868_11899" fill="white">
<path fill-rule="evenodd" clip-rule="evenodd" d="M18.1905 19.5811C17.3398 20.1826 16.2928 20.5373 15.1607 20.5373C12.3113 20.5373 10.0015 18.2903 10.0015 15.5185C10.0015 12.7467 12.3113 10.4998 15.1607 10.4998C18.01 10.4998 20.3199 12.7467 20.3199 15.5185C20.3199 16.7869 19.8362 17.9453 19.0386 18.8289L22.0015 21.7111L21.1908 22.4998L18.1905 19.5811ZM19.1734 15.5185C19.1734 17.6744 17.3768 19.422 15.1607 19.422C12.9445 19.422 11.148 17.6744 11.148 15.5185C11.148 13.3627 12.9445 11.615 15.1607 11.615C17.3768 11.615 19.1734 13.3627 19.1734 15.5185Z"/>
</mask>
<path fill-rule="evenodd" clip-rule="evenodd" d="M18.1905 19.5811C17.3398 20.1826 16.2928 20.5373 15.1607 20.5373C12.3113 20.5373 10.0015 18.2903 10.0015 15.5185C10.0015 12.7467 12.3113 10.4998 15.1607 10.4998C18.01 10.4998 20.3199 12.7467 20.3199 15.5185C20.3199 16.7869 19.8362 17.9453 19.0386 18.8289L22.0015 21.7111L21.1908 22.4998L18.1905 19.5811ZM19.1734 15.5185C19.1734 17.6744 17.3768 19.422 15.1607 19.422C12.9445 19.422 11.148 17.6744 11.148 15.5185C11.148 13.3627 12.9445 11.615 15.1607 11.615C17.3768 11.615 19.1734 13.3627 19.1734 15.5185Z" fill="url(#paint0_linear_868_11899)"/>
<path d="M18.1905 19.5811L21.6769 15.9972L18.6978 13.0992L15.3042 15.4984L18.1905 19.5811ZM19.0386 18.8289L15.3273 15.4783L12.0992 19.0539L15.5521 22.4129L19.0386 18.8289ZM22.0015 21.7111L25.4879 25.2951L29.1721 21.7111L25.4879 18.1272L22.0015 21.7111ZM21.1908 22.4998L17.7044 26.0837L21.1908 29.4752L24.6772 26.0837L21.1908 22.4998ZM15.1607 24.422C20.0073 24.422 24.1734 20.565 24.1734 15.5185H14.1734C14.1734 14.7838 14.7464 14.422 15.1607 14.422V24.422ZM6.14796 15.5185C6.14796 20.565 10.3141 24.422 15.1607 24.422V14.422C15.575 14.422 16.148 14.7838 16.148 15.5185H6.14796ZM15.1607 6.61504C10.3141 6.61504 6.14796 10.4721 6.14796 15.5185H16.148C16.148 16.2533 15.575 16.615 15.1607 16.615V6.61504ZM24.1734 15.5185C24.1734 10.4721 20.0073 6.61504 15.1607 6.61504V16.615C14.7464 16.615 14.1734 16.2533 14.1734 15.5185H24.1734ZM15.1607 25.5373C17.3504 25.5373 19.4016 24.8483 21.0768 23.6639L15.3042 15.4984C15.2897 15.5086 15.2718 15.5179 15.2505 15.5248C15.2307 15.5312 15.2021 15.5373 15.1607 15.5373V25.5373ZM5.00146 15.5185C5.00146 21.1809 9.68088 25.5373 15.1607 25.5373V15.5373C15.1099 15.5373 15.077 15.5281 15.055 15.519C15.03 15.5087 15.0111 15.4952 14.999 15.4834C14.9869 15.4716 14.9876 15.4677 14.9922 15.4784C14.9985 15.4928 15.0015 15.5102 15.0015 15.5185H5.00146ZM15.1607 5.49976C9.68088 5.49976 5.00146 9.85613 5.00146 15.5185H15.0015C15.0015 15.5269 14.9985 15.5442 14.9922 15.5587C14.9876 15.5693 14.9869 15.5654 14.999 15.5537C15.0111 15.5419 15.03 15.5283 15.055 15.5181C15.077 15.509 15.1099 15.4998 15.1607 15.4998V5.49976ZM25.3199 15.5185C25.3199 9.85613 20.6405 5.49976 15.1607 5.49976V15.4998C15.2114 15.4998 15.2443 15.509 15.2664 15.5181C15.2914 15.5283 15.3102 15.5419 15.3224 15.5537C15.3345 15.5654 15.3338 15.5693 15.3291 15.5587C15.3229 15.5442 15.3199 15.5269 15.3199 15.5185H25.3199ZM22.7498 22.1795C24.3336 20.4252 25.3199 18.0881 25.3199 15.5185H15.3199C15.3199 15.5171 15.3201 15.5113 15.3217 15.5029C15.3233 15.4947 15.3256 15.4873 15.3279 15.4813C15.3326 15.4694 15.335 15.4698 15.3273 15.4783L22.7498 22.1795ZM15.5521 22.4129L18.515 25.2951L25.4879 18.1272L22.525 15.2449L15.5521 22.4129ZM18.515 18.1272L17.7044 18.9158L24.6772 26.0837L25.4879 25.2951L18.515 18.1272ZM24.6772 18.9158L21.6769 15.9972L14.7041 23.1651L17.7044 26.0837L24.6772 18.9158Z" fill="black" mask="url(#path-2-inside-1_868_11899)"/>
<defs>
<linearGradient id="paint0_linear_868_11899" x1="-22.8068" y1="16.3634" x2="28.0262" y2="16.3634" gradientUnits="userSpaceOnUse">
<stop stop-color="#3AD7CD"/>
<stop offset="1" stop-color="#B9CA90"/>
</linearGradient>
</defs>
</svg>
