<svg width="93" height="26" viewBox="0 0 93 26" fill="none" xmlns="http://www.w3.org/2000/svg">
<rect width="93" height="26" rx="13" fill="#5F7E5F"/>
<path d="M14.7772 8.40641C15.0883 7.86453 15.9117 7.86453 16.2228 8.4064L17.5649 10.744L20.3292 11.2357C20.9674 11.3492 21.2209 12.0839 20.7761 12.5308L18.8411 14.4749L19.2028 17.1227C19.2862 17.7329 18.6209 18.1879 18.0331 17.9229L15.5 16.7807L12.9669 17.9229C12.3791 18.1879 11.7138 17.7329 11.7972 17.1227L12.1589 14.4749L10.2239 12.5308C9.77909 12.0839 10.0326 11.3492 10.6708 11.2357L13.4351 10.744L14.7772 8.40641Z" fill="white"/>
<path d="M29.7772 8.40641C30.0883 7.86453 30.9117 7.86453 31.2228 8.4064L32.5649 10.744L35.3292 11.2357C35.9674 11.3492 36.2209 12.0839 35.7761 12.5308L33.8411 14.4749L34.2028 17.1227C34.2862 17.7329 33.6209 18.1879 33.0331 17.9229L30.5 16.7807L27.9669 17.9229C27.3791 18.1879 26.7138 17.7329 26.7972 17.1227L27.1589 14.4749L25.2239 12.5308C24.7791 12.0839 25.0326 11.3492 25.6708 11.2357L28.4351 10.744L29.7772 8.40641Z" fill="white"/>
<path d="M44.7772 8.40641C45.0883 7.86453 45.9117 7.86453 46.2228 8.4064L47.5649 10.744L50.3292 11.2357C50.9674 11.3492 51.2209 12.0839 50.7761 12.5308L48.8411 14.4749L49.2028 17.1227C49.2862 17.7329 48.6209 18.1879 48.0331 17.9229L45.5 16.7807L42.9669 17.9229C42.3791 18.1879 41.7138 17.7329 41.7972 17.1227L42.1589 14.4749L40.2239 12.5308C39.7791 12.0839 40.0326 11.3492 40.6708 11.2357L43.4351 10.744L44.7772 8.40641Z" fill="white"/>
<path d="M59.7772 8.40641C60.0883 7.86453 60.9117 7.86453 61.2228 8.4064L62.5649 10.744L65.3292 11.2357C65.9674 11.3492 66.2209 12.0839 65.7761 12.5308L63.8411 14.4749L64.2028 17.1227C64.2862 17.7329 63.6209 18.1879 63.0331 17.9229L60.5 16.7807L57.9669 17.9229C57.3791 18.1879 56.7138 17.7329 56.7972 17.1227L57.1589 14.4749L55.2239 12.5308C54.7791 12.0839 55.0326 11.3492 55.6708 11.2357L58.4351 10.744L59.7772 8.40641Z" fill="white"/>
<path d="M74.7772 8.40641C75.0883 7.86453 75.9117 7.86453 76.2228 8.4064L77.5649 10.744L80.3292 11.2357C80.9674 11.3492 81.2209 12.0839 80.7761 12.5308L78.8411 14.4749L79.2028 17.1227C79.2862 17.7329 78.6209 18.1879 78.0331 17.9229L75.5 16.7807L72.9669 17.9229C72.3791 18.1879 71.7138 17.7329 71.7972 17.1227L72.1589 14.4749L70.2239 12.5308C69.7791 12.0839 70.0326 11.3492 70.6708 11.2357L73.4351 10.744L74.7772 8.40641Z" fill="white"/>
</svg>
