<svg width="15" height="15" viewBox="0 0 15 15" fill="none" xmlns="http://www.w3.org/2000/svg">
<g clip-path="url(#clip0_354_4071)">
<path d="M14.4177 8.16357C14.0961 8.16357 13.8354 8.41789 13.8354 8.73156V11.8009C13.8354 12.6624 13.0322 13.3634 12.0453 13.3634H2.95469C1.96742 13.3634 1.1646 12.6624 1.1646 11.8009V8.73156C1.1646 8.41789 0.903877 8.16357 0.582298 8.16357C0.260719 8.16357 0 8.41789 0 8.73156V11.8009C0 13.289 1.32539 14.4994 2.95469 14.4994H12.0453C13.6746 14.4994 15 13.2887 15 11.8009V8.73156C15 8.41789 14.7393 8.16357 14.4177 8.16357Z" fill="black"/>
<path d="M4.6242 4.41324C4.77334 4.41324 4.92211 4.3579 5.03594 4.24687L6.9177 2.41135V10.2723C6.9177 10.586 7.17842 10.8403 7.5 10.8403C7.82158 10.8403 8.0823 10.586 8.0823 10.2723V2.41135L9.96406 4.24687C10.0779 4.3579 10.2267 4.41324 10.3758 4.41324C10.5249 4.41324 10.6737 4.3579 10.7875 4.24687C11.0148 4.02517 11.0148 3.66533 10.7875 3.44363L7.93992 0.665613C7.81895 0.547618 7.65853 0.493017 7.5 0.500713C7.34184 0.493384 7.18142 0.547984 7.06046 0.665613L4.21246 3.44363C3.98517 3.66533 3.98517 4.02517 4.21246 4.24687C4.32629 4.3579 4.47505 4.41324 4.6242 4.41324Z" fill="black"/>
</g>
<defs>
<clipPath id="clip0_354_4071">
<rect width="15" height="14" fill="white" transform="translate(0 0.5)"/>
</clipPath>
</defs>
</svg>
