<svg width="18" height="18" viewBox="0 0 18 18" fill="none" xmlns="http://www.w3.org/2000/svg">
<path fill-rule="evenodd" clip-rule="evenodd" d="M9 3.6C6.01766 3.6 3.6 6.01766 3.6 9C3.6 11.9823 6.01766 14.4 9 14.4C11.9823 14.4 14.4 11.9823 14.4 9C14.4 6.01766 11.9823 3.6 9 3.6ZM3 9C3 5.68629 5.68629 3 9 3C12.3137 3 15 5.68629 15 9C15 12.3137 12.3137 15 9 15C5.68629 15 3 12.3137 3 9Z" fill="black" stroke="black" stroke-width="0.3" stroke-linecap="round" stroke-linejoin="round"/>
<path fill-rule="evenodd" clip-rule="evenodd" d="M9 5.6C7.67452 5.6 6.6 6.67452 6.6 8C6.6 9.32548 7.67452 10.4 9 10.4C10.3255 10.4 11.4 9.32548 11.4 8C11.4 6.67452 10.3255 5.6 9 5.6ZM6 8C6 6.34315 7.34315 5 9 5C10.6569 5 12 6.34315 12 8C12 9.65685 10.6569 11 9 11C7.34315 11 6 9.65685 6 8Z" fill="black" stroke="black" stroke-width="0.3" stroke-miterlimit="10"/>
<path fill-rule="evenodd" clip-rule="evenodd" d="M9.03655 11.4928C7.58108 11.4928 6.28177 12.0816 5.44933 13L5 12.6962C5.93655 11.663 7.39915 11 9.03655 11C10.6315 11 12.0577 11.6265 13 12.6124L12.5599 12.9261C11.7218 12.0491 10.4546 11.4928 9.03655 11.4928Z" fill="black" stroke="black" stroke-width="0.3" stroke-miterlimit="10"/>
</svg>
