<svg width="56" height="38" viewBox="0 0 56 38" fill="none" xmlns="http://www.w3.org/2000/svg">
<rect width="56" height="38" rx="4" fill="#383838"/>
<path d="M23.9585 25.4644H20.7922L22.7726 13.3462H25.9388L23.9585 25.4644Z" fill="white"/>
<path d="M35.4357 13.6426C34.8112 13.3974 33.8206 13.1267 32.5958 13.1267C29.4689 13.1267 27.2669 14.7768 27.2534 17.1358C27.2275 18.8764 28.8299 19.8431 30.0285 20.4234C31.2535 21.0165 31.6699 21.4035 31.6699 21.9321C31.6575 22.744 30.68 23.1182 29.7684 23.1182C28.5043 23.1182 27.8269 22.9252 26.7975 22.4736L26.3806 22.28L25.9375 25.0002C26.6801 25.335 28.0484 25.6322 29.4689 25.6452C32.7912 25.6452 34.9542 24.0207 34.9798 21.5067C34.9925 20.1272 34.1463 19.0702 32.322 18.2064C31.2145 17.6519 30.5363 17.2781 30.5363 16.7107C30.5493 16.195 31.11 15.6667 32.3601 15.6667C33.3895 15.6409 34.1458 15.8857 34.7187 16.1307L35.0051 16.2594L35.4357 13.6426Z" fill="white"/>
<path d="M39.6458 21.1713C39.9065 20.4752 40.9099 17.7808 40.9099 17.7808C40.8968 17.8066 41.1702 17.0717 41.3265 16.6206L41.5478 17.6648C41.5478 17.6648 42.1474 20.5655 42.2776 21.1713C41.7828 21.1713 40.2712 21.1713 39.6458 21.1713ZM43.5543 13.3462H41.1051C40.3498 13.3462 39.776 13.5652 39.4501 14.3516L34.7469 25.4642H38.0693C38.0693 25.4642 38.6162 23.9685 38.7338 23.6464C39.0983 23.6464 42.3303 23.6464 42.7992 23.6464C42.8901 24.0719 43.177 25.4642 43.177 25.4642H46.1087L43.5543 13.3462Z" fill="white"/>
<path d="M18.1472 13.3462L15.0463 21.6096L14.7074 19.9337C14.1341 17.9999 12.3362 15.8989 10.3297 14.8542L13.17 25.4515H16.5184L21.4954 13.3462H18.1472Z" fill="white"/>
<path d="M12.1668 13.3462H7.07244L7.02032 13.5911C10.9943 14.5968 13.6261 17.0211 14.7074 19.935L13.6 14.365C13.4176 13.5909 12.8573 13.3717 12.1668 13.3462Z" fill="white"/>
</svg>
